NewsreaderText-ExtraLight.ufo
<glyph name="exclam" format="2">
	<unicode hex="0021"/>
	<advance width="477"/>
	<outline>
		<contour>
			<point x="284" y="1318" type="line" smooth="yes"/>
			<point x="284" y="1341"/>
			<point x="270" y="1350"/>
			<point x="239" y="1350" type="curve" smooth="yes"/>
			<point x="208" y="1350"/>
			<point x="193" y="1341"/>
			<point x="193" y="1318" type="curve" smooth="yes"/>
			<point x="193" y="1298" type="line" smooth="yes"/>
			<point x="193" y="1267"/>
			<point x="215" y="717"/>
			<point x="220" y="396" type="curve"/>
			<point x="254" y="396" type="line"/>
			<point x="259" y="717"/>
			<point x="284" y="1270"/>
			<point x="284" y="1298" type="curve" smooth="yes"/>
		</contour>
		<contour>
			<point x="239" y="145" type="curve" smooth="yes"/>
			<point x="194" y="145"/>
			<point x="160" y="109"/>
			<point x="160" y="65" type="curve" smooth="yes"/>
			<point x="160" y="21"/>
			<point x="194" y="-15"/>
			<point x="239" y="-15" type="curve" smooth="yes"/>
			<point x="284" y="-15"/>
			<point x="318" y="21"/>
			<point x="318" y="65" type="curve" smooth="yes"/>
			<point x="318" y="109"/>
			<point x="284" y="145"/>
		</contour>
	</outline>
</glyph>
<glyph name="quotesingle" format="2">
  <advance width="303.0"/>
  <unicode hex="0027"/>
  <outline>
    <contour>
      <point x="137.0" y="929.0" type="line"/>
      <point x="164.0" y="929.0" type="line"/>
      <point x="199.0" y="1300.0" type="line"/>
      <point x="199.0" y="1340.0" type="line"/>
      <point x="105.0" y="1340.0" type="line"/>
      <point x="105.0" y="1300.0" type="line"/>
    </contour>
  </outline>
</glyph>
<glyph name="parenleft" format="2">
	<unicode hex="0028"/>
	<advance width="505"/>
	<outline>
		<contour>
			<point x="161" y="572" type="curve" smooth="yes"/>
			<point x="161" y="827"/>
			<point x="243" y="1068"/>
			<point x="449" y="1399" type="curve"/>
			<point x="419" y="1419" type="line"/>
			<point x="185" y="1076"/>
			<point x="87" y="876"/>
			<point x="87" y="572" type="curve" smooth="yes"/>
			<point x="87" y="268"/>
			<point x="185" y="68"/>
			<point x="419" y="-275" type="curve"/>
			<point x="449" y="-255" type="line"/>
			<point x="243" y="76"/>
			<point x="161" y="317"/>
		</contour>
	</outline>
</glyph>
<glyph name="parenright" format="2">
	<unicode hex="0029"/>
	<advance width="505"/>
	<outline>
		<contour>
			<point x="344" y="572" type="curve" smooth="yes"/>
			<point x="344" y="317"/>
			<point x="262" y="76"/>
			<point x="56" y="-255" type="curve"/>
			<point x="86" y="-275" type="line"/>
			<point x="320" y="68"/>
			<point x="418" y="268"/>
			<point x="418" y="572" type="curve" smooth="yes"/>
			<point x="418" y="876"/>
			<point x="320" y="1076"/>
			<point x="86" y="1419" type="curve"/>
			<point x="56" y="1399" type="line"/>
			<point x="262" y="1068"/>
			<point x="344" y="827"/>
		</contour>
	</outline>
</glyph>
<glyph name="asterisk" format="2">
	<unicode hex="002A"/>
	<advance width="753"/>
	<outline>
		<contour>
			<point x="507" y="796" type="line"/>
			<point x="428" y="1030" type="line"/>
			<point x="674" y="1057" type="line"/>
			<point x="671" y="1090" type="line"/>
			<point x="424" y="1088" type="line"/>
			<point x="474" y="1330" type="line"/>
			<point x="442" y="1339" type="line"/>
			<point x="367" y="1103" type="line"/>
			<point x="153" y="1225" type="line"/>
			<point x="135" y="1197" type="line"/>
			<point x="336" y="1054" type="line"/>
			<point x="153" y="888" type="line"/>
			<point x="174" y="862" type="line"/>
			<point x="374" y="1008" type="line"/>
			<point x="475" y="783" type="line"/>
		</contour>
	</outline>
</glyph>
<glyph name="plus" format="2">
	<unicode hex="002B"/>
	<advance width="1000"/>
	<outline>
		<contour>
			<point x="478" y="793" type="line"/>
			<point x="478" y="79" type="line"/>
			<point x="522" y="79" type="line"/>
			<point x="522" y="793" type="line"/>
		</contour>
		<contour>
			<point x="857" y="454" type="line"/>
			<point x="143" y="454" type="line"/>
			<point x="143" y="410" type="line"/>
			<point x="857" y="410" type="line"/>
		</contour>
	</outline>
</glyph>
<glyph name="comma" format="2">
  <advance width="333.0"/>
  <unicode hex="002C"/>
  <outline>
    <contour>
      <point x="33.0" y="-265.0" type="curve"/>
      <point x="54.0" y="-291.0" type="line"/>
      <point x="179.0" y="-198.0"/>
      <point x="248.0" y="-96.0"/>
      <point x="248.0" y="20.0" type="curve" smooth="yes"/>
      <point x="248.0" y="100.0"/>
      <point x="207.0" y="145.0"/>
      <point x="158.0" y="145.0" type="curve" smooth="yes"/>
      <point x="115.0" y="145.0"/>
      <point x="87.0" y="122.0"/>
      <point x="88.0" y="80.0" type="curve" smooth="yes"/>
      <point x="89.0" y="45.0"/>
      <point x="179.0" y="41.0"/>
      <point x="179.0" y="-51.0" type="curve" smooth="yes"/>
      <point x="179.0" y="-117.0"/>
      <point x="140.0" y="-185.0"/>
    </contour>
  </outline>
</glyph>
<glyph name="hyphen" format="2">
	<unicode hex="002D"/>
	<advance width="608"/>
	<outline>
		<contour>
			<point x="124" y="472" type="line"/>
			<point x="124" y="400" type="line"/>
			<point x="484" y="400" type="line"/>
			<point x="484" y="472" type="line"/>
		</contour>
	</outline>
</glyph>
<glyph name="period" format="2">
	<unicode hex="002E"/>
	<advance width="376"/>
	<outline>
		<contour>
			<point x="188" y="145" type="curve" smooth="yes"/>
			<point x="143" y="145"/>
			<point x="109" y="109"/>
			<point x="109" y="65" type="curve" smooth="yes"/>
			<point x="109" y="21"/>
			<point x="143" y="-15"/>
			<point x="188" y="-15" type="curve" smooth="yes"/>
			<point x="233" y="-15"/>
			<point x="267" y="21"/>
			<point x="267" y="65" type="curve" smooth="yes"/>
			<point x="267" y="109"/>
			<point x="233" y="145"/>
		</contour>
	</outline>
</glyph>
<glyph name="zero" format="2">
	<unicode hex="0030"/>
	<advance width="1100"/>
	<outline>
		<contour>
			<point x="553" y="20" type="curve" smooth="yes"/>
			<point x="312" y="20"/>
			<point x="167" y="271"/>
			<point x="167" y="700" type="curve" smooth="yes"/>
			<point x="167" y="1090"/>
			<point x="309" y="1320"/>
			<point x="547" y="1320" type="curve" smooth="yes"/>
			<point x="786" y="1320"/>
			<point x="933" y="1068"/>
			<point x="933" y="640" type="curve" smooth="yes"/>
			<point x="933" y="249"/>
			<point x="790" y="20"/>
		</contour>
		<contour>
			<point x="550" y="1360" type="curve" smooth="yes"/>
			<point x="274" y="1360"/>
			<point x="86" y="1080"/>
			<point x="86" y="668" type="curve" smooth="yes"/>
			<point x="86" y="257"/>
			<point x="274" y="-20"/>
			<point x="550" y="-20" type="curve" smooth="yes"/>
			<point x="829" y="-20"/>
			<point x="1014" y="260"/>
			<point x="1014" y="672" type="curve" smooth="yes"/>
			<point x="1014" y="1083"/>
			<point x="829" y="1360"/>
		</contour>
	</outline>
</glyph>
<glyph name="one" format="2">
	<unicode hex="0031"/>
	<advance width="1100"/>
	<outline>
		<contour>
			<point x="591" y="51" type="line"/>
			<point x="309" y="22" type="line"/>
			<point x="309" y="0" type="line"/>
			<point x="927" y="0" type="line"/>
			<point x="927" y="22" type="line"/>
			<point x="665" y="51" type="line"/>
			<point x="665" y="1360" type="line"/>
			<point x="649" y="1360" type="line"/>
			<point x="219" y="1145" type="line"/>
			<point x="227" y="1123" type="line"/>
			<point x="616" y="1259" type="line"/>
			<point x="591" y="1279" type="line"/>
		</contour>
	</outline>
</glyph>
<glyph name="colon" format="2">
	<unicode hex="003A"/>
	<advance width="406"/>
	<outline>
		<contour>
			<point x="203" y="145" type="curve" smooth="yes"/>
			<point x="158" y="145"/>
			<point x="124" y="109"/>
			<point x="124" y="65" type="curve" smooth="yes"/>
			<point x="124" y="21"/>
			<point x="158" y="-15"/>
			<point x="203" y="-15" type="curve" smooth="yes"/>
			<point x="248" y="-15"/>
			<point x="282" y="21"/>
			<point x="282" y="65" type="curve" smooth="yes"/>
			<point x="282" y="109"/>
			<point x="248" y="145"/>
		</contour>
		<contour>
			<point x="203" y="863" type="curve" smooth="yes"/>
			<point x="158" y="863"/>
			<point x="124" y="827"/>
			<point x="124" y="783" type="curve" smooth="yes"/>
			<point x="124" y="739"/>
			<point x="158" y="703"/>
			<point x="203" y="703" type="curve" smooth="yes"/>
			<point x="248" y="703"/>
			<point x="282" y="739"/>
			<point x="282" y="783" type="curve" smooth="yes"/>
			<point x="282" y="827"/>
			<point x="248" y="863"/>
		</contour>
	</outline>
</glyph>
<glyph name="semicolon" format="2">
	<unicode hex="003B"/>
	<advance width="465"/>
	<outline>
		<contour>
			<point x="109" y="-265" type="curve"/>
			<point x="130" y="-291" type="line"/>
			<point x="255" y="-198"/>
			<point x="324" y="-96"/>
			<point x="324" y="20" type="curve" smooth="yes"/>
			<point x="324" y="100"/>
			<point x="283" y="145"/>
			<point x="234" y="145" type="curve" smooth="yes"/>
			<point x="191" y="145"/>
			<point x="163" y="122"/>
			<point x="164" y="80" type="curve" smooth="yes"/>
			<point x="165" y="45"/>
			<point x="255" y="41"/>
			<point x="255" y="-51" type="curve" smooth="yes"/>
			<point x="255" y="-117"/>
			<point x="216" y="-185"/>
		</contour>
		<contour>
			<point x="238" y="863" type="curve" smooth="yes"/>
			<point x="193" y="863"/>
			<point x="159" y="827"/>
			<point x="159" y="783" type="curve" smooth="yes"/>
			<point x="159" y="739"/>
			<point x="193" y="703"/>
			<point x="238" y="703" type="curve" smooth="yes"/>
			<point x="283" y="703"/>
			<point x="317" y="739"/>
			<point x="317" y="783" type="curve" smooth="yes"/>
			<point x="317" y="827"/>
			<point x="283" y="863"/>
		</contour>
	</outline>
</glyph>
<glyph name="less" format="2">
	<unicode hex="003C"/>
	<advance width="1000"/>
	<outline>
		<contour>
			<point x="94" y="426" type="line"/>
			<point x="945" y="841" type="line"/>
			<point x="945" y="892" type="line"/>
			<point x="45" y="453" type="line"/>
			<point x="45" y="417" type="line"/>
			<point x="945" y="-20" type="line"/>
			<point x="945" y="33" type="line"/>
			<point x="94" y="445" type="line"/>
		</contour>
	</outline>
</glyph>
<glyph name="greater" format="2">
	<unicode hex="003E"/>
	<advance width="1000"/>
	<outline>
		<contour>
			<point x="906" y="427" type="line"/>
			<point x="906" y="446" type="line"/>
			<point x="55" y="31" type="line"/>
			<point x="55" y="-20" type="line"/>
			<point x="955" y="419" type="line"/>
			<point x="955" y="455" type="line"/>
			<point x="55" y="892" type="line"/>
			<point x="55" y="839" type="line"/>
		</contour>
	</outline>
</glyph>
<glyph name="question" format="2">
	<unicode hex="003F"/>
	<advance width="851"/>
	<outline>
		<contour>
			<point x="271" y="1360" type="curve" smooth="yes"/>
			<point x="114" y="1360"/>
			<point x="58" y="1330"/>
			<point x="58" y="1280" type="curve" smooth="yes"/>
			<point x="58" y="1253"/>
			<point x="81.5294117647" y="1225"/>
			<point x="122" y="1225" type="curve" smooth="yes"/>
			<point x="184.1509433962" y="1225"/>
			<point x="201" y="1302"/>
			<point x="338" y="1302" type="curve" smooth="yes"/>
			<point x="554" y="1302"/>
			<point x="706" y="1178"/>
			<point x="706" y="973" type="curve" smooth="yes"/>
			<point x="706" y="815"/>
			<point x="600" y="702"/>
			<point x="302" y="722" type="curve"/>
			<point x="341" y="396" type="line"/>
			<point x="369" y="396" type="line"/>
			<point x="369" y="703" type="line"/>
			<point x="335" y="646" type="line"/>
			<point x="660" y="634"/>
			<point x="762" y="770"/>
			<point x="762" y="951" type="curve" smooth="yes"/>
			<point x="762" y="1178"/>
			<point x="551" y="1360"/>
		</contour>
		<contour>
			<point x="356" y="145" type="curve" smooth="yes"/>
			<point x="311" y="145"/>
			<point x="277" y="109"/>
			<point x="277" y="65" type="curve" smooth="yes"/>
			<point x="277" y="21"/>
			<point x="311" y="-14"/>
			<point x="356" y="-14" type="curve" smooth="yes"/>
			<point x="402" y="-14"/>
			<point x="436" y="21"/>
			<point x="436" y="65" type="curve" smooth="yes"/>
			<point x="436" y="109"/>
			<point x="402" y="145"/>
		</contour>
	</outline>
</glyph>
<glyph name="at" format="2">
  <advance width="1799.0"/>
  <unicode hex="0040"/>
  <outline>
    <contour>
      <point x="1240.0" y="205.0" type="curve" smooth="yes"/>
      <point x="1504.0" y="205.0"/>
      <point x="1707.0" y="471.0"/>
      <point x="1707.0" y="787.0" type="curve" smooth="yes"/>
      <point x="1707.0" y="1161.0"/>
      <point x="1427.0" y="1419.0"/>
      <point x="987.0" y="1419.0" type="curve" smooth="yes"/>
      <point x="478.0" y="1419.0"/>
      <point x="84.0" y="1042.0"/>
      <point x="84.0" y="498.0" type="curve" smooth="yes"/>
      <point x="84.0" y="7.0"/>
      <point x="442.0" y="-255.0"/>
      <point x="901.0" y="-255.0" type="curve" smooth="yes"/>
      <point x="1121.0" y="-255.0"/>
      <point x="1339.0" y="-182.0"/>
      <point x="1514.0" y="-59.0" type="curve"/>
      <point x="1495.0" y="-28.0" type="line"/>
      <point x="1320.0" y="-147.0"/>
      <point x="1104.0" y="-210.0"/>
      <point x="924.0" y="-210.0" type="curve" smooth="yes"/>
      <point x="470.0" y="-210.0"/>
      <point x="154.0" y="43.43250688705234"/>
      <point x="154.0" y="504.0" type="curve" smooth="yes"/>
      <point x="154.0" y="1046.9062146892657"/>
      <point x="496.0" y="1376.0"/>
      <point x="986.0" y="1376.0" type="curve" smooth="yes"/>
      <point x="1378.0" y="1376.0"/>
      <point x="1654.0" y="1119.3807266982624"/>
      <point x="1654.0" y="756.0" type="curve" smooth="yes"/>
      <point x="1654.0" y="439.94716981132075"/>
      <point x="1452.0" y="239.0"/>
      <point x="1249.0" y="239.0" type="curve" smooth="yes"/>
      <point x="1160.0" y="239.0"/>
      <point x="1099.0" y="283.0"/>
      <point x="1099.0" y="388.0" type="curve" smooth="yes"/>
      <point x="1099.0" y="437.0"/>
      <point x="1110.0" y="500.0"/>
      <point x="1136.0" y="576.0" type="curve" smooth="yes"/>
      <point x="1279.0" y="999.0" type="line"/>
      <point x="1208.0" y="999.0" type="line"/>
      <point x="1182.0" y="924.0" type="line"/>
      <point x="1138.0" y="792.0" type="line" smooth="yes"/>
      <point x="1009.0" y="405.0"/>
      <point x="789.0" y="251.0"/>
      <point x="697.0" y="251.0" type="curve" smooth="yes"/>
      <point x="622.0" y="251.0"/>
      <point x="590.0" y="301.0"/>
      <point x="590.0" y="392.0" type="curve" smooth="yes"/>
      <point x="590.0" y="607.0"/>
      <point x="804.0" y="983.0"/>
      <point x="1022.0" y="983.0" type="curve" smooth="yes"/>
      <point x="1080.0" y="983.0"/>
      <point x="1132.0" y="966.0"/>
      <point x="1179.0" y="901.0" type="curve"/>
      <point x="1193.0" y="919.0" type="line"/>
      <point x="1149.0" y="986.0"/>
      <point x="1097.0" y="1016.0"/>
      <point x="1022.0" y="1016.0" type="curve" smooth="yes"/>
      <point x="783.0" y="1016.0"/>
      <point x="512.0" y="651.0"/>
      <point x="512.0" y="390.0" type="curve" smooth="yes"/>
      <point x="512.0" y="280.0"/>
      <point x="552.0" y="200.0"/>
      <point x="670.0" y="200.0" type="curve" smooth="yes"/>
      <point x="765.0" y="200.0"/>
      <point x="896.0" y="271.0"/>
      <point x="1072.0" y="563.0" type="curve"/>
      <point x="1064.0" y="563.0" type="line"/>
      <point x="1046.0" y="493.0" type="line" smooth="yes"/>
      <point x="1038.0" y="461.0"/>
      <point x="1034.0" y="429.0"/>
      <point x="1034.0" y="401.0" type="curve" smooth="yes"/>
      <point x="1034.0" y="282.0"/>
      <point x="1106.0" y="205.0"/>
    </contour>
  </outline>
</glyph>
<glyph name="A" format="2">
	<unicode hex="0041"/>
	<advance width="1357"/>
	<outline>
		<contour>
			<point x="377" y="553" type="line"/>
			<point x="948" y="553" type="line"/>
			<point x="948" y="599" type="line"/>
			<point x="377" y="599" type="line"/>
		</contour>
		<contour>
			<point x="1195" y="52" type="line"/>
			<point x="684" y="1360" type="line"/>
			<point x="663" y="1360" type="line"/>
			<point x="165" y="52" type="line"/>
			<point x="-8" y="22" type="line"/>
			<point x="-8" y="0" type="line"/>
			<point x="384" y="0" type="line"/>
			<point x="384" y="22" type="line"/>
			<point x="212" y="52" type="line"/>
			<point x="674" y="1265" type="line"/>
			<point x="646" y="1265" type="line"/>
			<point x="1115" y="52" type="line"/>
			<point x="943" y="22" type="line"/>
			<point x="943" y="0" type="line"/>
			<point x="1367" y="0" type="line"/>
			<point x="1367" y="22" type="line"/>
		</contour>
	</outline>
	<anchor name="UCtop" x="663" y="1340"/>
	<anchor name="bottom" x="653" y="0"/>
	<anchor name="right" x="1284" y="0"/>
</glyph>
<glyph name="B" format="2">
	<unicode hex="0042"/>
	<advance width="1139"/>
	<outline>
		<contour>
			<point x="294" y="1294" type="line"/>
			<point x="489" y="1294" type="line" smooth="yes"/>
			<point x="783" y="1294"/>
			<point x="883" y="1188"/>
			<point x="883" y="1014" type="curve" smooth="yes"/>
			<point x="883" y="842"/>
			<point x="783" y="736"/>
			<point x="489" y="736" type="curve" smooth="yes"/>
			<point x="294" y="736" type="line"/>
			<point x="291" y="690" type="line"/>
			<point x="520" y="690" type="line" smooth="yes"/>
			<point x="854" y="690"/>
			<point x="968" y="567"/>
			<point x="968" y="367" type="curve" smooth="yes"/>
			<point x="968" y="168"/>
			<point x="854" y="46"/>
			<point x="520" y="46" type="curve" smooth="yes"/>
			<point x="291" y="46" type="line"/>
			<point x="291" y="0" type="line"/>
			<point x="565" y="0" type="line" smooth="yes"/>
			<point x="916" y="0"/>
			<point x="1046" y="160"/>
			<point x="1046" y="366" type="curve" smooth="yes"/>
			<point x="1046" y="560"/>
			<point x="937" y="691"/>
			<point x="670" y="726" type="curve"/>
			<point x="671" y="716" type="line"/>
			<point x="884" y="754"/>
			<point x="958" y="881"/>
			<point x="958" y="1024" type="curve" smooth="yes"/>
			<point x="958" y="1202"/>
			<point x="843" y="1340"/>
			<point x="533" y="1340" type="curve" smooth="yes"/>
			<point x="291" y="1340" type="line"/>
		</contour>
		<contour>
			<point x="71" y="0" type="line"/>
			<point x="319" y="0" type="line"/>
			<point x="319" y="1340" type="line"/>
			<point x="71" y="1340" type="line"/>
			<point x="71" y="1318" type="line"/>
			<point x="243" y="1288" type="line"/>
			<point x="243" y="52" type="line"/>
			<point x="71" y="22" type="line"/>
		</contour>
	</outline>
	<anchor name="UCtop" x="579" y="1340"/>
	<anchor name="bottom" x="609" y="0"/>
</glyph>
<glyph name="C" format="2">
	<unicode hex="0043"/>
	<advance width="1334"/>
	<outline>
		<contour>
			<point x="821" y="19" type="curve" smooth="yes"/>
			<point x="472" y="19"/>
			<point x="182" y="258.0625"/>
			<point x="182" y="694" type="curve" smooth="yes"/>
			<point x="182" y="1097.6038961039"/>
			<point x="422" y="1314"/>
			<point x="771" y="1314" type="curve" smooth="yes"/>
			<point x="905" y="1314"/>
			<point x="1014" y="1280"/>
			<point x="1164" y="1194" type="curve"/>
			<point x="1079" y="1278" type="line"/>
			<point x="1218" y="954" type="line"/>
			<point x="1243" y="959" type="line"/>
			<point x="1170" y="1386" type="line"/>
			<point x="1162" y="1386" type="line"/>
			<point x="1104" y="1309" type="line"/>
			<point x="1161" y="1297" type="line"/>
			<point x="1038" y="1339"/>
			<point x="937" y="1360"/>
			<point x="826" y="1360" type="curve" smooth="yes"/>
			<point x="381" y="1360"/>
			<point x="100" y="1090.4373177843"/>
			<point x="100" y="670" type="curve" smooth="yes"/>
			<point x="100" y="226.7883211679"/>
			<point x="415" y="-20"/>
			<point x="824" y="-20" type="curve" smooth="yes"/>
			<point x="963" y="-20"/>
			<point x="1109" y="9"/>
			<point x="1207" y="52" type="curve"/>
			<point x="1251" y="324" type="line"/>
			<point x="1225" y="324" type="line"/>
			<point x="1099" y="39" type="line"/>
			<point x="1163" y="105" type="line"/>
			<point x="1067" y="48"/>
			<point x="938" y="19"/>
		</contour>
	</outline>
	<anchor name="UCtop" x="753" y="1340"/>
	<anchor name="bottom" x="773" y="0"/>
	<anchor name="right" x="1164" y="0"/>
</glyph>
<glyph name="D" format="2">
	<unicode hex="0044"/>
	<advance width="1417"/>
	<outline>
		<contour>
			<point x="1233" y="686" type="curve" smooth="yes"/>
			<point x="1233" y="231"/>
			<point x="957" y="46"/>
			<point x="521" y="46" type="curve" smooth="yes"/>
			<point x="246" y="46" type="line"/>
			<point x="264" y="0" type="line"/>
			<point x="551" y="0" type="line" smooth="yes"/>
			<point x="986" y="0"/>
			<point x="1315" y="232"/>
			<point x="1315" y="688" type="curve" smooth="yes"/>
			<point x="1315" y="1105"/>
			<point x="1048" y="1340"/>
			<point x="543" y="1340" type="curve" smooth="yes"/>
			<point x="264" y="1340" type="line"/>
			<point x="246" y="1294" type="line"/>
			<point x="491" y="1294" type="line" smooth="yes"/>
			<point x="961" y="1294"/>
			<point x="1233" y="1090"/>
		</contour>
		<contour>
			<point x="71" y="0" type="line"/>
			<point x="319" y="0" type="line"/>
			<point x="319" y="1340" type="line"/>
			<point x="71" y="1340" type="line"/>
			<point x="71" y="1318" type="line"/>
			<point x="243" y="1288" type="line"/>
			<point x="243" y="52" type="line"/>
			<point x="71" y="22" type="line"/>
		</contour>
	</outline>
	<anchor name="UCtop" x="770" y="1340"/>
	<anchor name="bottom" x="770" y="0"/>
</glyph>
<glyph name="E" format="2">
	<unicode hex="0045"/>
	<advance width="1181"/>
	<outline>
		<contour>
			<point x="816" y="969" type="line"/>
			<point x="791" y="969" type="line"/>
			<point x="739" y="729" type="line"/>
			<point x="297" y="721" type="line"/>
			<point x="297" y="681" type="line"/>
			<point x="739" y="676" type="line"/>
			<point x="791" y="434" type="line"/>
			<point x="816" y="434" type="line"/>
			<point x="802" y="701" type="line"/>
		</contour>
		<contour>
			<point x="1068" y="1006" type="line"/>
			<point x="1018" y="1377" type="line"/>
			<point x="1008" y="1377" type="line"/>
			<point x="933" y="1340" type="line"/>
			<point x="245" y="1340" type="line"/>
			<point x="245" y="1294" type="line"/>
			<point x="979" y="1294" type="line"/>
			<point x="921" y="1313" type="line"/>
			<point x="1045" y="1002" type="line"/>
		</contour>
		<contour>
			<point x="945" y="17" type="line"/>
			<point x="999" y="46" type="line"/>
			<point x="245" y="46" type="line"/>
			<point x="245" y="0" type="line"/>
			<point x="960" y="0" type="line"/>
			<point x="1034" y="-46" type="line"/>
			<point x="1042" y="-46" type="line"/>
			<point x="1119" y="338" type="line"/>
			<point x="1097" y="345" type="line"/>
		</contour>
		<contour>
			<point x="71" y="0" type="line"/>
			<point x="319" y="0" type="line"/>
			<point x="319" y="1340" type="line"/>
			<point x="71" y="1340" type="line"/>
			<point x="71" y="1318" type="line"/>
			<point x="243" y="1288" type="line"/>
			<point x="243" y="52" type="line"/>
			<point x="71" y="22" type="line"/>
		</contour>
	</outline>
	<anchor name="UCtop" x="612" y="1340"/>
	<anchor name="right" x="1037" y="0"/>
	<anchor name="bottom" x="631" y="0"/>
</glyph>
<glyph name="F" format="2">
	<unicode hex="0046"/>
	<advance width="1061"/>
	<outline>
		<contour>
			<point x="806" y="939" type="line"/>
			<point x="781" y="939" type="line"/>
			<point x="729" y="699" type="line"/>
			<point x="297" y="691" type="line"/>
			<point x="297" y="651" type="line"/>
			<point x="729" y="646" type="line"/>
			<point x="781" y="404" type="line"/>
			<point x="806" y="404" type="line"/>
			<point x="792" y="671" type="line"/>
		</contour>
		<contour>
			<point x="956" y="1377" type="line"/>
			<point x="881" y="1340" type="line"/>
			<point x="245" y="1340" type="line"/>
			<point x="245" y="1294" type="line"/>
			<point x="927" y="1294" type="line"/>
			<point x="869" y="1313" type="line"/>
			<point x="993" y="1002" type="line"/>
			<point x="1016" y="1006" type="line"/>
			<point x="966" y="1377" type="line"/>
		</contour>
		<contour>
			<point x="319" y="1340" type="line"/>
			<point x="71" y="1340" type="line"/>
			<point x="71" y="1318" type="line"/>
			<point x="243" y="1288" type="line"/>
			<point x="243" y="52" type="line"/>
			<point x="71" y="22" type="line"/>
			<point x="71" y="0" type="line"/>
			<point x="491" y="0" type="line"/>
			<point x="491" y="22" type="line"/>
			<point x="319" y="52" type="line"/>
		</contour>
	</outline>
	<anchor name="UCtop" x="570" y="1340"/>
	<anchor name="bottom" x="281" y="0"/>
</glyph>
<glyph name="G" format="2">
	<unicode hex="0047"/>
	<advance width="1403"/>
	<outline>
		<contour>
			<point x="1212" y="118" type="line"/>
			<point x="1212" y="547" type="line"/>
			<point x="1341" y="577" type="line"/>
			<point x="1341" y="599" type="line"/>
			<point x="921" y="599" type="line"/>
			<point x="921" y="577" type="line"/>
			<point x="1136" y="547" type="line"/>
			<point x="1136" y="71" type="line"/>
			<point x="1159" y="118" type="line"/>
			<point x="1102" y="58"/>
			<point x="944" y="17"/>
			<point x="821" y="17" type="curve" smooth="yes"/>
			<point x="467" y="18"/>
			<point x="184" y="257"/>
			<point x="184" y="705" type="curve" smooth="yes"/>
			<point x="184" y="1104"/>
			<point x="404" y="1314"/>
			<point x="761" y="1314" type="curve" smooth="yes"/>
			<point x="895" y="1314"/>
			<point x="1004" y="1280"/>
			<point x="1154" y="1194" type="curve"/>
			<point x="1069" y="1278" type="line"/>
			<point x="1208" y="954" type="line"/>
			<point x="1233" y="959" type="line"/>
			<point x="1160" y="1386" type="line"/>
			<point x="1152" y="1386" type="line"/>
			<point x="1094" y="1309" type="line"/>
			<point x="1151" y="1297" type="line"/>
			<point x="1028" y="1339"/>
			<point x="927" y="1360"/>
			<point x="816" y="1360" type="curve" smooth="yes"/>
			<point x="375" y="1360"/>
			<point x="100" y="1091"/>
			<point x="100" y="670" type="curve" smooth="yes"/>
			<point x="100" y="227"/>
			<point x="431" y="-20"/>
			<point x="814" y="-20" type="curve" smooth="yes"/>
			<point x="984" y="-20"/>
			<point x="1142" y="20"/>
			<point x="1264" y="80" type="curve"/>
			<point x="1264" y="84" type="line"/>
		</contour>
	</outline>
	<anchor name="UCtop" x="761" y="1340"/>
	<anchor name="bottom" x="761" y="0"/>
</glyph>
<glyph name="H" format="2">
	<unicode hex="0048"/>
	<advance width="1462"/>
	<outline>
		<contour>
			<point x="319" y="52" type="line"/>
			<point x="319" y="1288" type="line"/>
			<point x="491" y="1318" type="line"/>
			<point x="491" y="1340" type="line"/>
			<point x="71" y="1340" type="line"/>
			<point x="71" y="1318" type="line"/>
			<point x="243" y="1288" type="line"/>
			<point x="243" y="52" type="line"/>
			<point x="71" y="22" type="line"/>
			<point x="71" y="0" type="line"/>
			<point x="491" y="0" type="line"/>
			<point x="491" y="22" type="line"/>
		</contour>
		<contour>
			<point x="1219" y="52" type="line"/>
			<point x="1219" y="1288" type="line"/>
			<point x="1391" y="1318" type="line"/>
			<point x="1391" y="1340" type="line"/>
			<point x="971" y="1340" type="line"/>
			<point x="971" y="1318" type="line"/>
			<point x="1143" y="1288" type="line"/>
			<point x="1143" y="52" type="line"/>
			<point x="971" y="22" type="line"/>
			<point x="971" y="0" type="line"/>
			<point x="1391" y="0" type="line"/>
			<point x="1391" y="22" type="line"/>
		</contour>
		<contour>
			<point x="259" y="666" type="line"/>
			<point x="1202" y="666" type="line"/>
			<point x="1202" y="712" type="line"/>
			<point x="259" y="712" type="line"/>
		</contour>
	</outline>
	<anchor name="UCtop" x="731" y="1340"/>
	<anchor name="bottom" x="731" y="0"/>
</glyph>
<glyph name="I" format="2">
	<unicode hex="0049"/>
	<advance width="562"/>
	<outline>
		<contour>
			<point x="491" y="22" type="line"/>
			<point x="319" y="52" type="line"/>
			<point x="319" y="1288" type="line"/>
			<point x="491" y="1318" type="line"/>
			<point x="491" y="1340" type="line"/>
			<point x="71" y="1340" type="line"/>
			<point x="71" y="1318" type="line"/>
			<point x="243" y="1288" type="line"/>
			<point x="243" y="52" type="line"/>
			<point x="71" y="22" type="line"/>
			<point x="71" y="0" type="line"/>
			<point x="491" y="0" type="line"/>
		</contour>
	</outline>
	<anchor name="UCtop" x="281" y="1340"/>
	<anchor name="right" x="424" y="0"/>
	<anchor name="bottom" x="281" y="0"/>
</glyph>
<glyph name="J" format="2">
	<unicode hex="004A"/>
	<advance width="644"/>
	<outline>
		<contour>
			<point x="419" y="391" type="curve" smooth="yes"/>
			<point x="419" y="1288" type="line"/>
			<point x="591" y="1318" type="line"/>
			<point x="591" y="1340" type="line"/>
			<point x="171" y="1340" type="line"/>
			<point x="171" y="1318" type="line"/>
			<point x="343" y="1288" type="line"/>
			<point x="343" y="308" type="line" smooth="yes"/>
			<point x="343" y="123"/>
			<point x="274" y="51"/>
			<point x="189" y="51" type="curve" smooth="yes"/>
			<point x="130" y="51"/>
			<point x="86" y="91"/>
			<point x="69" y="91" type="curve" smooth="yes"/>
			<point x="41" y="91"/>
			<point x="23" y="70"/>
			<point x="23" y="42" type="curve" smooth="yes"/>
			<point x="23" y="7"/>
			<point x="50" y="-15"/>
			<point x="94" y="-15" type="curve" smooth="yes"/>
			<point x="280" y="-15"/>
			<point x="419" y="121"/>
		</contour>
	</outline>
	<anchor name="UCtop" x="381" y="1340"/>
	<anchor name="bottom" x="287" y="0"/>
</glyph>
<glyph name="K" format="2">
	<unicode hex="004B"/>
	<advance width="1321"/>
	<outline>
		<contour>
			<point x="1172" y="52" type="line"/>
			<point x="483" y="739" type="line"/>
			<point x="480" y="691" type="line"/>
			<point x="1059" y="1288" type="line"/>
			<point x="1231" y="1318" type="line"/>
			<point x="1231" y="1340" type="line"/>
			<point x="826" y="1340" type="line"/>
			<point x="826" y="1318" type="line"/>
			<point x="998" y="1288" type="line"/>
			<point x="455" y="723" type="line"/>
			<point x="297" y="723" type="line"/>
			<point x="297" y="677" type="line"/>
			<point x="448" y="677" type="line"/>
			<point x="1071" y="52" type="line"/>
			<point x="899" y="22" type="line"/>
			<point x="899" y="0" type="line"/>
			<point x="1331" y="0" type="line"/>
			<point x="1331" y="22" type="line"/>
		</contour>
		<contour>
			<point x="319" y="1288" type="line"/>
			<point x="491" y="1318" type="line"/>
			<point x="491" y="1340" type="line"/>
			<point x="71" y="1340" type="line"/>
			<point x="71" y="1318" type="line"/>
			<point x="243" y="1288" type="line"/>
			<point x="243" y="52" type="line"/>
			<point x="71" y="22" type="line"/>
			<point x="71" y="0" type="line"/>
			<point x="491" y="0" type="line"/>
			<point x="491" y="22" type="line"/>
			<point x="319" y="52" type="line"/>
		</contour>
	</outline>
	<anchor name="UCtop" x="628" y="1340"/>
	<anchor name="bottom" x="671" y="0"/>
</glyph>
<glyph name="L" format="2">
	<unicode hex="004C"/>
	<advance width="1107"/>
	<outline>
		<contour>
			<point x="998" y="-46" type="line"/>
			<point x="1075" y="338" type="line"/>
			<point x="1053" y="345" type="line"/>
			<point x="901" y="17" type="line"/>
			<point x="955" y="46" type="line"/>
			<point x="285" y="46" type="line"/>
			<point x="285" y="0" type="line"/>
			<point x="916" y="0" type="line"/>
			<point x="990" y="-46" type="line"/>
		</contour>
		<contour>
			<point x="319" y="1288" type="line"/>
			<point x="491" y="1318" type="line"/>
			<point x="491" y="1340" type="line"/>
			<point x="71" y="1340" type="line"/>
			<point x="71" y="1318" type="line"/>
			<point x="243" y="1288" type="line"/>
			<point x="243" y="52" type="line"/>
			<point x="71" y="22" type="line"/>
			<point x="71" y="0" type="line"/>
			<point x="319" y="0" type="line"/>
		</contour>
	</outline>
	<anchor name="UCtop" x="281" y="1340"/>
	<anchor name="right" x="515" y="1340"/>
	<anchor name="bottom" x="593" y="0"/>
	<anchor name="mid" x="846" y="702"/>
</glyph>
<glyph name="M" format="2">
	<unicode hex="004D"/>
	<advance width="1813"/>
	<outline>
		<contour>
			<point x="1601" y="52" type="line"/>
			<point x="1515" y="1288" type="line"/>
			<point x="1707" y="1318" type="line"/>
			<point x="1707" y="1340" type="line"/>
			<point x="1441" y="1340" type="line"/>
			<point x="884" y="67" type="line"/>
			<point x="907" y="66" type="line"/>
			<point x="381" y="1340" type="line"/>
			<point x="118" y="1340" type="line"/>
			<point x="118" y="1318" type="line"/>
			<point x="300" y="1281" type="line"/>
			<point x="210" y="52" type="line"/>
			<point x="38" y="22" type="line"/>
			<point x="38" y="0" type="line"/>
			<point x="428" y="0" type="line"/>
			<point x="428" y="22" type="line"/>
			<point x="256" y="52" type="line"/>
			<point x="344" y="1275" type="line"/>
			<point x="331" y="1273" type="line"/>
			<point x="865" y="-20" type="line"/>
			<point x="892" y="-20" type="line"/>
			<point x="1459" y="1274" type="line"/>
			<point x="1445" y="1277" type="line"/>
			<point x="1527" y="52" type="line"/>
			<point x="1355" y="22" type="line"/>
			<point x="1355" y="0" type="line"/>
			<point x="1773" y="0" type="line"/>
			<point x="1773" y="22" type="line"/>
		</contour>
	</outline>
	<anchor name="UCtop" x="885" y="1340"/>
	<anchor name="bottom" x="885" y="0"/>
</glyph>
<glyph name="N" format="2">
	<unicode hex="004E"/>
	<advance width="1467"/>
	<outline>
		<contour>
			<point x="248" y="52" type="line"/>
			<point x="76" y="22" type="line"/>
			<point x="76" y="0" type="line"/>
			<point x="468" y="0" type="line"/>
			<point x="468" y="22" type="line"/>
			<point x="296" y="52" type="line"/>
			<point x="296" y="1300" type="line"/>
			<point x="267" y="1286" type="line"/>
			<point x="1203" y="-20" type="line"/>
			<point x="1234" y="-20" type="line"/>
			<point x="1234" y="1288" type="line"/>
			<point x="1406" y="1318" type="line"/>
			<point x="1406" y="1340" type="line"/>
			<point x="1014" y="1340" type="line"/>
			<point x="1014" y="1318" type="line"/>
			<point x="1186" y="1288" type="line"/>
			<point x="1186" y="40" type="line"/>
			<point x="1230" y="71" type="line"/>
			<point x="324" y="1340" type="line"/>
			<point x="62" y="1340" type="line"/>
			<point x="62" y="1318" type="line"/>
			<point x="248" y="1281" type="line"/>
		</contour>
	</outline>
	<anchor name="UCtop" x="745" y="1340"/>
	<anchor name="bottom" x="765" y="0"/>
</glyph>
<glyph name="O" format="2">
	<unicode hex="004F"/>
	<advance width="1482"/>
	<outline>
		<contour>
			<point x="730" y="1360" type="curve" smooth="yes"/>
			<point x="366" y="1360"/>
			<point x="100" y="1069"/>
			<point x="100" y="669" type="curve" smooth="yes"/>
			<point x="100" y="271"/>
			<point x="380" y="-20"/>
			<point x="752" y="-20" type="curve" smooth="yes"/>
			<point x="1116" y="-20"/>
			<point x="1382" y="271"/>
			<point x="1382" y="671" type="curve" smooth="yes"/>
			<point x="1382" y="1069"/>
			<point x="1102" y="1360"/>
		</contour>
		<contour>
			<point x="749" y="23" type="curve" smooth="yes"/>
			<point x="419" y="23"/>
			<point x="182" y="273"/>
			<point x="182" y="681" type="curve" smooth="yes"/>
			<point x="182" y="1050"/>
			<point x="384" y="1317"/>
			<point x="733" y="1317" type="curve" smooth="yes"/>
			<point x="1063" y="1317"/>
			<point x="1300" y="1067"/>
			<point x="1300" y="659" type="curve" smooth="yes"/>
			<point x="1300" y="290"/>
			<point x="1098" y="23"/>
		</contour>
	</outline>
	<anchor name="UCtop" x="741" y="1340"/>
	<anchor name="bottom" x="741" y="0"/>
	<anchor name="right" x="911" y="0"/>
	<anchor name="horn" x="1052" y="1340"/>
</glyph>
<glyph name="P" format="2">
	<unicode hex="0050"/>
	<advance width="1112"/>
	<outline>
		<contour>
			<point x="977" y="968" type="curve" smooth="yes"/>
			<point x="977" y="766"/>
			<point x="860" y="642"/>
			<point x="518" y="642" type="curve" smooth="yes"/>
			<point x="281" y="642" type="line"/>
			<point x="281" y="596" type="line"/>
			<point x="562" y="596" type="line" smooth="yes"/>
			<point x="922" y="596"/>
			<point x="1055" y="759"/>
			<point x="1055" y="968" type="curve" smooth="yes"/>
			<point x="1055" y="1177"/>
			<point x="922" y="1340"/>
			<point x="562" y="1340" type="curve" smooth="yes"/>
			<point x="281" y="1340" type="line"/>
			<point x="281" y="1294" type="line"/>
			<point x="518" y="1294" type="line" smooth="yes"/>
			<point x="860" y="1294"/>
			<point x="977" y="1170"/>
		</contour>
		<contour>
			<point x="319" y="1340" type="line"/>
			<point x="71" y="1340" type="line"/>
			<point x="71" y="1318" type="line"/>
			<point x="243" y="1288" type="line"/>
			<point x="243" y="52" type="line"/>
			<point x="71" y="22" type="line"/>
			<point x="71" y="0" type="line"/>
			<point x="511" y="0" type="line"/>
			<point x="511" y="22" type="line"/>
			<point x="319" y="52" type="line"/>
		</contour>
	</outline>
	<anchor name="UCtop" x="615" y="1340"/>
	<anchor name="bottom" x="281" y="0"/>
</glyph>
<glyph name="Q" format="2">
	<unicode hex="0051"/>
	<advance width="1482"/>
	<outline>
		<contour>
			<point x="1015" y="-287" type="line" smooth="yes"/>
			<point x="1139" y="-360"/>
			<point x="1207" y="-393"/>
			<point x="1313" y="-393" type="curve" smooth="yes"/>
			<point x="1364" y="-393"/>
			<point x="1431" y="-384"/>
			<point x="1489" y="-368" type="curve"/>
			<point x="1489" y="-347" type="line"/>
			<point x="1334" y="-365"/>
			<point x="1262" y="-337"/>
			<point x="1092" y="-246" type="curve" smooth="yes"/>
			<point x="580" y="30" type="line"/>
			<point x="617" y="-1" type="line"/>
			<point x="1083" y="-86"/>
			<point x="1382" y="251"/>
			<point x="1382" y="671" type="curve" smooth="yes"/>
			<point x="1382" y="1069"/>
			<point x="1102" y="1360"/>
			<point x="730" y="1360" type="curve" smooth="yes"/>
			<point x="366" y="1360"/>
			<point x="100" y="1069"/>
			<point x="100" y="669" type="curve" smooth="yes"/>
			<point x="100" y="391.3587662338"/>
			<point x="236.909997731" y="173.9410548847"/>
			<point x="436" y="56" type="curve" smooth="yes"/>
		</contour>
		<contour>
			<point x="749" y="23" type="curve" smooth="yes"/>
			<point x="419" y="23"/>
			<point x="182" y="273"/>
			<point x="182" y="681" type="curve" smooth="yes"/>
			<point x="182" y="1050"/>
			<point x="384" y="1317"/>
			<point x="733" y="1317" type="curve" smooth="yes"/>
			<point x="1063" y="1317"/>
			<point x="1300" y="1067"/>
			<point x="1300" y="659" type="curve" smooth="yes"/>
			<point x="1300" y="290"/>
			<point x="1098" y="23"/>
		</contour>
	</outline>
	<anchor name="UCtop" x="740" y="1340"/>
	<anchor name="bottom" x="741" y="-510"/>
</glyph>
<glyph name="R" format="2">
	<unicode hex="0052"/>
	<advance width="1166"/>
	<outline>
		<contour>
			<point x="557" y="709" type="curve" smooth="yes"/>
			<point x="250" y="709" type="line"/>
			<point x="259" y="663" type="line"/>
			<point x="596" y="663" type="line" smooth="yes"/>
			<point x="701" y="663"/>
			<point x="739" y="615"/>
			<point x="806" y="455" type="curve" smooth="yes"/>
			<point x="917" y="189" type="line" smooth="yes"/>
			<point x="997" y="-3"/>
			<point x="1019" y="-12"/>
			<point x="1193" y="0" type="curve"/>
			<point x="1193" y="24" type="line"/>
			<point x="1086" y="24"/>
			<point x="1061" y="48"/>
			<point x="1002" y="188" type="curve" smooth="yes"/>
			<point x="878" y="480" type="line" smooth="yes"/>
			<point x="812" y="636"/>
			<point x="752" y="687"/>
			<point x="631" y="691" type="curve"/>
			<point x="631" y="684" type="line"/>
			<point x="837" y="716"/>
			<point x="952" y="846"/>
			<point x="952" y="1008" type="curve" smooth="yes"/>
			<point x="952" y="1195"/>
			<point x="827" y="1340"/>
			<point x="490" y="1340" type="curve" smooth="yes"/>
			<point x="218" y="1340" type="line"/>
			<point x="243" y="1294" type="line"/>
			<point x="431" y="1294" type="line" smooth="yes"/>
			<point x="759" y="1294"/>
			<point x="870" y="1185"/>
			<point x="870" y="1006" type="curve" smooth="yes"/>
			<point x="870" y="810"/>
			<point x="739" y="709"/>
		</contour>
		<contour>
			<point x="319" y="1340" type="line"/>
			<point x="71" y="1340" type="line"/>
			<point x="71" y="1318" type="line"/>
			<point x="243" y="1288" type="line"/>
			<point x="243" y="52" type="line"/>
			<point x="71" y="22" type="line"/>
			<point x="71" y="0" type="line"/>
			<point x="511" y="0" type="line"/>
			<point x="511" y="22" type="line"/>
			<point x="319" y="52" type="line"/>
		</contour>
	</outline>
	<anchor name="UCtop" x="552" y="1340"/>
	<anchor name="bottom" x="672" y="0"/>
</glyph>
<glyph name="S" format="2">
	<unicode hex="0053"/>
	<advance width="994"/>
	<outline>
		<contour>
			<point x="761" y="1289" type="line"/>
			<point x="681" y="1331"/>
			<point x="605" y="1360"/>
			<point x="492" y="1360" type="curve" smooth="yes"/>
			<point x="274" y="1360"/>
			<point x="140" y="1235"/>
			<point x="140" y="1055" type="curve" smooth="yes"/>
			<point x="140" y="843"/>
			<point x="288" y="763"/>
			<point x="460" y="688" type="curve" smooth="yes"/>
			<point x="632" y="614"/>
			<point x="833" y="550"/>
			<point x="833" y="320" type="curve" smooth="yes"/>
			<point x="833" y="108"/>
			<point x="674" y="19"/>
			<point x="454" y="19" type="curve" smooth="yes"/>
			<point x="364" y="19"/>
			<point x="272" y="31"/>
			<point x="182" y="84" type="curve"/>
			<point x="270" y="17" type="line"/>
			<point x="116" y="358" type="line"/>
			<point x="87" y="358" type="line"/>
			<point x="160" y="25" type="line"/>
			<point x="254" y="-9"/>
			<point x="338" y="-20"/>
			<point x="456" y="-20" type="curve" smooth="yes"/>
			<point x="719" y="-20"/>
			<point x="893" y="104"/>
			<point x="893" y="354" type="curve" smooth="yes"/>
			<point x="893" y="605"/>
			<point x="701" y="685"/>
			<point x="529" y="756" type="curve" smooth="yes"/>
			<point x="357" y="827"/>
			<point x="198" y="892"/>
			<point x="198" y="1083" type="curve" smooth="yes"/>
			<point x="198" y="1209"/>
			<point x="290" y="1324"/>
			<point x="483" y="1324" type="curve" smooth="yes"/>
			<point x="583" y="1324"/>
			<point x="666" y="1288"/>
			<point x="789" y="1172" type="curve"/>
			<point x="699" y="1275" type="line"/>
			<point x="824" y="963" type="line"/>
			<point x="848" y="967" type="line"/>
			<point x="783" y="1386" type="line"/>
			<point x="774" y="1386" type="line"/>
			<point x="717" y="1303" type="line"/>
		</contour>
	</outline>
	<anchor name="UCtop" x="470" y="1340"/>
	<anchor name="bottom" x="510" y="0"/>
</glyph>
<glyph name="T" format="2">
	<unicode hex="0054"/>
	<advance width="1224"/>
	<outline>
		<contour>
			<point x="574" y="1327" type="line"/>
			<point x="574" y="52" type="line"/>
			<point x="402" y="22" type="line"/>
			<point x="402" y="0" type="line"/>
			<point x="822" y="0" type="line"/>
			<point x="822" y="22" type="line"/>
			<point x="650" y="52" type="line"/>
			<point x="650" y="1327" type="line"/>
		</contour>
		<contour>
			<point x="1099" y="1294" type="line"/>
			<point x="1047" y="1308" type="line"/>
			<point x="1155" y="981" type="line"/>
			<point x="1179" y="986" type="line"/>
			<point x="1133" y="1404" type="line"/>
			<point x="1122" y="1404" type="line"/>
			<point x="1040" y="1330" type="line"/>
			<point x="1075" y="1340" type="line"/>
			<point x="149" y="1340" type="line"/>
			<point x="184" y="1330" type="line"/>
			<point x="102" y="1404" type="line"/>
			<point x="91" y="1404" type="line"/>
			<point x="45" y="985" type="line"/>
			<point x="69" y="981" type="line"/>
			<point x="177" y="1308" type="line"/>
			<point x="125" y="1294" type="line"/>
		</contour>
	</outline>
	<anchor name="UCtop" x="612" y="1340"/>
	<anchor name="bottom" x="612" y="0"/>
</glyph>
<glyph name="U" format="2">
	<unicode hex="0055"/>
	<advance width="1440"/>
	<outline>
		<contour>
			<point x="1172" y="521" type="line" smooth="yes"/>
			<point x="1172" y="170"/>
			<point x="1012" y="36"/>
			<point x="736" y="36" type="curve" smooth="yes"/>
			<point x="439" y="36"/>
			<point x="293" y="223"/>
			<point x="293" y="552" type="curve" smooth="yes"/>
			<point x="293" y="1288" type="line"/>
			<point x="465" y="1318" type="line"/>
			<point x="465" y="1340" type="line"/>
			<point x="45" y="1340" type="line"/>
			<point x="45" y="1318" type="line"/>
			<point x="217" y="1288" type="line"/>
			<point x="217" y="542" type="line" smooth="yes"/>
			<point x="217" y="161"/>
			<point x="399" y="-20"/>
			<point x="730" y="-20" type="curve" smooth="yes"/>
			<point x="1032" y="-20"/>
			<point x="1220" y="141"/>
			<point x="1220" y="514" type="curve" smooth="yes"/>
			<point x="1220" y="1288" type="line"/>
			<point x="1392" y="1318" type="line"/>
			<point x="1392" y="1340" type="line"/>
			<point x="1000" y="1340" type="line"/>
			<point x="1000" y="1318" type="line"/>
			<point x="1172" y="1288" type="line"/>
		</contour>
	</outline>
	<anchor name="right" x="900" y="0"/>
	<anchor name="horn" x="1252" y="1340"/>
	<anchor name="UCtop" x="750" y="1340"/>
	<anchor name="bottom" x="730" y="0"/>
</glyph>
<glyph name="V" format="2">
	<unicode hex="0056"/>
	<advance width="1330"/>
	<outline>
		<contour>
			<point x="160" y="1288" type="line"/>
			<point x="668" y="-20" type="line"/>
			<point x="689" y="-20" type="line"/>
			<point x="1160" y="1288" type="line"/>
			<point x="1333" y="1318" type="line"/>
			<point x="1333" y="1340" type="line"/>
			<point x="941" y="1340" type="line"/>
			<point x="941" y="1318" type="line"/>
			<point x="1113" y="1288" type="line"/>
			<point x="678" y="75" type="line"/>
			<point x="706" y="75" type="line"/>
			<point x="240" y="1288" type="line"/>
			<point x="412" y="1318" type="line"/>
			<point x="412" y="1340" type="line"/>
			<point x="-12" y="1340" type="line"/>
			<point x="-12" y="1318" type="line"/>
		</contour>
	</outline>
	<anchor name="UCtop" x="687" y="1340"/>
	<anchor name="bottom" x="677" y="0"/>
</glyph>
<glyph name="W" format="2">
	<unicode hex="0057"/>
	<advance width="1838"/>
	<outline>
		<contour>
			<point x="950" y="1233" type="line"/>
			<point x="929" y="1233" type="line"/>
			<point x="1317" y="-20" type="line"/>
			<point x="1339" y="-20" type="line"/>
			<point x="1670" y="1288" type="line"/>
			<point x="1843" y="1318" type="line"/>
			<point x="1843" y="1340" type="line"/>
			<point x="1451" y="1340" type="line"/>
			<point x="1451" y="1318" type="line"/>
			<point x="1623" y="1288" type="line"/>
			<point x="1320" y="75" type="line"/>
			<point x="1359" y="85" type="line"/>
			<point x="966" y="1360" type="line"/>
			<point x="944" y="1360" type="line"/>
			<point x="488" y="75" type="line"/>
			<point x="528" y="85" type="line"/>
			<point x="250" y="1288" type="line"/>
			<point x="422" y="1318" type="line"/>
			<point x="422" y="1340" type="line"/>
			<point x="2" y="1340" type="line"/>
			<point x="2" y="1318" type="line"/>
			<point x="174" y="1288" type="line"/>
			<point x="482" y="-20" type="line"/>
			<point x="503" y="-20" type="line"/>
		</contour>
	</outline>
	<anchor name="UCtop" x="922" y="1340"/>
	<anchor name="bottom" x="922" y="0"/>
</glyph>
<glyph name="X" format="2">
	<unicode hex="0058"/>
	<advance width="1370"/>
	<outline>
		<contour>
			<point x="683" y="676" type="line"/>
			<point x="703" y="687" type="line"/>
			<point x="1150" y="1288" type="line"/>
			<point x="1313" y="1318" type="line"/>
			<point x="1313" y="1340" type="line"/>
			<point x="925" y="1340" type="line"/>
			<point x="925" y="1318" type="line"/>
			<point x="1097" y="1288" type="line"/>
			<point x="676" y="723" type="line"/>
			<point x="656" y="711" type="line"/>
			<point x="170" y="52" type="line"/>
			<point x="7" y="22" type="line"/>
			<point x="7" y="0" type="line"/>
			<point x="395" y="0" type="line"/>
			<point x="395" y="22" type="line"/>
			<point x="223" y="52" type="line"/>
		</contour>
		<contour>
			<point x="1102" y="52" type="line"/>
			<point x="930" y="22" type="line"/>
			<point x="930" y="0" type="line"/>
			<point x="1368" y="0" type="line"/>
			<point x="1368" y="22" type="line"/>
			<point x="1196" y="52" type="line"/>
			<point x="713" y="728" type="line"/>
			<point x="703" y="743" type="line"/>
			<point x="314" y="1288" type="line"/>
			<point x="486" y="1318" type="line"/>
			<point x="486" y="1340" type="line"/>
			<point x="48" y="1340" type="line"/>
			<point x="48" y="1318" type="line"/>
			<point x="220" y="1288" type="line"/>
			<point x="656" y="677" type="line"/>
			<point x="664" y="665" type="line"/>
		</contour>
	</outline>
	<anchor name="UCtop" x="697" y="1340"/>
	<anchor name="bottom" x="697" y="0"/>
</glyph>
<glyph name="Y" format="2">
	<unicode hex="0059"/>
	<advance width="1323"/>
	<outline>
		<contour>
			<point x="171" y="1288" type="line"/>
			<point x="644" y="583" type="line"/>
			<point x="644" y="52" type="line"/>
			<point x="472" y="22" type="line"/>
			<point x="472" y="0" type="line"/>
			<point x="892" y="0" type="line"/>
			<point x="892" y="22" type="line"/>
			<point x="720" y="52" type="line"/>
			<point x="720" y="585" type="line"/>
			<point x="1131" y="1288" type="line"/>
			<point x="1304" y="1318" type="line"/>
			<point x="1304" y="1340" type="line"/>
			<point x="912" y="1340" type="line"/>
			<point x="912" y="1318" type="line"/>
			<point x="1084" y="1288" type="line"/>
			<point x="685" y="603" type="line"/>
			<point x="717" y="604" type="line"/>
			<point x="264" y="1288" type="line"/>
			<point x="436" y="1318" type="line"/>
			<point x="436" y="1340" type="line"/>
			<point x="-1" y="1340" type="line"/>
			<point x="-1" y="1318" type="line"/>
		</contour>
	</outline>
	<anchor name="UCtop" x="684" y="1340"/>
	<anchor name="bottom" x="682" y="0"/>
</glyph>
<glyph name="Z" format="2">
	<unicode hex="005A"/>
	<advance width="1179"/>
	<outline>
		<contour>
			<point x="1061" y="1340" type="line"/>
			<point x="224" y="1340" type="line"/>
			<point x="145" y="1392" type="line"/>
			<point x="135" y="1392" type="line"/>
			<point x="70" y="987" type="line"/>
			<point x="91" y="982" type="line"/>
			<point x="230" y="1294" type="line"/>
			<point x="1007" y="1294" type="line"/>
			<point x="969" y="1317" type="line"/>
			<point x="115" y="15" type="line"/>
			<point x="115" y="0" type="line"/>
			<point x="969" y="0" type="line"/>
			<point x="1050" y="-38" type="line"/>
			<point x="1060" y="-38" type="line"/>
			<point x="1119" y="332" type="line"/>
			<point x="1094" y="337" type="line"/>
			<point x="963" y="46" type="line"/>
			<point x="193" y="46" type="line"/>
			<point x="203" y="21" type="line"/>
			<point x="1061" y="1325" type="line"/>
		</contour>
	</outline>
	<anchor name="UCtop" x="604" y="1340"/>
	<anchor name="bottom" x="594" y="0"/>
</glyph>
<glyph name="bracketleft" format="2">
	<unicode hex="005B"/>
	<advance width="513"/>
	<outline>
		<contour>
			<point x="192" y="-255" type="line"/>
			<point x="479" y="-255" type="line"/>
			<point x="479" y="-215" type="line"/>
			<point x="261" y="-215" type="line"/>
			<point x="261" y="1359" type="line"/>
			<point x="479" y="1359" type="line"/>
			<point x="479" y="1399" type="line"/>
			<point x="192" y="1399" type="line"/>
		</contour>
	</outline>
</glyph>
<glyph name="backslash" format="2">
	<unicode hex="005C"/>
	<advance width="746"/>
	<outline>
		<contour>
			<point x="685" y="0" type="line"/>
			<point x="125" y="1340" type="line"/>
			<point x="62" y="1340" type="line"/>
			<point x="622" y="0" type="line"/>
		</contour>
	</outline>
</glyph>
<glyph name="bracketright" format="2">
	<unicode hex="005D"/>
	<advance width="513"/>
	<outline>
		<contour>
			<point x="321" y="1400" type="line"/>
			<point x="34" y="1400" type="line"/>
			<point x="34" y="1360" type="line"/>
			<point x="252" y="1360" type="line"/>
			<point x="252" y="-214" type="line"/>
			<point x="34" y="-214" type="line"/>
			<point x="34" y="-254" type="line"/>
			<point x="321" y="-254" type="line"/>
		</contour>
	</outline>
</glyph>
<glyph name="asciicircum" format="2">
	<unicode hex="005E"/>
	<advance width="1000"/>
	<outline>
		<contour>
			<point x="489" y="1311" type="line"/>
			<point x="804" y="592" type="line"/>
			<point x="856" y="592" type="line"/>
			<point x="517" y="1340" type="line"/>
			<point x="481" y="1340" type="line"/>
			<point x="144" y="592" type="line"/>
			<point x="196" y="592" type="line"/>
			<point x="508" y="1311" type="line"/>
		</contour>
	</outline>
</glyph>
<glyph name="a" format="2">
	<unicode hex="0061"/>
	<advance width="839"/>
	<outline>
		<contour>
			<point x="627" y="524" type="line"/>
			<point x="153" y="400"/>
			<point x="92" y="311"/>
			<point x="92" y="183" type="curve" smooth="yes"/>
			<point x="92" y="47"/>
			<point x="188" y="-20"/>
			<point x="320" y="-20" type="curve" smooth="yes"/>
			<point x="445" y="-20"/>
			<point x="544" y="49"/>
			<point x="594" y="207" type="curve"/>
			<point x="588" y="207" type="line"/>
			<point x="581" y="24"/>
			<point x="612" y="-13"/>
			<point x="714" y="-13" type="curve" smooth="yes"/>
			<point x="763" y="-13"/>
			<point x="808" y="6"/>
			<point x="855" y="54" type="curve"/>
			<point x="855" y="75" type="line"/>
			<point x="813" y="44"/>
			<point x="783" y="36"/>
			<point x="750" y="36" type="curve" smooth="yes"/>
			<point x="693" y="36"/>
			<point x="658" y="66"/>
			<point x="658" y="149" type="curve" smooth="yes"/>
			<point x="658" y="647" type="line" smooth="yes"/>
			<point x="658" y="779"/>
			<point x="601" y="862"/>
			<point x="420" y="862" type="curve" smooth="yes"/>
			<point x="288" y="862"/>
			<point x="97" y="744"/>
			<point x="97" y="682" type="curve" smooth="yes"/>
			<point x="97" y="663"/>
			<point x="114" y="647"/>
			<point x="142" y="647" type="curve" smooth="yes"/>
			<point x="164" y="647"/>
			<point x="189" y="654"/>
			<point x="202" y="668" type="curve" smooth="yes"/>
			<point x="220" y="686"/>
			<point x="227" y="724"/>
			<point x="239" y="784" type="curve"/>
			<point x="179" y="754" type="line"/>
			<point x="275" y="796"/>
			<point x="340" y="812"/>
			<point x="393" y="812" type="curve" smooth="yes"/>
			<point x="536" y="812"/>
			<point x="588" y="742"/>
			<point x="588" y="625" type="curve" smooth="yes"/>
			<point x="588" y="259" type="line" smooth="yes"/>
			<point x="588" y="153"/>
			<point x="477" y="36"/>
			<point x="345" y="36" type="curve" smooth="yes"/>
			<point x="234" y="36"/>
			<point x="167" y="91"/>
			<point x="167" y="192" type="curve" smooth="yes"/>
			<point x="167" y="312"/>
			<point x="211" y="375"/>
			<point x="627" y="491" type="curve"/>
		</contour>
	</outline>
	<anchor name="top" x="374" y="852"/>
	<anchor name="right" x="855" y="0"/>
	<anchor name="bottom" x="417" y="0"/>
</glyph>
<glyph name="b" format="2">
  <advance width="998.0"/>
  <unicode hex="0062"/>
  <anchor x="515.0" y="1340" name="UCtop"/>
  <anchor x="508.0" y="0" name="bottom"/>
  <outline>
    <contour>
      <point x="172.0" y="78.0" type="line"/>
      <point x="223.0" y="19.0"/>
      <point x="341.0" y="-20.0"/>
      <point x="464.0" y="-20.0" type="curve" smooth="yes"/>
      <point x="682.0" y="-20.0"/>
      <point x="917.0" y="140.0"/>
      <point x="917.0" y="456.0" type="curve" smooth="yes"/>
      <point x="917.0" y="722.0"/>
      <point x="779.0" y="872.0"/>
      <point x="522.0" y="872.0" type="curve" smooth="yes"/>
      <point x="439.0" y="872.0"/>
      <point x="392.0" y="853.0"/>
      <point x="165.0" y="717.0" type="curve"/>
      <point x="165.0" y="678.0" type="line"/>
      <point x="293.0" y="769.0"/>
      <point x="400.0" y="809.0"/>
      <point x="504.0" y="809.0" type="curve" smooth="yes"/>
      <point x="710.0" y="809.0"/>
      <point x="844.0" y="673.0"/>
      <point x="844.0" y="433.0" type="curve" smooth="yes"/>
      <point x="844.0" y="175.0"/>
      <point x="707.0" y="24.0"/>
      <point x="463.0" y="24.0" type="curve" smooth="yes"/>
      <point x="328.0" y="24.0"/>
      <point x="220.0" y="91.0"/>
      <point x="220.0" y="183.0" type="curve" smooth="yes"/>
      <point x="220.0" y="1307.0" type="line"/>
      <point x="220.0" y="1419.0" type="line"/>
      <point x="212.0" y="1419.0" type="line"/>
      <point x="-18.0" y="1374.0" type="line"/>
      <point x="-18.0" y="1360.0" type="line"/>
      <point x="60.0" y="1336.7857142857142"/>
      <point x="124.0" y="1317.7380952380952"/>
      <point x="150.0" y="1310.0" type="curve"/>
      <point x="150.0" y="163.0" type="line"/>
      <point x="117.0" y="-20.0" type="line"/>
      <point x="135.0" y="-25.0" type="line"/>
      <point x="214.0" y="84.0" type="line"/>
    </contour>
  </outline>
</glyph>
<glyph name="c" format="2">
	<unicode hex="0063"/>
	<advance width="847"/>
	<outline>
		<contour>
			<point x="516" y="872" type="curve" smooth="yes"/>
			<point x="235" y="872"/>
			<point x="80" y="664"/>
			<point x="80" y="418" type="curve" smooth="yes"/>
			<point x="80" y="153"/>
			<point x="232" y="-20"/>
			<point x="472" y="-20" type="curve" smooth="yes"/>
			<point x="596" y="-20"/>
			<point x="674" y="26"/>
			<point x="795" y="132" type="curve"/>
			<point x="779" y="153" type="line"/>
			<point x="678" y="67"/>
			<point x="604" y="42"/>
			<point x="511" y="42" type="curve" smooth="yes"/>
			<point x="289" y="42"/>
			<point x="151" y="194"/>
			<point x="151" y="442" type="curve" smooth="yes"/>
			<point x="151" y="699"/>
			<point x="301" y="831"/>
			<point x="472" y="831" type="curve" smooth="yes"/>
			<point x="637" y="831"/>
			<point x="639" y="713"/>
			<point x="726" y="713" type="curve" smooth="yes"/>
			<point x="757" y="713"/>
			<point x="780" y="741"/>
			<point x="780" y="771" type="curve" smooth="yes"/>
			<point x="780" y="827"/>
			<point x="693" y="872"/>
		</contour>
	</outline>
	<anchor name="top" x="459" y="852"/>
	<anchor name="right" x="795" y="0"/>
	<anchor name="bottom" x="475" y="0"/>
</glyph>
<glyph name="d" format="2">
  <advance width="1025.0"/>
  <unicode hex="0064"/>
  <anchor x="480.0" y="1340" name="UCtop"/>
  <anchor x="837.0" y="1399" name="right"/>
  <anchor x="537.0" y="0" name="bottom"/>
  <anchor x="748.0" y="1078" name="center"/>
  <outline>
    <contour>
      <point x="767.0" y="689.0" type="curve" smooth="yes"/>
      <point x="767.0" y="121.0" type="line"/>
      <point x="767.0" y="-20.0" type="line"/>
      <point x="776.0" y="-20.0" type="line"/>
      <point x="1019.0" y="46.0" type="line"/>
      <point x="1019.0" y="64.0" type="line"/>
      <point x="977.0" y="69.3076923076923"/>
      <point x="861.0" y="83.96703296703296"/>
      <point x="837.0" y="87.0" type="curve"/>
      <point x="837.0" y="1320.0" type="line"/>
      <point x="847.0" y="1419.0" type="line"/>
      <point x="839.0" y="1419.0" type="line"/>
      <point x="599.0" y="1374.0" type="line"/>
      <point x="599.0" y="1360.0" type="line"/>
      <point x="656.0" y="1343.0357142857142"/>
      <point x="743.0" y="1317.142857142857"/>
      <point x="767.0" y="1310.0" type="curve"/>
      <point x="767.0" y="738.0" type="line"/>
      <point x="824.0" y="810.0" type="line"/>
      <point x="719.0" y="859.0"/>
      <point x="649.0" y="872.0"/>
      <point x="550.0" y="872.0" type="curve" smooth="yes"/>
      <point x="289.0" y="872.0"/>
      <point x="81.0" y="701.0"/>
      <point x="81.0" y="396.0" type="curve" smooth="yes"/>
      <point x="81.0" y="130.0"/>
      <point x="216.0" y="-20.0"/>
      <point x="469.0" y="-20.0" type="curve" smooth="yes"/>
      <point x="551.0" y="-20.0"/>
      <point x="596.0" y="1.0"/>
      <point x="822.0" y="135.0" type="curve"/>
      <point x="822.0" y="174.0" type="line"/>
      <point x="698.0" y="79.0"/>
      <point x="589.0" y="43.0"/>
      <point x="487.0" y="43.0" type="curve" smooth="yes"/>
      <point x="284.0" y="43.0"/>
      <point x="154.0" y="179.0"/>
      <point x="154.0" y="408.0" type="curve" smooth="yes"/>
      <point x="154.0" y="667.0"/>
      <point x="281.0" y="828.0"/>
      <point x="527.0" y="828.0" type="curve" smooth="yes"/>
      <point x="658.0" y="828.0"/>
      <point x="767.0" y="761.0"/>
    </contour>
  </outline>
</glyph>
<glyph name="e" format="2">
	<unicode hex="0065"/>
	<advance width="864"/>
	<outline>
		<contour>
			<point x="473" y="872" type="curve" smooth="yes"/>
			<point x="230" y="872"/>
			<point x="81" y="665"/>
			<point x="81" y="413" type="curve" smooth="yes"/>
			<point x="81" y="151"/>
			<point x="234" y="-20"/>
			<point x="473" y="-20" type="curve" smooth="yes"/>
			<point x="597" y="-20"/>
			<point x="675" y="26"/>
			<point x="796" y="132" type="curve"/>
			<point x="780" y="153" type="line"/>
			<point x="679" y="67"/>
			<point x="605" y="42"/>
			<point x="512" y="42" type="curve" smooth="yes"/>
			<point x="290" y="42"/>
			<point x="152" y="194"/>
			<point x="152" y="442" type="curve" smooth="yes"/>
			<point x="152" y="694"/>
			<point x="265" y="831"/>
			<point x="444" y="831" type="curve" smooth="yes"/>
			<point x="601" y="831"/>
			<point x="692" y="726"/>
			<point x="704" y="541" type="curve"/>
			<point x="728" y="586" type="line"/>
			<point x="146" y="559" type="line"/>
			<point x="146" y="530" type="line"/>
			<point x="784" y="530" type="line"/>
			<point x="770" y="717"/>
			<point x="683" y="872"/>
		</contour>
	</outline>
	<anchor name="top" x="454" y="852"/>
	<anchor name="right" x="796" y="0"/>
	<anchor name="bottom" x="454" y="0"/>
</glyph>
<glyph name="f" format="2">
	<unicode hex="0066"/>
	<advance width="606"/>
	<outline>
		<contour>
			<point x="262" y="798" type="line"/>
			<point x="581" y="798" type="line"/>
			<point x="594" y="852" type="line"/>
			<point x="247" y="852" type="line"/>
			<point x="231" y="859" type="line"/>
			<point x="27" y="826" type="line"/>
			<point x="27" y="806" type="line"/>
			<point x="218" y="790" type="line"/>
		</contour>
		<contour>
			<point x="286" y="49" type="line"/>
			<point x="286" y="966" type="line" smooth="yes"/>
			<point x="286" y="1245"/>
			<point x="406" y="1361"/>
			<point x="567" y="1361" type="curve" smooth="yes"/>
			<point x="674" y="1361"/>
			<point x="699" y="1284"/>
			<point x="752" y="1284" type="curve" smooth="yes"/>
			<point x="795" y="1284"/>
			<point x="820" y="1317"/>
			<point x="820" y="1349" type="curve" smooth="yes"/>
			<point x="820" y="1389"/>
			<point x="778" y="1419"/>
			<point x="675" y="1419" type="curve" smooth="yes"/>
			<point x="460" y="1419"/>
			<point x="216" y="1303"/>
			<point x="216" y="925" type="curve" smooth="yes"/>
			<point x="216" y="49" type="line"/>
			<point x="64" y="23" type="line"/>
			<point x="64" y="0" type="line"/>
			<point x="458" y="0" type="line"/>
			<point x="458" y="23" type="line"/>
		</contour>
	</outline>
	<anchor name="UCtop" x="506" y="1340"/>
	<anchor name="bottom" x="251" y="0"/>
</glyph>
<glyph name="g" format="2">
	<unicode hex="0067"/>
	<advance width="870"/>
	<outline>
		<contour>
			<point x="384" y="-530" type="curve" smooth="yes"/>
			<point x="679" y="-530"/>
			<point x="875" y="-390"/>
			<point x="875" y="-230" type="curve" smooth="yes"/>
			<point x="875" y="-105"/>
			<point x="793" y="-34"/>
			<point x="515" y="0" type="curve" smooth="yes"/>
			<point x="237" y="34"/>
			<point x="202" y="81"/>
			<point x="202" y="147" type="curve" smooth="yes"/>
			<point x="202" y="200"/>
			<point x="239" y="243"/>
			<point x="341" y="267" type="curve"/>
			<point x="321" y="277" type="line"/>
			<point x="194" y="249"/>
			<point x="130" y="184"/>
			<point x="130" y="104" type="curve" smooth="yes"/>
			<point x="130" y="23"/>
			<point x="192" y="-47"/>
			<point x="451" y="-69" type="curve" smooth="yes"/>
			<point x="710" y="-91"/>
			<point x="797" y="-158"/>
			<point x="797" y="-253" type="curve" smooth="yes"/>
			<point x="797" y="-394"/>
			<point x="629" y="-496"/>
			<point x="389" y="-496" type="curve" smooth="yes"/>
			<point x="180" y="-496"/>
			<point x="79" y="-411"/>
			<point x="79" y="-292" type="curve" smooth="yes"/>
			<point x="79" y="-188"/>
			<point x="163" y="-93"/>
			<point x="401" y="-56" type="curve"/>
			<point x="438" y="-23" type="line"/>
			<point x="374" y="-40" type="line"/>
			<point x="127" y="-77"/>
			<point x="5" y="-183"/>
			<point x="5" y="-302" type="curve" smooth="yes"/>
			<point x="5" y="-440"/>
			<point x="135" y="-530"/>
		</contour>
		<contour>
			<point x="407" y="244" type="curve" smooth="yes"/>
			<point x="593" y="244"/>
			<point x="735" y="382"/>
			<point x="735" y="564" type="curve" smooth="yes"/>
			<point x="735" y="739"/>
			<point x="593" y="872"/>
			<point x="407" y="872" type="curve" smooth="yes"/>
			<point x="220" y="872"/>
			<point x="79" y="734"/>
			<point x="79" y="551" type="curve" smooth="yes"/>
			<point x="79" y="376"/>
			<point x="220" y="244"/>
		</contour>
		<contour>
			<point x="410" y="277" type="curve" smooth="yes"/>
			<point x="264" y="277"/>
			<point x="165" y="392"/>
			<point x="165" y="567" type="curve" smooth="yes"/>
			<point x="165" y="749"/>
			<point x="271" y="839"/>
			<point x="404" y="839" type="curve" smooth="yes"/>
			<point x="550" y="839"/>
			<point x="648" y="723"/>
			<point x="648" y="548" type="curve" smooth="yes"/>
			<point x="648" y="365"/>
			<point x="544" y="277"/>
		</contour>
		<contour>
			<point x="517" y="836" type="line"/>
			<point x="690" y="828"/>
			<point x="762" y="767"/>
			<point x="818" y="767" type="curve" smooth="yes"/>
			<point x="853" y="767"/>
			<point x="879" y="797"/>
			<point x="879" y="834" type="curve" smooth="yes"/>
			<point x="879" y="858"/>
			<point x="864" y="872"/>
			<point x="836" y="872" type="curve" smooth="yes"/>
			<point x="768" y="872"/>
			<point x="693" y="845"/>
			<point x="489" y="862" type="curve"/>
		</contour>
	</outline>
	<anchor name="top" x="412" y="852"/>
	<anchor name="bottom" x="432" y="-530"/>
</glyph>
<glyph name="h" format="2">
	<unicode hex="0068"/>
	<advance width="1028"/>
	<outline>
		<contour>
			<point x="630" y="23" type="line"/>
			<point x="630" y="0" type="line"/>
			<point x="1004" y="0" type="line"/>
			<point x="1004" y="23" type="line"/>
			<point x="852" y="49" type="line"/>
			<point x="852" y="581" type="line" smooth="yes"/>
			<point x="852" y="785"/>
			<point x="782" y="872"/>
			<point x="596" y="872" type="curve" smooth="yes"/>
			<point x="495" y="872"/>
			<point x="409" y="852"/>
			<point x="225" y="687" type="curve"/>
			<point x="252" y="679" type="line"/>
			<point x="371" y="777"/>
			<point x="481" y="803"/>
			<point x="554" y="803" type="curve" smooth="yes"/>
			<point x="730" y="803"/>
			<point x="782" y="745"/>
			<point x="782" y="539" type="curve" smooth="yes"/>
			<point x="782" y="49" type="line"/>
		</contour>
		<contour>
			<point x="409" y="0" type="line"/>
			<point x="409" y="23" type="line"/>
			<point x="257" y="49" type="line"/>
			<point x="257" y="1307" type="line"/>
			<point x="257" y="1419" type="line"/>
			<point x="249" y="1419" type="line"/>
			<point x="19" y="1374" type="line"/>
			<point x="19" y="1360" type="line"/>
			<point x="97" y="1336.7857142857"/>
			<point x="161" y="1317.7380952381"/>
			<point x="187" y="1310" type="curve"/>
			<point x="187" y="49" type="line"/>
			<point x="35" y="23" type="line"/>
			<point x="35" y="0" type="line"/>
		</contour>
	</outline>
	<anchor name="UCtop" x="511" y="1340"/>
	<anchor name="bottom" x="533" y="0"/>
	<anchor name="center" x="276" y="1078"/>
</glyph>
<glyph name="i" format="2">
	<unicode hex="0069"/>
	<advance width="469"/>
	<outline>
		<contour>
			<point x="231" y="1260" type="curve" smooth="yes"/>
			<point x="282" y="1260"/>
			<point x="312" y="1295"/>
			<point x="312" y="1341" type="curve" smooth="yes"/>
			<point x="312" y="1385"/>
			<point x="282" y="1419"/>
			<point x="231" y="1419" type="curve" smooth="yes"/>
			<point x="183" y="1419"/>
			<point x="150" y="1385"/>
			<point x="150" y="1341" type="curve" smooth="yes"/>
			<point x="150" y="1295"/>
			<point x="183" y="1260"/>
		</contour>
		<contour>
			<point x="288" y="872" type="line"/>
			<point x="280" y="872" type="line"/>
			<point x="48" y="819" type="line"/>
			<point x="48" y="798" type="line"/>
			<point x="109" y="785.8"/>
			<point x="186" y="770.4"/>
			<point x="208" y="766" type="curve"/>
			<point x="208" y="49" type="line"/>
			<point x="56" y="23" type="line"/>
			<point x="56" y="0" type="line"/>
			<point x="430" y="0" type="line"/>
			<point x="430" y="23" type="line"/>
			<point x="278" y="49" type="line"/>
			<point x="278" y="777" type="line"/>
		</contour>
	</outline>
	<anchor name="top" x="229" y="1340"/>
	<anchor name="bottom" x="243" y="0"/>
	<anchor name="right" x="385" y="0"/>
</glyph>
<glyph name="j" format="2">
	<unicode hex="006A"/>
	<advance width="407"/>
	<outline>
		<contour>
			<point x="214" y="1260" type="curve" smooth="yes"/>
			<point x="265" y="1260"/>
			<point x="295" y="1295"/>
			<point x="295" y="1341" type="curve" smooth="yes"/>
			<point x="295" y="1385"/>
			<point x="265" y="1419"/>
			<point x="214" y="1419" type="curve" smooth="yes"/>
			<point x="166" y="1419"/>
			<point x="133" y="1385"/>
			<point x="133" y="1341" type="curve" smooth="yes"/>
			<point x="133" y="1295"/>
			<point x="166" y="1260"/>
		</contour>
		<contour>
			<point x="191" y="766" type="curve"/>
			<point x="191" y="-162" type="line" smooth="yes"/>
			<point x="191" y="-289"/>
			<point x="184" y="-331"/>
			<point x="39" y="-511" type="curve"/>
			<point x="60" y="-530" type="line"/>
			<point x="236" y="-347"/>
			<point x="261" y="-320"/>
			<point x="261" y="-143" type="curve" smooth="yes"/>
			<point x="261" y="777" type="line"/>
			<point x="271" y="872" type="line"/>
			<point x="263" y="872" type="line"/>
			<point x="31" y="819" type="line"/>
			<point x="31" y="798" type="line"/>
			<point x="92" y="785.8"/>
			<point x="169" y="770.4"/>
		</contour>
	</outline>
	<anchor name="top" x="212" y="1340"/>
	<anchor name="bottom" x="203" y="-510"/>
</glyph>
<glyph name="k" format="2">
	<unicode hex="006B"/>
	<advance width="1011"/>
	<outline>
		<contour>
			<point x="444" y="480" type="line"/>
			<point x="799" y="803" type="line"/>
			<point x="952" y="830" type="line"/>
			<point x="952" y="852" type="line"/>
			<point x="592" y="852" type="line"/>
			<point x="592" y="830" type="line"/>
			<point x="744" y="803" type="line"/>
			<point x="405" y="492" type="line"/>
			<point x="239" y="492" type="line"/>
			<point x="239" y="452" type="line"/>
			<point x="405" y="452" type="line"/>
			<point x="793" y="45" type="line"/>
			<point x="647" y="22" type="line"/>
			<point x="647" y="0" type="line"/>
			<point x="1017" y="0" type="line"/>
			<point x="1017" y="22" type="line"/>
			<point x="880" y="49" type="line"/>
			<point x="444" y="506" type="line"/>
		</contour>
		<contour>
			<point x="257" y="49" type="line"/>
			<point x="257" y="1307" type="line"/>
			<point x="257" y="1419" type="line"/>
			<point x="249" y="1419" type="line"/>
			<point x="19" y="1374" type="line"/>
			<point x="19" y="1360" type="line"/>
			<point x="97" y="1336.7857142857"/>
			<point x="161" y="1317.7380952381"/>
			<point x="187" y="1310" type="curve"/>
			<point x="187" y="49" type="line"/>
			<point x="35" y="23" type="line"/>
			<point x="35" y="0" type="line"/>
			<point x="409" y="0" type="line"/>
			<point x="409" y="23" type="line"/>
		</contour>
	</outline>
	<anchor name="UCtop" x="509" y="1340"/>
	<anchor name="bottom" x="516" y="0"/>
</glyph>
<glyph name="l" format="2">
	<unicode hex="006C"/>
	<advance width="452"/>
	<outline>
		<contour>
			<point x="261" y="49" type="line"/>
			<point x="261" y="1307" type="line"/>
			<point x="261" y="1419" type="line"/>
			<point x="253" y="1419" type="line"/>
			<point x="23" y="1374" type="line"/>
			<point x="23" y="1360" type="line"/>
			<point x="101" y="1336.7857142857"/>
			<point x="165" y="1317.7380952381"/>
			<point x="191" y="1310" type="curve"/>
			<point x="191" y="49" type="line"/>
			<point x="39" y="23" type="line"/>
			<point x="39" y="0" type="line"/>
			<point x="413" y="0" type="line"/>
			<point x="413" y="23" type="line"/>
		</contour>
	</outline>
	<anchor name="UCtop" x="208" y="1339"/>
	<anchor name="right" x="261" y="1399"/>
	<anchor name="bottom" x="226" y="0"/>
	<anchor name="mid" x="443" y="546"/>
</glyph>
<glyph name="m" format="2">
	<unicode hex="006D"/>
	<advance width="1539"/>
	<outline>
		<contour>
			<point x="274" y="707" type="line"/>
			<point x="274" y="872" type="line"/>
			<point x="266" y="872" type="line"/>
			<point x="44" y="819" type="line"/>
			<point x="44" y="798" type="line"/>
			<point x="135" y="779.8"/>
			<point x="182" y="770.4"/>
			<point x="204" y="766" type="curve"/>
			<point x="204" y="49" type="line"/>
			<point x="52" y="23" type="line"/>
			<point x="52" y="0" type="line"/>
			<point x="426" y="0" type="line"/>
			<point x="426" y="23" type="line"/>
			<point x="274" y="49" type="line"/>
		</contour>
		<contour>
			<point x="818" y="604" type="line" smooth="yes"/>
			<point x="818" y="792"/>
			<point x="754" y="872"/>
			<point x="582" y="872" type="curve" smooth="yes"/>
			<point x="490" y="872"/>
			<point x="410" y="854"/>
			<point x="241" y="702" type="curve"/>
			<point x="266" y="690" type="line"/>
			<point x="374" y="780"/>
			<point x="474" y="803"/>
			<point x="541" y="803" type="curve" smooth="yes"/>
			<point x="701" y="803"/>
			<point x="748" y="751"/>
			<point x="748" y="564" type="curve" smooth="yes"/>
			<point x="748" y="49" type="line"/>
			<point x="596" y="23" type="line"/>
			<point x="596" y="0" type="line"/>
			<point x="970" y="0" type="line"/>
			<point x="970" y="23" type="line"/>
			<point x="818" y="49" type="line"/>
		</contour>
		<contour>
			<point x="1362" y="604" type="line" smooth="yes"/>
			<point x="1362" y="792"/>
			<point x="1298" y="872"/>
			<point x="1126" y="872" type="curve" smooth="yes"/>
			<point x="1034" y="872"/>
			<point x="954" y="854"/>
			<point x="785" y="702" type="curve"/>
			<point x="810" y="690" type="line"/>
			<point x="918" y="780"/>
			<point x="1018" y="803"/>
			<point x="1085" y="803" type="curve" smooth="yes"/>
			<point x="1245" y="803"/>
			<point x="1292" y="751"/>
			<point x="1292" y="564" type="curve" smooth="yes"/>
			<point x="1292" y="49" type="line"/>
			<point x="1140" y="23" type="line"/>
			<point x="1140" y="0" type="line"/>
			<point x="1514" y="0" type="line"/>
			<point x="1514" y="23" type="line"/>
			<point x="1362" y="49" type="line"/>
		</contour>
	</outline>
	<anchor name="top" x="783" y="852"/>
	<anchor name="bottom" x="783" y="0"/>
</glyph>
<glyph name="n" format="2">
	<unicode hex="006E"/>
	<advance width="1045"/>
	<outline>
		<contour>
			<point x="274" y="707" type="line"/>
			<point x="274" y="872" type="line"/>
			<point x="266" y="872" type="line"/>
			<point x="44" y="819" type="line"/>
			<point x="44" y="798" type="line"/>
			<point x="135" y="779.8"/>
			<point x="182" y="770.4"/>
			<point x="204" y="766" type="curve"/>
			<point x="204" y="49" type="line"/>
			<point x="52" y="23" type="line"/>
			<point x="52" y="0" type="line"/>
			<point x="426" y="0" type="line"/>
			<point x="426" y="23" type="line"/>
			<point x="274" y="49" type="line"/>
		</contour>
		<contour>
			<point x="647" y="23" type="line"/>
			<point x="647" y="0" type="line"/>
			<point x="1021" y="0" type="line"/>
			<point x="1021" y="23" type="line"/>
			<point x="869" y="49" type="line"/>
			<point x="869" y="581" type="line" smooth="yes"/>
			<point x="869" y="785"/>
			<point x="799" y="872"/>
			<point x="613" y="872" type="curve" smooth="yes"/>
			<point x="512" y="872"/>
			<point x="426" y="852"/>
			<point x="242" y="687" type="curve"/>
			<point x="269" y="679" type="line"/>
			<point x="388" y="777"/>
			<point x="498" y="803"/>
			<point x="571" y="803" type="curve" smooth="yes"/>
			<point x="747" y="803"/>
			<point x="799" y="745"/>
			<point x="799" y="539" type="curve" smooth="yes"/>
			<point x="799" y="49" type="line"/>
		</contour>
	</outline>
	<anchor name="top" x="503" y="852"/>
	<anchor name="bottom" x="531" y="0"/>
</glyph>
<glyph name="o" format="2">
	<unicode hex="006F"/>
	<advance width="989"/>
	<outline>
		<contour>
			<point x="499" y="16" type="curve" smooth="yes"/>
			<point x="298" y="16"/>
			<point x="162" y="184"/>
			<point x="162" y="440" type="curve" smooth="yes"/>
			<point x="162" y="706"/>
			<point x="307" y="836"/>
			<point x="490" y="836" type="curve" smooth="yes"/>
			<point x="691" y="836"/>
			<point x="827" y="668"/>
			<point x="827" y="412" type="curve" smooth="yes"/>
			<point x="827" y="146"/>
			<point x="682" y="16"/>
		</contour>
		<contour>
			<point x="494" y="-20" type="curve" smooth="yes"/>
			<point x="735" y="-20"/>
			<point x="909" y="155"/>
			<point x="909" y="435" type="curve" smooth="yes"/>
			<point x="909" y="702"/>
			<point x="732" y="872"/>
			<point x="495" y="872" type="curve" smooth="yes"/>
			<point x="254" y="872"/>
			<point x="80" y="697"/>
			<point x="80" y="417" type="curve" smooth="yes"/>
			<point x="80" y="150"/>
			<point x="257" y="-20"/>
		</contour>
	</outline>
	<anchor name="top" x="494" y="852"/>
	<anchor name="bottom" x="494" y="0"/>
	<anchor name="horn" x="621" y="852"/>
	<anchor name="right" x="679" y="0"/>
</glyph>
<glyph name="p" format="2">
	<unicode hex="0070"/>
	<advance width="1037"/>
	<outline>
		<contour>
			<point x="883" y="433" type="curve" smooth="yes"/>
			<point x="883" y="175"/>
			<point x="746" y="24"/>
			<point x="502" y="24" type="curve" smooth="yes"/>
			<point x="367" y="24"/>
			<point x="259" y="91"/>
			<point x="259" y="183" type="curve" smooth="yes"/>
			<point x="259" y="727" type="line"/>
			<point x="259" y="872" type="line"/>
			<point x="251" y="872" type="line"/>
			<point x="29" y="819" type="line"/>
			<point x="29" y="798" type="line"/>
			<point x="103" y="783.2"/>
			<point x="163" y="771.2"/>
			<point x="189" y="766" type="curve"/>
			<point x="189" y="-461" type="line"/>
			<point x="37" y="-487" type="line"/>
			<point x="37" y="-510" type="line"/>
			<point x="431" y="-510" type="line"/>
			<point x="431" y="-487" type="line"/>
			<point x="259" y="-461" type="line"/>
			<point x="259" y="78" type="line"/>
			<point x="211" y="78" type="line"/>
			<point x="262" y="19"/>
			<point x="380" y="-20"/>
			<point x="503" y="-20" type="curve" smooth="yes"/>
			<point x="721" y="-20"/>
			<point x="956" y="140"/>
			<point x="956" y="456" type="curve" smooth="yes"/>
			<point x="956" y="722"/>
			<point x="818" y="872"/>
			<point x="561" y="872" type="curve" smooth="yes"/>
			<point x="478" y="872"/>
			<point x="431" y="853"/>
			<point x="204" y="717" type="curve"/>
			<point x="204" y="678" type="line"/>
			<point x="332" y="769"/>
			<point x="439" y="809"/>
			<point x="543" y="809" type="curve" smooth="yes"/>
			<point x="749" y="809"/>
			<point x="883" y="673"/>
		</contour>
	</outline>
	<anchor name="top" x="543" y="852"/>
	<anchor name="bottom" x="224" y="-510"/>
</glyph>
<glyph name="q" format="2">
	<unicode hex="0071"/>
	<advance width="985"/>
	<outline>
		<contour>
			<point x="154" y="408" type="curve" smooth="yes"/>
			<point x="154" y="667"/>
			<point x="281" y="828"/>
			<point x="527" y="828" type="curve" smooth="yes"/>
			<point x="658" y="828"/>
			<point x="767" y="761"/>
			<point x="767" y="689" type="curve"/>
			<point x="767" y="-461" type="line"/>
			<point x="595" y="-487" type="line"/>
			<point x="595" y="-510" type="line"/>
			<point x="989" y="-510" type="line"/>
			<point x="989" y="-487" type="line"/>
			<point x="837" y="-461" type="line"/>
			<point x="837" y="709" type="line"/>
			<point x="870" y="892" type="line"/>
			<point x="852" y="897" type="line"/>
			<point x="773" y="788" type="line"/>
			<point x="824" y="810" type="line"/>
			<point x="723" y="857"/>
			<point x="656" y="872"/>
			<point x="550" y="872" type="curve" smooth="yes"/>
			<point x="289" y="872"/>
			<point x="81" y="701"/>
			<point x="81" y="396" type="curve" smooth="yes"/>
			<point x="81" y="130"/>
			<point x="216" y="-20"/>
			<point x="469" y="-20" type="curve" smooth="yes"/>
			<point x="551" y="-20"/>
			<point x="596" y="1"/>
			<point x="822" y="135" type="curve"/>
			<point x="822" y="174" type="line"/>
			<point x="698" y="79"/>
			<point x="589" y="43"/>
			<point x="487" y="43" type="curve" smooth="yes"/>
			<point x="284" y="43"/>
			<point x="154" y="179"/>
		</contour>
	</outline>
	<anchor name="top" x="506" y="852"/>
	<anchor name="bottom" x="802" y="-510"/>
</glyph>
<glyph name="r" format="2">
	<unicode hex="0072"/>
	<advance width="637"/>
	<outline>
		<contour>
			<point x="552" y="865" type="curve" smooth="yes"/>
			<point x="507" y="865"/>
			<point x="443" y="848"/>
			<point x="253" y="701" type="curve"/>
			<point x="268" y="684" type="line"/>
			<point x="339" y="740"/>
			<point x="404" y="761"/>
			<point x="448" y="761" type="curve" smooth="yes"/>
			<point x="497" y="761"/>
			<point x="516" y="748"/>
			<point x="548" y="748" type="curve" smooth="yes"/>
			<point x="586" y="748"/>
			<point x="610" y="774"/>
			<point x="610" y="810" type="curve" smooth="yes"/>
			<point x="610" y="843"/>
			<point x="594" y="865"/>
		</contour>
		<contour>
			<point x="274" y="707" type="line"/>
			<point x="274" y="872" type="line"/>
			<point x="266" y="872" type="line"/>
			<point x="44" y="819" type="line"/>
			<point x="44" y="798" type="line"/>
			<point x="118" y="783.2"/>
			<point x="178" y="771.2"/>
			<point x="204" y="766" type="curve"/>
			<point x="204" y="49" type="line"/>
			<point x="52" y="23" type="line"/>
			<point x="52" y="0" type="line"/>
			<point x="446" y="0" type="line"/>
			<point x="446" y="23" type="line"/>
			<point x="274" y="49" type="line"/>
		</contour>
	</outline>
	<anchor name="top" x="327" y="852"/>
	<anchor name="bottom" x="239" y="0"/>
</glyph>
<glyph name="s" format="2">
	<unicode hex="0073"/>
	<advance width="694"/>
	<outline>
		<contour>
			<point x="369" y="872" type="curve" smooth="yes"/>
			<point x="228" y="872"/>
			<point x="111" y="772"/>
			<point x="111" y="650" type="curve" smooth="yes"/>
			<point x="111" y="514"/>
			<point x="214" y="468"/>
			<point x="324" y="425" type="curve" smooth="yes"/>
			<point x="434" y="382"/>
			<point x="540" y="348"/>
			<point x="540" y="225" type="curve" smooth="yes"/>
			<point x="540" y="97"/>
			<point x="449" y="16"/>
			<point x="300" y="16" type="curve" smooth="yes"/>
			<point x="226" y="16"/>
			<point x="171" y="30"/>
			<point x="127" y="57" type="curve"/>
			<point x="189" y="10" type="line"/>
			<point x="104" y="253" type="line"/>
			<point x="84" y="253" type="line"/>
			<point x="104" y="14" type="line"/>
			<point x="159" y="-8"/>
			<point x="227" y="-20"/>
			<point x="311" y="-20" type="curve" smooth="yes"/>
			<point x="479" y="-20"/>
			<point x="605" y="85"/>
			<point x="605" y="237" type="curve" smooth="yes"/>
			<point x="605" y="396"/>
			<point x="487" y="446"/>
			<point x="378" y="487" type="curve" smooth="yes"/>
			<point x="269" y="528"/>
			<point x="171" y="563"/>
			<point x="171" y="673" type="curve" smooth="yes"/>
			<point x="171" y="767"/>
			<point x="233" y="833"/>
			<point x="365" y="833" type="curve" smooth="yes"/>
			<point x="426" y="833"/>
			<point x="474" y="821"/>
			<point x="539" y="771" type="curve"/>
			<point x="475" y="834" type="line"/>
			<point x="564" y="603" type="line"/>
			<point x="585" y="603" type="line"/>
			<point x="562" y="828" type="line"/>
			<point x="502" y="859"/>
			<point x="450" y="872"/>
		</contour>
	</outline>
	<anchor name="top" x="335" y="852"/>
	<anchor name="bottom" x="375" y="0"/>
</glyph>
<glyph name="t" format="2">
	<unicode hex="0074"/>
	<advance width="577"/>
	<outline>
		<contour>
			<point x="233" y="200" type="curve" smooth="yes"/>
			<point x="233" y="821" type="line"/>
			<point x="233" y="937" type="line"/>
			<point x="224" y="937" type="line"/>
			<point x="178" y="908"/>
			<point x="111" y="868"/>
			<point x="57" y="836" type="curve"/>
			<point x="57" y="828" type="line"/>
			<point x="163" y="783" type="line"/>
			<point x="163" y="174" type="line" smooth="yes"/>
			<point x="163" y="44"/>
			<point x="255" y="-10"/>
			<point x="355" y="-10" type="curve" smooth="yes"/>
			<point x="417" y="-10"/>
			<point x="438" y="-6"/>
			<point x="570" y="53" type="curve"/>
			<point x="570" y="76" type="line"/>
			<point x="499" y="59"/>
			<point x="441" y="50"/>
			<point x="394" y="50" type="curve" smooth="yes"/>
			<point x="280" y="50"/>
			<point x="233" y="101"/>
		</contour>
		<contour>
			<point x="179" y="798" type="line"/>
			<point x="528" y="798" type="line"/>
			<point x="541" y="852" type="line"/>
			<point x="179" y="852" type="line"/>
		</contour>
	</outline>
	<anchor name="right" x="235" y="1340"/>
	<anchor name="bottom" x="353" y="0"/>
</glyph>
<glyph name="u" format="2">
	<unicode hex="0075"/>
	<advance width="1014"/>
	<outline>
		<contour>
			<point x="251" y="293" type="curve" smooth="yes"/>
			<point x="251" y="787" type="line"/>
			<point x="261" y="869" type="line"/>
			<point x="-9" y="852" type="line"/>
			<point x="-9" y="829" type="line"/>
			<point x="181" y="787" type="line"/>
			<point x="181" y="253" type="line" smooth="yes"/>
			<point x="181" y="61"/>
			<point x="252" y="-20"/>
			<point x="441" y="-20" type="curve" smooth="yes"/>
			<point x="534" y="-20"/>
			<point x="612" y="1"/>
			<point x="783" y="154" type="curve"/>
			<point x="763" y="164" type="line"/>
			<point x="652" y="73"/>
			<point x="550" y="49"/>
			<point x="483" y="49" type="curve" smooth="yes"/>
			<point x="304" y="49"/>
			<point x="251" y="102"/>
		</contour>
		<contour>
			<point x="756" y="-20" type="line"/>
			<point x="765" y="-20" type="line"/>
			<point x="1008" y="46" type="line"/>
			<point x="1008" y="64" type="line"/>
			<point x="966" y="69.3076923077"/>
			<point x="850" y="83.967032967"/>
			<point x="826" y="87" type="curve"/>
			<point x="826" y="787" type="line"/>
			<point x="836" y="869" type="line"/>
			<point x="566" y="852" type="line"/>
			<point x="566" y="829" type="line"/>
			<point x="756" y="787" type="line"/>
			<point x="756" y="145" type="line"/>
		</contour>
	</outline>
	<anchor name="top" x="461" y="852"/>
	<anchor name="right" x="918" y="0"/>
	<anchor name="bottom" x="499" y="0"/>
	<anchor name="horn" x="768" y="852"/>
</glyph>
<glyph name="v" format="2">
	<unicode hex="0076"/>
	<advance width="1011"/>
	<outline>
		<contour>
			<point x="847" y="803" type="line"/>
			<point x="979" y="829" type="line"/>
			<point x="979" y="852" type="line"/>
			<point x="652" y="852" type="line"/>
			<point x="652" y="829" type="line"/>
			<point x="804" y="803" type="line"/>
			<point x="521" y="42" type="line"/>
			<point x="549" y="42" type="line"/>
			<point x="218" y="803" type="line"/>
			<point x="370" y="829" type="line"/>
			<point x="370" y="852" type="line"/>
			<point x="-10" y="852" type="line"/>
			<point x="-10" y="829" type="line"/>
			<point x="142" y="803" type="line"/>
			<point x="503" y="-20" type="line"/>
			<point x="533" y="-20" type="line"/>
		</contour>
	</outline>
	<anchor name="top" x="511" y="852"/>
	<anchor name="bottom" x="516" y="0"/>
</glyph>
<glyph name="w" format="2">
	<unicode hex="0077"/>
	<advance width="1421"/>
	<outline>
		<contour>
			<point x="1224" y="803" type="line"/>
			<point x="1020" y="73" type="line"/>
			<point x="1037" y="73" type="line"/>
			<point x="737" y="872" type="line"/>
			<point x="708" y="872" type="line"/>
			<point x="413" y="42" type="line"/>
			<point x="442" y="62" type="line"/>
			<point x="228" y="803" type="line"/>
			<point x="380" y="829" type="line"/>
			<point x="380" y="852" type="line"/>
			<point x="2" y="852" type="line"/>
			<point x="2" y="829" type="line"/>
			<point x="154" y="803" type="line"/>
			<point x="395" y="-20" type="line"/>
			<point x="425" y="-20" type="line"/>
			<point x="714" y="780" type="line"/>
			<point x="699" y="780" type="line"/>
			<point x="1001" y="-20" type="line"/>
			<point x="1031" y="-20" type="line"/>
			<point x="1265" y="803" type="line"/>
			<point x="1397" y="829" type="line"/>
			<point x="1397" y="852" type="line"/>
			<point x="1072" y="852" type="line"/>
			<point x="1072" y="829" type="line"/>
		</contour>
	</outline>
	<anchor name="top" x="710" y="852"/>
	<anchor name="bottom" x="727" y="0"/>
</glyph>
<glyph name="x" format="2">
	<unicode hex="0078"/>
	<advance width="992"/>
	<outline>
		<contour>
			<point x="840" y="49" type="line"/>
			<point x="525" y="467" type="line"/>
			<point x="513" y="482" type="line"/>
			<point x="272" y="803" type="line"/>
			<point x="424" y="829" type="line"/>
			<point x="424" y="852" type="line"/>
			<point x="44" y="852" type="line"/>
			<point x="44" y="829" type="line"/>
			<point x="186" y="803" type="line"/>
			<point x="467" y="430" type="line"/>
			<point x="477" y="417" type="line"/>
			<point x="754" y="49" type="line"/>
			<point x="602" y="23" type="line"/>
			<point x="602" y="0" type="line"/>
			<point x="982" y="0" type="line"/>
			<point x="982" y="23" type="line"/>
		</contour>
		<contour>
			<point x="502" y="430" type="line"/>
			<point x="514" y="438" type="line"/>
			<point x="812" y="803" type="line"/>
			<point x="944" y="829" type="line"/>
			<point x="944" y="852" type="line"/>
			<point x="617" y="852" type="line"/>
			<point x="617" y="829" type="line"/>
			<point x="764" y="803" type="line"/>
			<point x="494" y="467" type="line"/>
			<point x="479" y="456" type="line"/>
			<point x="145" y="49" type="line"/>
			<point x="13" y="23" type="line"/>
			<point x="13" y="0" type="line"/>
			<point x="340" y="0" type="line"/>
			<point x="340" y="23" type="line"/>
			<point x="193" y="49" type="line"/>
		</contour>
	</outline>
	<anchor name="top" x="504" y="852"/>
	<anchor name="bottom" x="497" y="0"/>
</glyph>
<glyph name="y" format="2">
  <advance width="1012.0"/>
  <unicode hex="0079"/>
  <anchor x="514.0" y="852.0" name="top"/>
  <anchor x="646.0" y="-191" name="bottom"/>
  <outline>
    <contour>
      <point x="571.0" y="42.0" type="line"/>
      <point x="233.0" y="803.0" type="line"/>
      <point x="385.0" y="829.0" type="line"/>
      <point x="385.0" y="852.0" type="line"/>
      <point x="5.0" y="852.0" type="line"/>
      <point x="5.0" y="829.0" type="line"/>
      <point x="157.0" y="803.0" type="line"/>
      <point x="525.0" y="-20.0" type="line"/>
    </contour>
    <contour>
      <point x="207.0" y="-530.0" type="curve" smooth="yes"/>
      <point x="316.0" y="-530.0"/>
      <point x="387.0" y="-462.0"/>
      <point x="463.0" y="-260.0" type="curve" smooth="yes"/>
      <point x="862.0" y="803.0" type="line"/>
      <point x="994.0" y="829.0" type="line"/>
      <point x="994.0" y="852.0" type="line"/>
      <point x="667.0" y="852.0" type="line"/>
      <point x="667.0" y="829.0" type="line"/>
      <point x="819.0" y="803.0" type="line"/>
      <point x="543.0" y="42.0" type="line"/>
      <point x="532.0" y="10.0" type="line"/>
      <point x="440.0" y="-212.0" type="line" smooth="yes"/>
      <point x="364.0" y="-395.0"/>
      <point x="315.0" y="-426.0"/>
      <point x="256.0" y="-426.0" type="curve" smooth="yes"/>
      <point x="209.0" y="-426.0"/>
      <point x="177.0" y="-400.0"/>
      <point x="150.0" y="-400.0" type="curve" smooth="yes"/>
      <point x="124.0" y="-400.0"/>
      <point x="103.0" y="-421.0"/>
      <point x="103.0" y="-454.0" type="curve" smooth="yes"/>
      <point x="103.0" y="-501.0"/>
      <point x="143.0" y="-530.0"/>
    </contour>
  </outline>
</glyph>
<glyph name="z" format="2">
	<unicode hex="007A"/>
	<advance width="790"/>
	<outline>
		<contour>
			<point x="63" y="0" type="line"/>
			<point x="688" y="0" type="line"/>
			<point x="752" y="269" type="line"/>
			<point x="725" y="269" type="line"/>
			<point x="586" y="32" type="line"/>
			<point x="620" y="40" type="line"/>
			<point x="117" y="40" type="line"/>
			<point x="149" y="30" type="line"/>
			<point x="712" y="838" type="line"/>
			<point x="712" y="852" type="line"/>
			<point x="208" y="852" type="line"/>
			<point x="134" y="872" type="line"/>
			<point x="120" y="872" type="line"/>
			<point x="80" y="585" type="line"/>
			<point x="104" y="585" type="line"/>
			<point x="223" y="826" type="line"/>
			<point x="157" y="812" type="line"/>
			<point x="659" y="812" type="line"/>
			<point x="624" y="820" type="line"/>
			<point x="63" y="14" type="line"/>
		</contour>
	</outline>
	<anchor name="top" x="407" y="852"/>
	<anchor name="bottom" x="401" y="0"/>
</glyph>
<glyph name="braceleft" format="2">
	<unicode hex="007B"/>
	<advance width="555"/>
	<outline>
		<contour>
			<point x="42" y="552" type="line"/>
			<point x="141" y="548" type="line" smooth="yes"/>
			<point x="235" y="544"/>
			<point x="263" y="487"/>
			<point x="263" y="402" type="curve" smooth="yes"/>
			<point x="263" y="238"/>
			<point x="210" y="129"/>
			<point x="210" y="11" type="curve" smooth="yes"/>
			<point x="210" y="-124"/>
			<point x="276" y="-245"/>
			<point x="438" y="-264" type="curve" smooth="yes"/>
			<point x="506" y="-272" type="line"/>
			<point x="510" y="-240" type="line"/>
			<point x="448" y="-233" type="line" smooth="yes"/>
			<point x="333" y="-220"/>
			<point x="287" y="-152"/>
			<point x="287" y="-34" type="curve" smooth="yes"/>
			<point x="287" y="79"/>
			<point x="325" y="201"/>
			<point x="325" y="345" type="curve" smooth="yes"/>
			<point x="325" y="458"/>
			<point x="290" y="562"/>
			<point x="155" y="582" type="curve"/>
			<point x="155" y="556" type="line"/>
			<point x="290" y="575"/>
			<point x="325" y="680"/>
			<point x="325" y="793" type="curve" smooth="yes"/>
			<point x="325" y="937"/>
			<point x="287" y="1059"/>
			<point x="287" y="1172" type="curve" smooth="yes"/>
			<point x="287" y="1290"/>
			<point x="333" y="1358"/>
			<point x="448" y="1371" type="curve" smooth="yes"/>
			<point x="510" y="1378" type="line"/>
			<point x="506" y="1410" type="line"/>
			<point x="438" y="1402" type="line" smooth="yes"/>
			<point x="276" y="1382"/>
			<point x="210" y="1262"/>
			<point x="210" y="1127" type="curve" smooth="yes"/>
			<point x="210" y="1009"/>
			<point x="263" y="900"/>
			<point x="263" y="736" type="curve" smooth="yes"/>
			<point x="263" y="651"/>
			<point x="235" y="593"/>
			<point x="141" y="589" type="curve" smooth="yes"/>
			<point x="42" y="585" type="line"/>
		</contour>
	</outline>
</glyph>
<glyph name="bar" format="2">
	<unicode hex="007C"/>
	<advance width="440"/>
	<outline>
		<contour>
			<point x="193" y="-530" type="line"/>
			<point x="247" y="-530" type="line"/>
			<point x="247" y="1470" type="line"/>
			<point x="193" y="1470" type="line"/>
		</contour>
	</outline>
</glyph>
<glyph name="braceright" format="2">
	<unicode hex="007D"/>
	<advance width="555"/>
	<outline>
		<contour>
			<point x="513" y="586" type="line"/>
			<point x="414" y="590" type="line" smooth="yes"/>
			<point x="320" y="594"/>
			<point x="292" y="651"/>
			<point x="292" y="736" type="curve" smooth="yes"/>
			<point x="292" y="900"/>
			<point x="345" y="1009"/>
			<point x="345" y="1127" type="curve" smooth="yes"/>
			<point x="345" y="1262"/>
			<point x="279" y="1383"/>
			<point x="117" y="1402" type="curve" smooth="yes"/>
			<point x="49" y="1410" type="line"/>
			<point x="45" y="1378" type="line"/>
			<point x="107" y="1371" type="line" smooth="yes"/>
			<point x="222" y="1358"/>
			<point x="268" y="1290"/>
			<point x="268" y="1172" type="curve" smooth="yes"/>
			<point x="268" y="1059"/>
			<point x="230" y="937"/>
			<point x="230" y="793" type="curve" smooth="yes"/>
			<point x="230" y="680"/>
			<point x="265" y="576"/>
			<point x="400" y="556" type="curve"/>
			<point x="400" y="582" type="line"/>
			<point x="265" y="563"/>
			<point x="230" y="458"/>
			<point x="230" y="345" type="curve" smooth="yes"/>
			<point x="230" y="201"/>
			<point x="268" y="79"/>
			<point x="268" y="-34" type="curve" smooth="yes"/>
			<point x="268" y="-152"/>
			<point x="222" y="-220"/>
			<point x="107" y="-233" type="curve" smooth="yes"/>
			<point x="45" y="-240" type="line"/>
			<point x="49" y="-272" type="line"/>
			<point x="117" y="-264" type="line" smooth="yes"/>
			<point x="279" y="-244"/>
			<point x="345" y="-124"/>
			<point x="345" y="11" type="curve" smooth="yes"/>
			<point x="345" y="129"/>
			<point x="292" y="238"/>
			<point x="292" y="402" type="curve" smooth="yes"/>
			<point x="292" y="487"/>
			<point x="320" y="545"/>
			<point x="414" y="549" type="curve" smooth="yes"/>
			<point x="513" y="553" type="line"/>
		</contour>
	</outline>
</glyph>
<glyph name="asciitilde" format="2">
	<unicode hex="007E"/>
	<advance width="1000"/>
	<outline>
		<contour>
			<point x="142" y="335" type="curve"/>
			<point x="184" y="335" type="line"/>
			<point x="200" y="448"/>
			<point x="234" y="498"/>
			<point x="334" y="498" type="curve" smooth="yes"/>
			<point x="472" y="498"/>
			<point x="509" y="328"/>
			<point x="663" y="328" type="curve" smooth="yes"/>
			<point x="758" y="328"/>
			<point x="850" y="373"/>
			<point x="860" y="537" type="curve"/>
			<point x="818" y="537" type="line"/>
			<point x="803" y="424"/>
			<point x="768" y="374"/>
			<point x="668" y="374" type="curve" smooth="yes"/>
			<point x="531" y="374"/>
			<point x="493" y="543"/>
			<point x="339" y="543" type="curve" smooth="yes"/>
			<point x="245" y="543"/>
			<point x="152" y="498"/>
		</contour>
	</outline>
</glyph>
<glyph name="exclamdown" format="2">
	<unicode hex="00A1"/>
	<advance width="382"/>
	<outline>
		<contour>
			<point x="145" y="-470" type="line" smooth="yes"/>
			<point x="145" y="-493"/>
			<point x="159" y="-502"/>
			<point x="190" y="-502" type="curve" smooth="yes"/>
			<point x="221" y="-502"/>
			<point x="236" y="-493"/>
			<point x="236" y="-470" type="curve" smooth="yes"/>
			<point x="236" y="-450" type="line" smooth="yes"/>
			<point x="236" y="-419"/>
			<point x="214" y="131"/>
			<point x="209" y="452" type="curve"/>
			<point x="175" y="452" type="line"/>
			<point x="170" y="131"/>
			<point x="145" y="-422"/>
			<point x="145" y="-450" type="curve" smooth="yes"/>
		</contour>
		<contour>
			<point x="190" y="862" type="curve" smooth="yes"/>
			<point x="145" y="862"/>
			<point x="111" y="826"/>
			<point x="111" y="782" type="curve" smooth="yes"/>
			<point x="111" y="738"/>
			<point x="145" y="702"/>
			<point x="190" y="702" type="curve" smooth="yes"/>
			<point x="235" y="702"/>
			<point x="269" y="738"/>
			<point x="269" y="782" type="curve" smooth="yes"/>
			<point x="269" y="826"/>
			<point x="235" y="862"/>
		</contour>
	</outline>
</glyph>
<glyph name="currency" format="2">
	<unicode hex="00A4"/>
	<advance width="860"/>
	<outline>
		<contour>
			<point x="162" y="731" type="line"/>
			<point x="131" y="700" type="line"/>
			<point x="249" y="582" type="line"/>
			<point x="280" y="613" type="line"/>
		</contour>
		<contour>
			<point x="131" y="166" type="line"/>
			<point x="162" y="135" type="line"/>
			<point x="284" y="257" type="line"/>
			<point x="253" y="288" type="line"/>
		</contour>
		<contour>
			<point x="432" y="703" type="curve" smooth="yes"/>
			<point x="276" y="703"/>
			<point x="164" y="592"/>
			<point x="164" y="436" type="curve" smooth="yes"/>
			<point x="164" y="280"/>
			<point x="276" y="169"/>
			<point x="432" y="169" type="curve" smooth="yes"/>
			<point x="588" y="169"/>
			<point x="700" y="280"/>
			<point x="700" y="436" type="curve" smooth="yes"/>
			<point x="700" y="592"/>
			<point x="588" y="703"/>
		</contour>
		<contour>
			<point x="432" y="209" type="curve" smooth="yes"/>
			<point x="302" y="209"/>
			<point x="210" y="300"/>
			<point x="210" y="436" type="curve" smooth="yes"/>
			<point x="210" y="572"/>
			<point x="302" y="663"/>
			<point x="432" y="663" type="curve" smooth="yes"/>
			<point x="562" y="663"/>
			<point x="654" y="572"/>
			<point x="654" y="436" type="curve" smooth="yes"/>
			<point x="654" y="300"/>
			<point x="562" y="209"/>
		</contour>
		<contour>
			<point x="727" y="700" type="line"/>
			<point x="696" y="731" type="line"/>
			<point x="584" y="619" type="line"/>
			<point x="615" y="588" type="line"/>
		</contour>
		<contour>
			<point x="727" y="166" type="line"/>
			<point x="612" y="281" type="line"/>
			<point x="581" y="250" type="line"/>
			<point x="696" y="135" type="line"/>
		</contour>
	</outline>
</glyph>
<glyph name="brokenbar" format="2">
	<unicode hex="00A6"/>
	<advance width="440"/>
	<outline>
		<contour>
			<point x="247" y="660" type="line"/>
			<point x="247" y="1470" type="line"/>
			<point x="193" y="1470" type="line"/>
			<point x="193" y="660" type="line"/>
		</contour>
		<contour>
			<point x="193" y="-530" type="line"/>
			<point x="247" y="-530" type="line"/>
			<point x="247" y="280" type="line"/>
			<point x="193" y="280" type="line"/>
		</contour>
	</outline>
</glyph>
<glyph name="section" format="2">
	<unicode hex="00A7"/>
	<advance width="984"/>
	<outline>
		<contour>
			<point x="424" y="-275" type="curve" smooth="yes"/>
			<point x="639.1842105263" y="-275"/>
			<point x="794" y="-153.4690553746"/>
			<point x="794" y="12" type="curve" smooth="yes"/>
			<point x="794" y="409"/>
			<point x="150" y="254"/>
			<point x="150" y="592" type="curve" smooth="yes"/>
			<point x="150" y="713.1056910569"/>
			<point x="225.1450915609" y="817.7673718533"/>
			<point x="373" y="858" type="curve"/>
			<point x="353" y="881" type="line"/>
			<point x="164.8446210992" y="823.6478256826"/>
			<point x="84" y="714.014084507"/>
			<point x="84" y="577" type="curve" smooth="yes"/>
			<point x="84" y="186"/>
			<point x="730" y="325"/>
			<point x="730" y="-4" type="curve" smooth="yes"/>
			<point x="730" y="-153"/>
			<point x="612.0666666667" y="-239"/>
			<point x="440" y="-239" type="curve" smooth="yes"/>
			<point x="299" y="-239"/>
			<point x="276" y="-89"/>
			<point x="192" y="-89" type="curve" smooth="yes"/>
			<point x="155" y="-89"/>
			<point x="132" y="-114"/>
			<point x="132" y="-147" type="curve" smooth="yes"/>
			<point x="132" y="-204"/>
			<point x="214" y="-275"/>
		</contour>
		<contour>
			<point x="834" y="533" type="curve" smooth="yes"/>
			<point x="834" y="408.6790123457"/>
			<point x="734" y="294"/>
			<point x="566" y="268" type="curve"/>
			<point x="597" y="244" type="line"/>
			<point x="787" y="279"/>
			<point x="900" y="414.0694444444"/>
			<point x="900" y="554" type="curve" smooth="yes"/>
			<point x="900" y="946"/>
			<point x="262" y="807"/>
			<point x="262" y="1109" type="curve" smooth="yes"/>
			<point x="262" y="1238"/>
			<point x="359" y="1324"/>
			<point x="527" y="1324" type="curve" smooth="yes"/>
			<point x="668" y="1324"/>
			<point x="691" y="1174"/>
			<point x="775" y="1174" type="curve" smooth="yes"/>
			<point x="812" y="1174"/>
			<point x="835" y="1199"/>
			<point x="835" y="1232" type="curve" smooth="yes"/>
			<point x="835" y="1289"/>
			<point x="753" y="1360"/>
			<point x="543" y="1360" type="curve" smooth="yes"/>
			<point x="333" y="1360"/>
			<point x="197" y="1253"/>
			<point x="197" y="1090" type="curve" smooth="yes"/>
			<point x="197" y="720"/>
			<point x="834" y="873"/>
		</contour>
	</outline>
</glyph>
<glyph name="copyright" format="2">
	<unicode hex="00A9"/>
	<advance width="1606"/>
	<outline>
		<contour>
			<point x="803" y="1360" type="curve" smooth="yes"/>
			<point x="397" y="1360"/>
			<point x="116" y="1074"/>
			<point x="116" y="670" type="curve" smooth="yes"/>
			<point x="116" y="266"/>
			<point x="397" y="-20"/>
			<point x="803" y="-20" type="curve" smooth="yes"/>
			<point x="1209" y="-20"/>
			<point x="1490" y="266"/>
			<point x="1490" y="670" type="curve" smooth="yes"/>
			<point x="1490" y="1074"/>
			<point x="1209" y="1360"/>
		</contour>
		<contour>
			<point x="803" y="1318" type="curve" smooth="yes"/>
			<point x="1173" y="1318"/>
			<point x="1437" y="1051"/>
			<point x="1437" y="670" type="curve" smooth="yes"/>
			<point x="1437" y="289"/>
			<point x="1173" y="22"/>
			<point x="803" y="22" type="curve" smooth="yes"/>
			<point x="433" y="22"/>
			<point x="169" y="289"/>
			<point x="169" y="670" type="curve" smooth="yes"/>
			<point x="169" y="1051"/>
			<point x="433" y="1318"/>
		</contour>
		<contour>
			<point x="862" y="332" type="curve" smooth="yes"/>
			<point x="682" y="332"/>
			<point x="534" y="461"/>
			<point x="534" y="690" type="curve" smooth="yes"/>
			<point x="534" y="900"/>
			<point x="655" y="1015"/>
			<point x="837" y="1015" type="curve" smooth="yes"/>
			<point x="907" y="1015"/>
			<point x="965" y="1003"/>
			<point x="1041" y="960" type="curve"/>
			<point x="993" y="1016" type="line"/>
			<point x="1076" y="828" type="line"/>
			<point x="1100" y="835" type="line"/>
			<point x="1059" y="1082" type="line"/>
			<point x="1047" y="1082" type="line"/>
			<point x="1007" y="1038" type="line"/>
			<point x="1048" y="1032" type="line"/>
			<point x="980" y="1055"/>
			<point x="925" y="1065"/>
			<point x="864" y="1065" type="curve" smooth="yes"/>
			<point x="609" y="1065"/>
			<point x="450" y="912"/>
			<point x="450" y="675" type="curve" smooth="yes"/>
			<point x="450" y="426"/>
			<point x="627" y="286"/>
			<point x="861" y="286" type="curve" smooth="yes"/>
			<point x="938" y="286"/>
			<point x="1022" y="301"/>
			<point x="1078" y="326" type="curve"/>
			<point x="1104" y="488" type="line"/>
			<point x="1078" y="488" type="line"/>
			<point x="1002" y="322" type="line"/>
			<point x="1047" y="376" type="line"/>
			<point x="994" y="346"/>
			<point x="922" y="332"/>
		</contour>
	</outline>
</glyph>
<glyph name="ordfeminine" format="2">
	<unicode hex="00AA"/>
	<advance width="835"/>
	<outline>
		<contour>
			<point x="136" y="485" type="line"/>
			<point x="713" y="485" type="line"/>
			<point x="713" y="534" type="line"/>
			<point x="136" y="534" type="line"/>
		</contour>
		<contour>
			<point x="565" y="1073" type="curve"/>
			<point x="567" y="1103" type="line"/>
			<point x="201" y="1009"/>
			<point x="145" y="941"/>
			<point x="145" y="838" type="curve" smooth="yes"/>
			<point x="145" y="733"/>
			<point x="220" y="679"/>
			<point x="325" y="679" type="curve" smooth="yes"/>
			<point x="421" y="679"/>
			<point x="498" y="735"/>
			<point x="536" y="853" type="curve"/>
			<point x="531" y="847" type="line"/>
			<point x="528" y="720"/>
			<point x="557" y="683"/>
			<point x="625" y="683" type="curve" smooth="yes"/>
			<point x="662" y="683"/>
			<point x="692" y="694"/>
			<point x="729" y="732" type="curve"/>
			<point x="729" y="752" type="line"/>
			<point x="699" y="733"/>
			<point x="679" y="729"/>
			<point x="656" y="729" type="curve" smooth="yes"/>
			<point x="617" y="729"/>
			<point x="598" y="752"/>
			<point x="598" y="811" type="curve" smooth="yes"/>
			<point x="598" y="1190" type="line" smooth="yes"/>
			<point x="598" y="1296"/>
			<point x="550" y="1360"/>
			<point x="409" y="1360" type="curve" smooth="yes"/>
			<point x="297" y="1360"/>
			<point x="148" y="1269"/>
			<point x="148" y="1215" type="curve" smooth="yes"/>
			<point x="148" y="1197"/>
			<point x="163" y="1183"/>
			<point x="188" y="1183" type="curve" smooth="yes"/>
			<point x="210" y="1183"/>
			<point x="227" y="1187"/>
			<point x="241" y="1203" type="curve" smooth="yes"/>
			<point x="255" y="1220"/>
			<point x="266" y="1253"/>
			<point x="273" y="1310" type="curve"/>
			<point x="225" y="1279" type="line"/>
			<point x="292" y="1308"/>
			<point x="341" y="1320"/>
			<point x="381" y="1320" type="curve" smooth="yes"/>
			<point x="490" y="1320"/>
			<point x="530" y="1267"/>
			<point x="530" y="1181" type="curve" smooth="yes"/>
			<point x="530" y="894" type="line" smooth="yes"/>
			<point x="530" y="815"/>
			<point x="451" y="732"/>
			<point x="353" y="732" type="curve" smooth="yes"/>
			<point x="274" y="732"/>
			<point x="219" y="773"/>
			<point x="219" y="848" type="curve" smooth="yes"/>
			<point x="219" y="938"/>
			<point x="252" y="991"/>
		</contour>
	</outline>
</glyph>
<glyph name="guillemotleft" format="2">
	<unicode hex="00AB"/>
	<advance width="851"/>
	<outline>
		<contour>
			<point x="141" y="474" type="line"/>
			<point x="141" y="398" type="line"/>
			<point x="448" y="785" type="line"/>
			<point x="421" y="806" type="line"/>
			<point x="73" y="451" type="line"/>
			<point x="73" y="421" type="line"/>
			<point x="421" y="66" type="line"/>
			<point x="448" y="87" type="line"/>
		</contour>
		<contour>
			<point x="461" y="474" type="line"/>
			<point x="461" y="398" type="line"/>
			<point x="768" y="785" type="line"/>
			<point x="741" y="806" type="line"/>
			<point x="393" y="451" type="line"/>
			<point x="393" y="421" type="line"/>
			<point x="741" y="66" type="line"/>
			<point x="768" y="87" type="line"/>
		</contour>
	</outline>
</glyph>
<glyph name="logicalnot" format="2">
	<unicode hex="00AC"/>
	<advance width="1000"/>
	<outline>
		<contour>
			<point x="143" y="648" type="line"/>
			<point x="143" y="604" type="line"/>
			<point x="857" y="604" type="line"/>
			<point x="857" y="648" type="line"/>
		</contour>
		<contour>
			<point x="857" y="648" type="line"/>
			<point x="813" y="648" type="line"/>
			<point x="813" y="224" type="line"/>
			<point x="857" y="224" type="line"/>
		</contour>
	</outline>
</glyph>
<glyph name="registered" format="2">
	<unicode hex="00AE"/>
	<advance width="1091"/>
	<outline>
		<contour>
			<point x="543" y="1360" type="curve" smooth="yes"/>
			<point x="293" y="1360"/>
			<point x="114" y="1183"/>
			<point x="114" y="934" type="curve" smooth="yes"/>
			<point x="114" y="686"/>
			<point x="293" y="506"/>
			<point x="543" y="506" type="curve" smooth="yes"/>
			<point x="795" y="506"/>
			<point x="977" y="686"/>
			<point x="977" y="934" type="curve" smooth="yes"/>
			<point x="977" y="1183"/>
			<point x="795" y="1360"/>
		</contour>
		<contour>
			<point x="543" y="1320" type="curve" smooth="yes"/>
			<point x="768" y="1320"/>
			<point x="930" y="1162"/>
			<point x="930" y="934" type="curve" smooth="yes"/>
			<point x="930" y="708"/>
			<point x="768" y="547"/>
			<point x="543" y="547" type="curve" smooth="yes"/>
			<point x="320" y="547"/>
			<point x="161" y="708"/>
			<point x="161" y="934" type="curve" smooth="yes"/>
			<point x="161" y="1162"/>
			<point x="320" y="1320"/>
		</contour>
		<contour>
			<point x="440" y="964" type="line"/>
			<point x="438" y="929" type="line"/>
			<point x="554" y="929" type="line" smooth="yes"/>
			<point x="586" y="929"/>
			<point x="602" y="923"/>
			<point x="624" y="873" type="curve" smooth="yes"/>
			<point x="664" y="780" type="line" smooth="yes"/>
			<point x="691" y="717"/>
			<point x="699" y="713"/>
			<point x="786" y="716" type="curve"/>
			<point x="786" y="738" type="line"/>
			<point x="753" y="737"/>
			<point x="742" y="741"/>
			<point x="725" y="782" type="curve" smooth="yes"/>
			<point x="681" y="880" type="line" smooth="yes"/>
			<point x="657" y="933"/>
			<point x="638" y="949"/>
			<point x="581" y="949" type="curve"/>
			<point x="581" y="947" type="line"/>
			<point x="663" y="954"/>
			<point x="705" y="999"/>
			<point x="705" y="1056" type="curve" smooth="yes"/>
			<point x="705" y="1118"/>
			<point x="664" y="1166"/>
			<point x="551" y="1166" type="curve" smooth="yes"/>
			<point x="434" y="1166" type="line"/>
			<point x="436" y="1133" type="line"/>
			<point x="500" y="1133" type="line" smooth="yes"/>
			<point x="607" y="1133"/>
			<point x="643" y="1104"/>
			<point x="643" y="1052" type="curve" smooth="yes"/>
			<point x="643" y="991"/>
			<point x="601" y="964"/>
			<point x="541" y="964" type="curve" smooth="yes"/>
		</contour>
		<contour>
			<point x="415" y="1134" type="line"/>
			<point x="415" y="750" type="line"/>
			<point x="347" y="735" type="line"/>
			<point x="347" y="717" type="line"/>
			<point x="540" y="717" type="line"/>
			<point x="540" y="735" type="line"/>
			<point x="473" y="750" type="line"/>
			<point x="473" y="1166" type="line"/>
			<point x="347" y="1166" type="line"/>
			<point x="347" y="1148" type="line"/>
		</contour>
	</outline>
</glyph>
<glyph name="degree" format="2">
	<unicode hex="00B0"/>
	<advance width="774"/>
	<outline>
		<contour>
			<point x="387" y="1350" type="curve" smooth="yes"/>
			<point x="211" y="1350"/>
			<point x="85" y="1226"/>
			<point x="85" y="1050" type="curve" smooth="yes"/>
			<point x="85" y="874"/>
			<point x="211" y="750"/>
			<point x="387" y="750" type="curve" smooth="yes"/>
			<point x="563" y="750"/>
			<point x="689" y="874"/>
			<point x="689" y="1050" type="curve" smooth="yes"/>
			<point x="689" y="1226"/>
			<point x="563" y="1350"/>
		</contour>
		<contour>
			<point x="387" y="793" type="curve" smooth="yes"/>
			<point x="240" y="793"/>
			<point x="135" y="896"/>
			<point x="135" y="1050" type="curve" smooth="yes"/>
			<point x="135" y="1204"/>
			<point x="240" y="1307"/>
			<point x="387" y="1307" type="curve" smooth="yes"/>
			<point x="534" y="1307"/>
			<point x="639" y="1204"/>
			<point x="639" y="1050" type="curve" smooth="yes"/>
			<point x="639" y="896"/>
			<point x="534" y="793"/>
		</contour>
	</outline>
</glyph>
<glyph name="uni00B2" format="2">
	<unicode hex="00B2"/>
	<advance width="660"/>
	<outline>
		<contour>
			<point x="480" y="618" type="line"/>
			<point x="533" y="656" type="line"/>
			<point x="144" y="656" type="line"/>
			<point x="133" y="610" type="line"/>
			<point x="323" y="816" type="line" smooth="yes"/>
			<point x="478" y="984"/>
			<point x="537" y="1054"/>
			<point x="537" y="1161" type="curve" smooth="yes"/>
			<point x="537" y="1274"/>
			<point x="456" y="1354"/>
			<point x="329" y="1354" type="curve" smooth="yes"/>
			<point x="199" y="1354"/>
			<point x="105" y="1279"/>
			<point x="68" y="1103" type="curve"/>
			<point x="96" y="1097" type="line"/>
			<point x="139" y="1257"/>
			<point x="212" y="1301"/>
			<point x="308" y="1301" type="curve" smooth="yes"/>
			<point x="403" y="1301"/>
			<point x="465" y="1239"/>
			<point x="465" y="1141" type="curve" smooth="yes"/>
			<point x="465" y="1071"/>
			<point x="429" y="989"/>
			<point x="313" y="858" type="curve" smooth="yes"/>
			<point x="84" y="600" type="line"/>
			<point x="84" y="592" type="line"/>
			<point x="494" y="592" type="line"/>
			<point x="544" y="581" type="line"/>
			<point x="554" y="581" type="line"/>
			<point x="597" y="784" type="line"/>
			<point x="577" y="784" type="line"/>
		</contour>
	</outline>
</glyph>
<glyph name="uni00B3" format="2">
	<unicode hex="00B3"/>
	<advance width="613"/>
	<outline>
		<contour>
			<point x="187" y="578" type="curve" smooth="yes"/>
			<point x="404" y="578"/>
			<point x="547" y="693"/>
			<point x="547" y="858" type="curve" smooth="yes"/>
			<point x="547" y="970"/>
			<point x="472" y="1049"/>
			<point x="324" y="1020" type="curve"/>
			<point x="326" y="1008" type="line"/>
			<point x="433" y="1057"/>
			<point x="492" y="1121"/>
			<point x="492" y="1201" type="curve" smooth="yes"/>
			<point x="492" y="1293"/>
			<point x="428" y="1354"/>
			<point x="311" y="1354" type="curve" smooth="yes"/>
			<point x="189" y="1354"/>
			<point x="111" y="1276"/>
			<point x="81" y="1150" type="curve"/>
			<point x="109" y="1145" type="line"/>
			<point x="137" y="1256"/>
			<point x="204" y="1306"/>
			<point x="292" y="1306" type="curve" smooth="yes"/>
			<point x="380" y="1306"/>
			<point x="422" y="1250"/>
			<point x="422" y="1180" type="curve" smooth="yes"/>
			<point x="422" y="1099"/>
			<point x="374" y="1045"/>
			<point x="196" y="978" type="curve"/>
			<point x="206" y="949" type="line"/>
			<point x="255" y="965" type="line" smooth="yes"/>
			<point x="400" y="1012"/>
			<point x="479" y="943"/>
			<point x="479" y="833" type="curve" smooth="yes"/>
			<point x="479" y="713"/>
			<point x="396" y="625"/>
			<point x="269" y="625" type="curve" smooth="yes"/>
			<point x="189" y="625"/>
			<point x="163" y="679"/>
			<point x="120" y="679" type="curve" smooth="yes"/>
			<point x="87" y="679"/>
			<point x="72" y="660"/>
			<point x="72" y="637" type="curve" smooth="yes"/>
			<point x="72" y="602"/>
			<point x="99" y="578"/>
		</contour>
	</outline>
</glyph>
<glyph name="uni00B5" format="2">
	<unicode hex="00B5"/>
	<advance width="1063"/>
	<outline>
		<contour>
			<point x="192" y="852" type="line"/>
			<point x="192" y="-520" type="line"/>
			<point x="202" y="-520" type="line"/>
			<point x="279" y="-514" type="line"/>
			<point x="215" y="168" type="line"/>
			<point x="209" y="149" type="line"/>
			<point x="224" y="12"/>
			<point x="348" y="-20"/>
			<point x="452" y="-20" type="curve" smooth="yes"/>
			<point x="545" y="-20"/>
			<point x="623" y="1"/>
			<point x="794" y="154" type="curve"/>
			<point x="774" y="164" type="line"/>
			<point x="663" y="73"/>
			<point x="561" y="49"/>
			<point x="494" y="49" type="curve" smooth="yes"/>
			<point x="315" y="49"/>
			<point x="262" y="102"/>
			<point x="262" y="293" type="curve" smooth="yes"/>
			<point x="262" y="852" type="line"/>
		</contour>
		<contour>
			<point x="837" y="149" type="curve" smooth="yes"/>
			<point x="837" y="852" type="line"/>
			<point x="767" y="852" type="line"/>
			<point x="767" y="160" type="line" smooth="yes"/>
			<point x="767" y="19"/>
			<point x="801" y="-13"/>
			<point x="893" y="-13" type="curve" smooth="yes"/>
			<point x="942" y="-13"/>
			<point x="987" y="6"/>
			<point x="1034" y="54" type="curve"/>
			<point x="1034" y="75" type="line"/>
			<point x="992" y="44"/>
			<point x="962" y="36"/>
			<point x="929" y="36" type="curve" smooth="yes"/>
			<point x="872" y="36"/>
			<point x="837" y="66"/>
		</contour>
	</outline>
</glyph>
<glyph name="paragraph" format="2">
	<unicode hex="00B6"/>
	<advance width="1170"/>
	<outline>
		<contour>
			<point x="671" y="1340" type="line"/>
			<point x="435" y="1340" type="line" smooth="yes"/>
			<point x="159" y="1340"/>
			<point x="57" y="1194"/>
			<point x="57" y="1009" type="curve" smooth="yes"/>
			<point x="57" y="822"/>
			<point x="158" y="677"/>
			<point x="434" y="677" type="curve" smooth="yes"/>
			<point x="671" y="677" type="line"/>
		</contour>
		<contour>
			<point x="695" y="-255" type="line"/>
			<point x="695" y="1280" type="line"/>
			<point x="865" y="1280" type="line"/>
			<point x="865" y="1340" type="line"/>
			<point x="631" y="1340" type="line"/>
			<point x="631" y="-255" type="line"/>
		</contour>
		<contour>
			<point x="915" y="-255" type="line"/>
			<point x="915" y="1282" type="line"/>
			<point x="1098" y="1310" type="line"/>
			<point x="1098" y="1340" type="line"/>
			<point x="851" y="1340" type="line"/>
			<point x="851" y="-255" type="line"/>
		</contour>
	</outline>
</glyph>
<glyph name="uni00B9" format="2">
  <advance width="502"/>
  <unicode hex="00B9"/>
  <outline>
    <contour>
      <point x="259.0" y="639.0" type="line"/>
      <point x="116.0" y="613.0" type="line"/>
      <point x="116.0" y="592.0" type="line"/>
      <point x="460.0" y="592.0" type="line"/>
      <point x="460.0" y="613.0" type="line"/>
      <point x="329.0" y="639.0" type="line"/>
      <point x="329.0" y="1345.0" type="line"/>
      <point x="313.0" y="1345.0" type="line"/>
      <point x="43.0" y="1196.0" type="line"/>
      <point x="50.0" y="1174.0" type="line"/>
      <point x="273.0" y="1256.0" type="line"/>
      <point x="259.0" y="1264.0" type="line"/>
    </contour>
  </outline>
</glyph>
<glyph name="ordmasculine" format="2">
	<unicode hex="00BA"/>
	<advance width="885"/>
	<outline>
		<contour>
			<point x="154" y="485" type="line"/>
			<point x="731" y="485" type="line"/>
			<point x="731" y="534" type="line"/>
			<point x="154" y="534" type="line"/>
		</contour>
		<contour>
			<point x="446" y="713" type="curve" smooth="yes"/>
			<point x="297" y="713"/>
			<point x="198" y="839"/>
			<point x="198" y="1030" type="curve" smooth="yes"/>
			<point x="198" y="1229"/>
			<point x="304" y="1327"/>
			<point x="439" y="1327" type="curve" smooth="yes"/>
			<point x="587" y="1327"/>
			<point x="687" y="1200"/>
			<point x="687" y="1009" type="curve" smooth="yes"/>
			<point x="687" y="810"/>
			<point x="580" y="713"/>
		</contour>
		<contour>
			<point x="442" y="679" type="curve" smooth="yes"/>
			<point x="626" y="679"/>
			<point x="759" y="813"/>
			<point x="759" y="1027" type="curve" smooth="yes"/>
			<point x="759" y="1230"/>
			<point x="624" y="1360"/>
			<point x="443" y="1360" type="curve" smooth="yes"/>
			<point x="259" y="1360"/>
			<point x="126" y="1226"/>
			<point x="126" y="1013" type="curve" smooth="yes"/>
			<point x="126" y="809"/>
			<point x="261" y="679"/>
		</contour>
	</outline>
</glyph>
<glyph name="guillemotright" format="2">
  <advance width="876"/>
  <unicode hex="00BB"/>
  <outline>
    <contour>
      <point x="398.0" y="399.0" type="line"/>
      <point x="398.0" y="475.0" type="line"/>
      <point x="91.0" y="88.0" type="line"/>
      <point x="118.0" y="67.0" type="line"/>
      <point x="466.0" y="422.0" type="line"/>
      <point x="466.0" y="452.0" type="line"/>
      <point x="118.0" y="807.0" type="line"/>
      <point x="91.0" y="786.0" type="line"/>
    </contour>
    <contour>
      <point x="718.0" y="399.0" type="line"/>
      <point x="718.0" y="475.0" type="line"/>
      <point x="411.0" y="88.0" type="line"/>
      <point x="438.0" y="67.0" type="line"/>
      <point x="786.0" y="422.0" type="line"/>
      <point x="786.0" y="452.0" type="line"/>
      <point x="438.0" y="807.0" type="line"/>
      <point x="411.0" y="786.0" type="line"/>
    </contour>
  </outline>
</glyph>
<glyph name="questiondown" format="2">
	<unicode hex="00BF"/>
	<advance width="856"/>
	<outline>
		<contour>
			<point x="609" y="-512" type="curve" smooth="yes"/>
			<point x="766" y="-512"/>
			<point x="822" y="-482"/>
			<point x="822" y="-432" type="curve" smooth="yes"/>
			<point x="822" y="-405"/>
			<point x="798" y="-377"/>
			<point x="758" y="-377" type="curve" smooth="yes"/>
			<point x="696" y="-377"/>
			<point x="679" y="-454"/>
			<point x="542" y="-454" type="curve" smooth="yes"/>
			<point x="326" y="-454"/>
			<point x="174" y="-330"/>
			<point x="174" y="-125" type="curve" smooth="yes"/>
			<point x="174" y="33"/>
			<point x="280" y="146"/>
			<point x="578" y="126" type="curve"/>
			<point x="539" y="452" type="line"/>
			<point x="511" y="452" type="line"/>
			<point x="511" y="145" type="line"/>
			<point x="545" y="202" type="line"/>
			<point x="220" y="214"/>
			<point x="118" y="78"/>
			<point x="118" y="-103" type="curve" smooth="yes"/>
			<point x="118" y="-330"/>
			<point x="329" y="-512"/>
		</contour>
		<contour>
			<point x="524" y="703" type="curve" smooth="yes"/>
			<point x="569" y="703"/>
			<point x="603" y="739"/>
			<point x="603" y="783" type="curve" smooth="yes"/>
			<point x="603" y="827"/>
			<point x="569" y="862"/>
			<point x="524" y="862" type="curve" smooth="yes"/>
			<point x="478" y="862"/>
			<point x="444" y="827"/>
			<point x="444" y="783" type="curve" smooth="yes"/>
			<point x="444" y="739"/>
			<point x="478" y="703"/>
		</contour>
	</outline>
</glyph>
<glyph name="AE" format="2">
	<unicode hex="00C6"/>
	<advance width="1899"/>
	<outline>
		<contour>
			<point x="484" y="523" type="line"/>
			<point x="985" y="523" type="line"/>
			<point x="985" y="569" type="line"/>
			<point x="484" y="569" type="line"/>
		</contour>
		<contour>
			<point x="947" y="1340" type="line"/>
			<point x="146" y="52" type="line"/>
			<point x="-27" y="22" type="line"/>
			<point x="-27" y="0" type="line"/>
			<point x="371" y="0" type="line"/>
			<point x="371" y="22" type="line"/>
			<point x="199" y="52" type="line"/>
			<point x="978" y="1306" type="line"/>
			<point x="971" y="1340" type="line"/>
		</contour>
		<contour>
			<point x="749" y="1318" type="line"/>
			<point x="921" y="1288" type="line"/>
			<point x="997" y="1340" type="line"/>
			<point x="749" y="1340" type="line"/>
		</contour>
		<contour>
			<point x="1534" y="969" type="line"/>
			<point x="1509" y="969" type="line"/>
			<point x="1457" y="729" type="line"/>
			<point x="1015" y="721" type="line"/>
			<point x="1015" y="681" type="line"/>
			<point x="1457" y="676" type="line"/>
			<point x="1509" y="434" type="line"/>
			<point x="1534" y="434" type="line"/>
			<point x="1520" y="701" type="line"/>
		</contour>
		<contour>
			<point x="1786" y="1006" type="line"/>
			<point x="1736" y="1377" type="line"/>
			<point x="1726" y="1377" type="line"/>
			<point x="1651" y="1340" type="line"/>
			<point x="963" y="1340" type="line"/>
			<point x="963" y="1294" type="line"/>
			<point x="1697" y="1294" type="line"/>
			<point x="1639" y="1313" type="line"/>
			<point x="1763" y="1002" type="line"/>
		</contour>
		<contour>
			<point x="1663" y="17" type="line"/>
			<point x="1717" y="46" type="line"/>
			<point x="963" y="46" type="line"/>
			<point x="963" y="0" type="line"/>
			<point x="1678" y="0" type="line"/>
			<point x="1752" y="-46" type="line"/>
			<point x="1760" y="-46" type="line"/>
			<point x="1837" y="338" type="line"/>
			<point x="1815" y="345" type="line"/>
		</contour>
		<contour>
			<point x="789" y="0" type="line"/>
			<point x="1037" y="0" type="line"/>
			<point x="1037" y="1340" type="line"/>
			<point x="961" y="1340" type="line"/>
			<point x="961" y="52" type="line"/>
			<point x="789" y="22" type="line"/>
		</contour>
	</outline>
	<anchor name="UCtop" x="1002" y="1340"/>
	<anchor name="bottom" x="1002" y="0"/>
</glyph>
<glyph name="Ccedilla" format="2">
  <advance width="1334.0"/>
  <unicode hex="00C7"/>
  <outline>
    <contour>
      <point x="821.0" y="19.0" type="curve" smooth="yes"/>
      <point x="472.0" y="19.0"/>
      <point x="182.0" y="258.0"/>
      <point x="182.0" y="694.0" type="curve" smooth="yes"/>
      <point x="182.0" y="1098.0"/>
      <point x="422.0" y="1314.0"/>
      <point x="771.0" y="1314.0" type="curve" smooth="yes"/>
      <point x="905.0" y="1314.0"/>
      <point x="1014.0" y="1280.0"/>
      <point x="1164.0" y="1194.0" type="curve"/>
      <point x="1079.0" y="1278.0" type="line"/>
      <point x="1218.0" y="954.0" type="line"/>
      <point x="1243.0" y="959.0" type="line"/>
      <point x="1170.0" y="1386.0" type="line"/>
      <point x="1162.0" y="1386.0" type="line"/>
      <point x="1104.0" y="1309.0" type="line"/>
      <point x="1161.0" y="1297.0" type="line"/>
      <point x="1038.0" y="1339.0"/>
      <point x="937.0" y="1360.0"/>
      <point x="826.0" y="1360.0" type="curve" smooth="yes"/>
      <point x="381.0" y="1360.0"/>
      <point x="100.0" y="1090.0"/>
      <point x="100.0" y="670.0" type="curve" smooth="yes"/>
      <point x="100.0" y="227.0"/>
      <point x="415.0" y="-20.0"/>
      <point x="824.0" y="-20.0" type="curve" smooth="yes"/>
      <point x="963.0" y="-20.0"/>
      <point x="1109.0" y="9.0"/>
      <point x="1207.0" y="52.0" type="curve"/>
      <point x="1251.0" y="324.0" type="line"/>
      <point x="1225.0" y="324.0" type="line"/>
      <point x="1099.0" y="39.0" type="line"/>
      <point x="1163.0" y="105.0" type="line"/>
      <point x="1067.0" y="48.0"/>
      <point x="938.0" y="19.0"/>
    </contour>
    <contour>
      <point x="669.0" y="-530.0" type="curve" smooth="yes"/>
      <point x="810.0" y="-530.0"/>
      <point x="905.0" y="-439.0"/>
      <point x="905.0" y="-332.0" type="curve" smooth="yes"/>
      <point x="905.0" y="-262.0"/>
      <point x="850.0" y="-195.0"/>
      <point x="666.0" y="-146.0" type="curve"/>
      <point x="678.0" y="-168.0" type="line"/>
      <point x="801.0" y="0.0" type="line"/>
      <point x="756.0" y="0.0" type="line"/>
      <point x="610.0" y="-206.0" type="line"/>
      <point x="610.0" y="-210.0" type="line"/>
      <point x="791.0" y="-254.0"/>
      <point x="840.0" y="-302.0"/>
      <point x="840.0" y="-366.0" type="curve" smooth="yes"/>
      <point x="840.0" y="-435.0"/>
      <point x="788.0" y="-484.0"/>
      <point x="702.0" y="-484.0" type="curve" smooth="yes"/>
      <point x="627.0" y="-484.0"/>
      <point x="612.0" y="-422.0"/>
      <point x="576.0" y="-422.0" type="curve" smooth="yes"/>
      <point x="548.0" y="-422.0"/>
      <point x="532.0" y="-443.0"/>
      <point x="532.0" y="-466.0" type="curve" smooth="yes"/>
      <point x="532.0" y="-502.0"/>
      <point x="560.0" y="-530.0"/>
    </contour>
  </outline>
</glyph>
<glyph name="multiply" format="2">
	<unicode hex="00D7"/>
	<advance width="1000"/>
	<outline>
		<contour>
			<point x="202" y="166" type="line"/>
			<point x="233" y="135" type="line"/>
			<point x="798" y="700" type="line"/>
			<point x="767" y="731" type="line"/>
		</contour>
		<contour>
			<point x="202" y="700" type="line"/>
			<point x="767" y="135" type="line"/>
			<point x="798" y="166" type="line"/>
			<point x="233" y="731" type="line"/>
		</contour>
	</outline>
</glyph>
<glyph name="Oslash" format="2">
	<unicode hex="00D8"/>
	<advance width="1513"/>
	<outline>
		<contour>
			<point x="318" y="223" type="line"/>
			<point x="299" y="203" type="line"/>
			<point x="116" y="0" type="line"/>
			<point x="190" y="0" type="line"/>
			<point x="337" y="163" type="line"/>
			<point x="354" y="183" type="line"/>
			<point x="1196" y="1117" type="line"/>
			<point x="1215" y="1137" type="line"/>
			<point x="1398" y="1340" type="line"/>
			<point x="1324" y="1340" type="line"/>
			<point x="1177" y="1177" type="line"/>
			<point x="1160" y="1157" type="line"/>
		</contour>
		<contour>
			<point x="746" y="1360" type="curve" smooth="yes"/>
			<point x="382" y="1360"/>
			<point x="116" y="1069"/>
			<point x="116" y="669" type="curve" smooth="yes"/>
			<point x="116" y="271"/>
			<point x="396" y="-20"/>
			<point x="768" y="-20" type="curve" smooth="yes"/>
			<point x="1132" y="-20"/>
			<point x="1398" y="271"/>
			<point x="1398" y="671" type="curve" smooth="yes"/>
			<point x="1398" y="1069"/>
			<point x="1118" y="1360"/>
		</contour>
		<contour>
			<point x="765" y="23" type="curve" smooth="yes"/>
			<point x="435" y="23"/>
			<point x="198" y="273"/>
			<point x="198" y="681" type="curve" smooth="yes"/>
			<point x="198" y="1050"/>
			<point x="400" y="1317"/>
			<point x="749" y="1317" type="curve" smooth="yes"/>
			<point x="1079" y="1317"/>
			<point x="1316" y="1067"/>
			<point x="1316" y="659" type="curve" smooth="yes"/>
			<point x="1316" y="290"/>
			<point x="1114" y="23"/>
		</contour>
	</outline>
	<anchor name="UCtop" x="757" y="1340"/>
	<anchor name="bottom" x="757" y="0"/>
</glyph>
<glyph name="Thorn" format="2">
	<unicode hex="00DE"/>
	<advance width="1138"/>
	<outline>
		<contour>
			<point x="977" y="692" type="curve" smooth="yes"/>
			<point x="977" y="490"/>
			<point x="860" y="366"/>
			<point x="518" y="366" type="curve" smooth="yes"/>
			<point x="281" y="366" type="line"/>
			<point x="281" y="320" type="line"/>
			<point x="562" y="320" type="line" smooth="yes"/>
			<point x="922" y="320"/>
			<point x="1055" y="483"/>
			<point x="1055" y="692" type="curve" smooth="yes"/>
			<point x="1055" y="901"/>
			<point x="922" y="1064"/>
			<point x="562" y="1064" type="curve" smooth="yes"/>
			<point x="281" y="1064" type="line"/>
			<point x="281" y="1018" type="line"/>
			<point x="518" y="1018" type="line" smooth="yes"/>
			<point x="860" y="1018"/>
			<point x="977" y="894"/>
		</contour>
		<contour>
			<point x="491" y="22" type="line"/>
			<point x="319" y="52" type="line"/>
			<point x="319" y="1288" type="line"/>
			<point x="491" y="1318" type="line"/>
			<point x="491" y="1340" type="line"/>
			<point x="71" y="1340" type="line"/>
			<point x="71" y="1318" type="line"/>
			<point x="243" y="1288" type="line"/>
			<point x="243" y="52" type="line"/>
			<point x="71" y="22" type="line"/>
			<point x="71" y="0" type="line"/>
			<point x="491" y="0" type="line"/>
		</contour>
	</outline>
</glyph>
<glyph name="germandbls" format="2">
	<unicode hex="00DF"/>
	<advance width="1159"/>
	<outline>
		<contour>
			<point x="216" y="925" type="curve" smooth="yes"/>
			<point x="216" y="49" type="line"/>
			<point x="64" y="23" type="line"/>
			<point x="64" y="0" type="line"/>
			<point x="428" y="0" type="line"/>
			<point x="428" y="23" type="line"/>
			<point x="286" y="49" type="line"/>
			<point x="286" y="966" type="line" smooth="yes"/>
			<point x="286" y="1255"/>
			<point x="430" y="1375"/>
			<point x="625" y="1375" type="curve" smooth="yes"/>
			<point x="781" y="1375"/>
			<point x="851" y="1294"/>
			<point x="851" y="1201" type="curve" smooth="yes"/>
			<point x="851" y="961"/>
			<point x="580" y="943"/>
			<point x="580" y="734" type="curve" smooth="yes"/>
			<point x="580" y="448"/>
			<point x="1027" y="539"/>
			<point x="1027" y="246" type="curve" smooth="yes"/>
			<point x="1027" y="97"/>
			<point x="931" y="16"/>
			<point x="792" y="16" type="curve" smooth="yes"/>
			<point x="738" y="16"/>
			<point x="684" y="23"/>
			<point x="641" y="38" type="curve"/>
			<point x="661" y="10" type="line"/>
			<point x="576" y="253" type="line"/>
			<point x="556" y="253" type="line"/>
			<point x="576" y="14" type="line"/>
			<point x="631" y="-8"/>
			<point x="696" y="-20"/>
			<point x="796" y="-20" type="curve" smooth="yes"/>
			<point x="966" y="-20"/>
			<point x="1087" y="95"/>
			<point x="1087" y="268" type="curve" smooth="yes"/>
			<point x="1087" y="605"/>
			<point x="642" y="541"/>
			<point x="642" y="750" type="curve" smooth="yes"/>
			<point x="642" y="956"/>
			<point x="930" y="982"/>
			<point x="930" y="1205" type="curve" smooth="yes"/>
			<point x="930" y="1312"/>
			<point x="853" y="1419"/>
			<point x="655" y="1419" type="curve" smooth="yes"/>
			<point x="449" y="1419"/>
			<point x="216" y="1303"/>
		</contour>
		<contour>
			<point x="231" y="859" type="line"/>
			<point x="27" y="826" type="line"/>
			<point x="27" y="806" type="line"/>
			<point x="218" y="790" type="line"/>
		</contour>
	</outline>
</glyph>
<glyph name="ae" format="2">
	<unicode hex="00E6"/>
	<advance width="1366"/>
	<outline>
		<contour>
			<point x="393" y="812" type="curve" smooth="yes"/>
			<point x="536" y="812"/>
			<point x="588" y="742"/>
			<point x="588" y="625" type="curve" smooth="yes"/>
			<point x="588" y="292" type="line" smooth="yes"/>
			<point x="588" y="153"/>
			<point x="477" y="36"/>
			<point x="345" y="36" type="curve" smooth="yes"/>
			<point x="234" y="36"/>
			<point x="167" y="93"/>
			<point x="167" y="196" type="curve" smooth="yes"/>
			<point x="167" y="318"/>
			<point x="211" y="385"/>
			<point x="627" y="503" type="curve"/>
			<point x="627" y="534" type="line"/>
			<point x="153" y="408"/>
			<point x="92" y="317"/>
			<point x="92" y="187" type="curve" smooth="yes"/>
			<point x="92" y="48"/>
			<point x="188" y="-20"/>
			<point x="320" y="-20" type="curve" smooth="yes"/>
			<point x="474" y="-20"/>
			<point x="588" y="82"/>
			<point x="605" y="255" type="curve"/>
			<point x="591" y="255" type="line"/>
			<point x="628" y="89"/>
			<point x="788.3081232493" y="-20"/>
			<point x="971" y="-20" type="curve" smooth="yes"/>
			<point x="1099" y="-20"/>
			<point x="1177" y="26"/>
			<point x="1298" y="132" type="curve"/>
			<point x="1282" y="153" type="line"/>
			<point x="1181" y="71"/>
			<point x="1108" y="46"/>
			<point x="1023" y="46" type="curve" smooth="yes"/>
			<point x="795" y="46"/>
			<point x="658" y="197"/>
			<point x="658" y="438" type="curve" smooth="yes"/>
			<point x="658" y="695"/>
			<point x="770" y="827"/>
			<point x="961" y="827" type="curve" smooth="yes"/>
			<point x="1104" y="827"/>
			<point x="1188" y="715"/>
			<point x="1200" y="517" type="curve"/>
			<point x="1230" y="563" type="line"/>
			<point x="648" y="534" type="line"/>
			<point x="648" y="505" type="line"/>
			<point x="1286" y="505" type="line"/>
			<point x="1272" y="706"/>
			<point x="1185" y="872"/>
			<point x="973" y="872" type="curve" smooth="yes"/>
			<point x="819" y="872"/>
			<point x="701" y="792"/>
			<point x="637" y="667" type="curve"/>
			<point x="654" y="667" type="line"/>
			<point x="648.0002166252" y="786.9956674966"/>
			<point x="589.1092436975" y="862"/>
			<point x="420" y="862" type="curve" smooth="yes"/>
			<point x="288" y="862"/>
			<point x="97" y="744"/>
			<point x="97" y="682" type="curve" smooth="yes"/>
			<point x="97" y="663"/>
			<point x="114" y="647"/>
			<point x="142" y="647" type="curve" smooth="yes"/>
			<point x="164" y="647"/>
			<point x="189" y="654"/>
			<point x="202" y="668" type="curve" smooth="yes"/>
			<point x="220" y="686"/>
			<point x="227" y="724"/>
			<point x="239" y="784" type="curve"/>
			<point x="179" y="754" type="line"/>
			<point x="275" y="796"/>
			<point x="340" y="812"/>
		</contour>
	</outline>
	<anchor name="top" x="695" y="852"/>
	<anchor name="bottom" x="695" y="0"/>
</glyph>
<glyph name="ccedilla" format="2">
	<unicode hex="00E7"/>
	<advance width="847"/>
	<outline>
		<contour>
			<point x="516" y="872" type="curve" smooth="yes"/>
			<point x="235" y="872"/>
			<point x="80" y="664"/>
			<point x="80" y="418" type="curve" smooth="yes"/>
			<point x="80" y="153"/>
			<point x="233" y="-20"/>
			<point x="472" y="-20" type="curve" smooth="yes"/>
			<point x="596" y="-20"/>
			<point x="674" y="26"/>
			<point x="795" y="132" type="curve"/>
			<point x="779" y="153" type="line"/>
			<point x="678" y="67"/>
			<point x="604" y="42"/>
			<point x="511" y="42" type="curve" smooth="yes"/>
			<point x="289" y="42"/>
			<point x="151" y="194"/>
			<point x="151" y="442" type="curve" smooth="yes"/>
			<point x="151" y="699"/>
			<point x="301" y="831"/>
			<point x="472" y="831" type="curve" smooth="yes"/>
			<point x="637" y="831"/>
			<point x="639" y="713"/>
			<point x="726" y="713" type="curve" smooth="yes"/>
			<point x="757" y="713"/>
			<point x="780" y="741"/>
			<point x="780" y="771" type="curve" smooth="yes"/>
			<point x="780" y="827"/>
			<point x="693" y="872"/>
		</contour>
		<contour>
			<point x="371" y="-530" type="curve" smooth="yes"/>
			<point x="512" y="-530"/>
			<point x="607" y="-439"/>
			<point x="607" y="-332" type="curve" smooth="yes"/>
			<point x="607" y="-262"/>
			<point x="552" y="-195"/>
			<point x="368" y="-146" type="curve"/>
			<point x="380" y="-168" type="line"/>
			<point x="503" y="0" type="line"/>
			<point x="458" y="0" type="line"/>
			<point x="312" y="-206" type="line"/>
			<point x="312" y="-210" type="line"/>
			<point x="493" y="-254"/>
			<point x="542" y="-302"/>
			<point x="542" y="-366" type="curve" smooth="yes"/>
			<point x="542" y="-435"/>
			<point x="490" y="-484"/>
			<point x="404" y="-484" type="curve" smooth="yes"/>
			<point x="329" y="-484"/>
			<point x="314" y="-422"/>
			<point x="278" y="-422" type="curve" smooth="yes"/>
			<point x="250" y="-422"/>
			<point x="234" y="-443"/>
			<point x="234" y="-466" type="curve" smooth="yes"/>
			<point x="234" y="-502"/>
			<point x="262" y="-530"/>
		</contour>
	</outline>
</glyph>
<glyph name="eth" format="2">
	<unicode hex="00F0"/>
	<advance width="1013"/>
	<outline>
		<contour>
			<point x="494" y="-20" type="curve" smooth="yes"/>
			<point x="748" y="-20"/>
			<point x="909" y="161"/>
			<point x="909" y="488" type="curve" smooth="yes"/>
			<point x="909" y="926"/>
			<point x="743" y="1230"/>
			<point x="199" y="1417" type="curve"/>
			<point x="181" y="1390" type="line"/>
			<point x="553" y="1255"/>
			<point x="764" y="1042"/>
			<point x="816" y="617" type="curve"/>
			<point x="830" y="624" type="line"/>
			<point x="797" y="768"/>
			<point x="662" y="872"/>
			<point x="495" y="872" type="curve" smooth="yes"/>
			<point x="254" y="872"/>
			<point x="80" y="697"/>
			<point x="80" y="417" type="curve" smooth="yes"/>
			<point x="80" y="150"/>
			<point x="257" y="-20"/>
		</contour>
		<contour>
			<point x="499" y="16" type="curve" smooth="yes"/>
			<point x="298" y="16"/>
			<point x="162" y="184"/>
			<point x="162" y="440" type="curve" smooth="yes"/>
			<point x="162" y="706"/>
			<point x="307" y="836"/>
			<point x="490" y="836" type="curve" smooth="yes"/>
			<point x="691" y="836"/>
			<point x="827" y="668"/>
			<point x="827" y="412" type="curve" smooth="yes"/>
			<point x="827" y="146"/>
			<point x="682" y="16"/>
		</contour>
		<contour>
			<point x="314" y="994" type="line"/>
			<point x="808" y="1362" type="line"/>
			<point x="778" y="1402" type="line"/>
			<point x="284" y="1035" type="line"/>
		</contour>
	</outline>
</glyph>
<glyph name="divide" format="2">
	<unicode hex="00F7"/>
	<advance width="1000"/>
	<outline>
		<contour>
			<point x="500" y="198" type="curve" smooth="yes"/>
			<point x="455" y="198"/>
			<point x="421" y="162"/>
			<point x="421" y="118" type="curve" smooth="yes"/>
			<point x="421" y="74"/>
			<point x="455" y="38"/>
			<point x="500" y="38" type="curve" smooth="yes"/>
			<point x="545" y="38"/>
			<point x="579" y="74"/>
			<point x="579" y="118" type="curve" smooth="yes"/>
			<point x="579" y="162"/>
			<point x="545" y="198"/>
		</contour>
		<contour>
			<point x="500" y="822" type="curve" smooth="yes"/>
			<point x="455" y="822"/>
			<point x="421" y="786"/>
			<point x="421" y="742" type="curve" smooth="yes"/>
			<point x="421" y="698"/>
			<point x="455" y="662"/>
			<point x="500" y="662" type="curve" smooth="yes"/>
			<point x="545" y="662"/>
			<point x="579" y="698"/>
			<point x="579" y="742" type="curve" smooth="yes"/>
			<point x="579" y="786"/>
			<point x="545" y="822"/>
		</contour>
		<contour>
			<point x="143" y="456" type="line"/>
			<point x="143" y="412" type="line"/>
			<point x="857" y="412" type="line"/>
			<point x="857" y="456" type="line"/>
		</contour>
	</outline>
</glyph>
<glyph name="oslash" format="2">
	<unicode hex="00F8"/>
	<advance width="1019"/>
	<outline>
		<contour>
			<point x="95" y="0" type="line"/>
			<point x="166" y="0" type="line"/>
			<point x="243" y="87" type="line"/>
			<point x="262" y="112" type="line"/>
			<point x="790" y="703" type="line"/>
			<point x="811" y="725" type="line"/>
			<point x="924" y="852" type="line"/>
			<point x="853" y="852" type="line"/>
			<point x="776" y="765" type="line"/>
			<point x="757" y="740" type="line"/>
			<point x="229" y="149" type="line"/>
			<point x="208" y="127" type="line"/>
		</contour>
		<contour>
			<point x="514" y="16" type="curve" smooth="yes"/>
			<point x="313" y="16"/>
			<point x="177" y="184"/>
			<point x="177" y="440" type="curve" smooth="yes"/>
			<point x="177" y="706"/>
			<point x="322" y="836"/>
			<point x="505" y="836" type="curve" smooth="yes"/>
			<point x="706" y="836"/>
			<point x="842" y="668"/>
			<point x="842" y="412" type="curve" smooth="yes"/>
			<point x="842" y="146"/>
			<point x="697" y="16"/>
		</contour>
		<contour>
			<point x="509" y="-20" type="curve" smooth="yes"/>
			<point x="750" y="-20"/>
			<point x="924" y="155"/>
			<point x="924" y="435" type="curve" smooth="yes"/>
			<point x="924" y="702"/>
			<point x="747" y="872"/>
			<point x="510" y="872" type="curve" smooth="yes"/>
			<point x="269" y="872"/>
			<point x="95" y="697"/>
			<point x="95" y="417" type="curve" smooth="yes"/>
			<point x="95" y="150"/>
			<point x="272" y="-20"/>
		</contour>
	</outline>
	<anchor name="top" x="509" y="852"/>
	<anchor name="bottom" x="509" y="0"/>
</glyph>
<glyph name="thorn" format="2">
	<unicode hex="00FE"/>
	<advance width="994"/>
	<outline>
		<contour>
			<point x="146" y="1310" type="curve"/>
			<point x="146" y="-461" type="line"/>
			<point x="-6" y="-487" type="line"/>
			<point x="-6" y="-510" type="line"/>
			<point x="388" y="-510" type="line"/>
			<point x="388" y="-487" type="line"/>
			<point x="216" y="-461" type="line"/>
			<point x="216" y="78" type="line"/>
			<point x="168" y="78" type="line"/>
			<point x="219" y="19"/>
			<point x="337" y="-20"/>
			<point x="460" y="-20" type="curve" smooth="yes"/>
			<point x="678" y="-20"/>
			<point x="913" y="140"/>
			<point x="913" y="456" type="curve" smooth="yes"/>
			<point x="913" y="722"/>
			<point x="775" y="872"/>
			<point x="518" y="872" type="curve" smooth="yes"/>
			<point x="435" y="872"/>
			<point x="388" y="853"/>
			<point x="161" y="717" type="curve"/>
			<point x="161" y="678" type="line"/>
			<point x="289" y="769"/>
			<point x="396" y="809"/>
			<point x="500" y="809" type="curve" smooth="yes"/>
			<point x="706" y="809"/>
			<point x="840" y="673"/>
			<point x="840" y="433" type="curve" smooth="yes"/>
			<point x="840" y="175"/>
			<point x="703" y="24"/>
			<point x="459" y="24" type="curve" smooth="yes"/>
			<point x="324" y="24"/>
			<point x="216" y="91"/>
			<point x="216" y="183" type="curve" smooth="yes"/>
			<point x="216" y="1307" type="line"/>
			<point x="216" y="1419" type="line"/>
			<point x="208" y="1419" type="line"/>
			<point x="-22" y="1374" type="line"/>
			<point x="-22" y="1360" type="line"/>
			<point x="56" y="1336.7857142857"/>
			<point x="120" y="1317.7380952381"/>
		</contour>
	</outline>
</glyph>
<glyph name="Aogonek" format="2">
	<unicode hex="0104"/>
	<advance width="1357"/>
	<outline>
		<contour>
			<point x="377" y="553" type="line"/>
			<point x="948" y="553" type="line"/>
			<point x="948" y="599" type="line"/>
			<point x="377" y="599" type="line"/>
		</contour>
		<contour>
			<point x="1195" y="52" type="line"/>
			<point x="684" y="1360" type="line"/>
			<point x="663" y="1360" type="line"/>
			<point x="165" y="52" type="line"/>
			<point x="-8" y="22" type="line"/>
			<point x="-8" y="0" type="line"/>
			<point x="384" y="0" type="line"/>
			<point x="384" y="22" type="line"/>
			<point x="212" y="52" type="line"/>
			<point x="674" y="1265" type="line"/>
			<point x="646" y="1265" type="line"/>
			<point x="1115" y="52" type="line"/>
			<point x="943" y="22" type="line"/>
			<point x="943" y="0" type="line"/>
			<point x="1367" y="0" type="line"/>
			<point x="1367" y="22" type="line"/>
		</contour>
		<contour>
			<point x="1107" y="-131" type="curve" smooth="yes"/>
			<point x="1187" y="19" type="line"/>
			<point x="1157" y="19" type="line"/>
			<point x="1071" y="-118" type="line" smooth="yes"/>
			<point x="970" y="-279"/>
			<point x="954" y="-327"/>
			<point x="954" y="-394" type="curve" smooth="yes"/>
			<point x="954" y="-477"/>
			<point x="1010" y="-530"/>
			<point x="1105" y="-530" type="curve" smooth="yes"/>
			<point x="1179" y="-530"/>
			<point x="1230" y="-501"/>
			<point x="1317" y="-408" type="curve"/>
			<point x="1302" y="-389" type="line"/>
			<point x="1244" y="-446"/>
			<point x="1197" y="-470"/>
			<point x="1139" y="-470" type="curve" smooth="yes"/>
			<point x="1071" y="-470"/>
			<point x="1026" y="-432"/>
			<point x="1026" y="-362" type="curve" smooth="yes"/>
			<point x="1026" y="-301"/>
			<point x="1043" y="-250"/>
		</contour>
	</outline>
</glyph>
<glyph name="aogonek" format="2">
	<unicode hex="0105"/>
	<advance width="839"/>
	<outline>
		<contour>
			<point x="855" y="54" type="line"/>
			<point x="855" y="75" type="line"/>
			<point x="813" y="44"/>
			<point x="783" y="36"/>
			<point x="750" y="36" type="curve" smooth="yes"/>
			<point x="693" y="36"/>
			<point x="658" y="66"/>
			<point x="658" y="149" type="curve" smooth="yes"/>
			<point x="658" y="647" type="line" smooth="yes"/>
			<point x="658" y="779"/>
			<point x="601" y="862"/>
			<point x="420" y="862" type="curve" smooth="yes"/>
			<point x="288" y="862"/>
			<point x="97" y="744"/>
			<point x="97" y="682" type="curve" smooth="yes"/>
			<point x="97" y="663"/>
			<point x="114" y="647"/>
			<point x="142" y="647" type="curve" smooth="yes"/>
			<point x="164" y="647"/>
			<point x="189" y="654"/>
			<point x="202" y="668" type="curve" smooth="yes"/>
			<point x="220" y="686"/>
			<point x="227" y="724"/>
			<point x="239" y="784" type="curve"/>
			<point x="179" y="754" type="line"/>
			<point x="275" y="796"/>
			<point x="340" y="812"/>
			<point x="393" y="812" type="curve" smooth="yes"/>
			<point x="536" y="812"/>
			<point x="588" y="742"/>
			<point x="588" y="625" type="curve" smooth="yes"/>
			<point x="588" y="259" type="line" smooth="yes"/>
			<point x="588" y="153"/>
			<point x="477" y="36"/>
			<point x="345" y="36" type="curve" smooth="yes"/>
			<point x="234" y="36"/>
			<point x="167" y="91"/>
			<point x="167" y="192" type="curve" smooth="yes"/>
			<point x="167" y="312"/>
			<point x="211" y="375"/>
			<point x="627" y="491" type="curve"/>
			<point x="627" y="524" type="line"/>
			<point x="153" y="400"/>
			<point x="92" y="311"/>
			<point x="92" y="183" type="curve" smooth="yes"/>
			<point x="92" y="47"/>
			<point x="188" y="-20"/>
			<point x="320" y="-20" type="curve" smooth="yes"/>
			<point x="445" y="-20"/>
			<point x="544" y="49"/>
			<point x="594" y="207" type="curve"/>
			<point x="588" y="207" type="line"/>
			<point x="581" y="24"/>
			<point x="612" y="-13"/>
			<point x="714" y="-13" type="curve" smooth="yes"/>
			<point x="747" y="-13"/>
			<point x="777" y="-5"/>
			<point x="808" y="15" type="curve"/>
			<point x="802" y="22" type="line"/>
			<point x="672" y="-140" type="line" smooth="yes"/>
			<point x="564" y="-274"/>
			<point x="544" y="-327"/>
			<point x="544" y="-392" type="curve" smooth="yes"/>
			<point x="544" y="-476"/>
			<point x="595" y="-530"/>
			<point x="686" y="-530" type="curve" smooth="yes"/>
			<point x="757" y="-530"/>
			<point x="803" y="-499"/>
			<point x="888" y="-408" type="curve"/>
			<point x="872" y="-389" type="line"/>
			<point x="816" y="-444"/>
			<point x="771" y="-474"/>
			<point x="717" y="-474" type="curve" smooth="yes"/>
			<point x="652" y="-474"/>
			<point x="612" y="-432"/>
			<point x="612" y="-366" type="curve" smooth="yes"/>
			<point x="612" y="-307"/>
			<point x="624" y="-257"/>
			<point x="721" y="-126" type="curve" smooth="yes"/>
		</contour>
	</outline>
</glyph>
<glyph name="Dcroat" format="2">
	<unicode hex="0110"/>
	<advance width="1423"/>
	<outline>
		<contour>
			<point x="77" y="654" type="line"/>
			<point x="649" y="654" type="line"/>
			<point x="649" y="707" type="line"/>
			<point x="77" y="707" type="line"/>
		</contour>
		<contour>
			<point x="1239" y="686" type="curve" smooth="yes"/>
			<point x="1239" y="231"/>
			<point x="963" y="46"/>
			<point x="527" y="46" type="curve" smooth="yes"/>
			<point x="252" y="46" type="line"/>
			<point x="270" y="0" type="line"/>
			<point x="557" y="0" type="line" smooth="yes"/>
			<point x="992" y="0"/>
			<point x="1321" y="232"/>
			<point x="1321" y="688" type="curve" smooth="yes"/>
			<point x="1321" y="1105"/>
			<point x="1054" y="1340"/>
			<point x="549" y="1340" type="curve" smooth="yes"/>
			<point x="270" y="1340" type="line"/>
			<point x="252" y="1294" type="line"/>
			<point x="497" y="1294" type="line" smooth="yes"/>
			<point x="967" y="1294"/>
			<point x="1239" y="1090"/>
		</contour>
		<contour>
			<point x="77" y="0" type="line"/>
			<point x="325" y="0" type="line"/>
			<point x="325" y="1340" type="line"/>
			<point x="77" y="1340" type="line"/>
			<point x="77" y="1318" type="line"/>
			<point x="249" y="1288" type="line"/>
			<point x="249" y="52" type="line"/>
			<point x="77" y="22" type="line"/>
		</contour>
	</outline>
</glyph>
<glyph name="dcroat" format="2">
	<unicode hex="0111"/>
	<advance width="1025"/>
	<outline>
		<contour>
			<point x="767" y="689" type="curve" smooth="yes"/>
			<point x="767" y="121" type="line"/>
			<point x="767" y="-20" type="line"/>
			<point x="776" y="-20" type="line"/>
			<point x="1019" y="46" type="line"/>
			<point x="1019" y="64" type="line"/>
			<point x="977" y="69.3076923077"/>
			<point x="861" y="83.967032967"/>
			<point x="837" y="87" type="curve"/>
			<point x="837" y="1320" type="line"/>
			<point x="847" y="1419" type="line"/>
			<point x="839" y="1419" type="line"/>
			<point x="599" y="1374" type="line"/>
			<point x="599" y="1360" type="line"/>
			<point x="656" y="1343.0357142857"/>
			<point x="743" y="1317.1428571429"/>
			<point x="767" y="1310" type="curve"/>
			<point x="767" y="738" type="line"/>
			<point x="824" y="810" type="line"/>
			<point x="719" y="859"/>
			<point x="649" y="872"/>
			<point x="550" y="872" type="curve" smooth="yes"/>
			<point x="289" y="872"/>
			<point x="81" y="701"/>
			<point x="81" y="396" type="curve" smooth="yes"/>
			<point x="81" y="130"/>
			<point x="216" y="-20"/>
			<point x="469" y="-20" type="curve" smooth="yes"/>
			<point x="551" y="-20"/>
			<point x="596" y="1"/>
			<point x="822" y="135" type="curve"/>
			<point x="822" y="174" type="line"/>
			<point x="698" y="79"/>
			<point x="589" y="43"/>
			<point x="487" y="43" type="curve" smooth="yes"/>
			<point x="284" y="43"/>
			<point x="154" y="179"/>
			<point x="154" y="408" type="curve" smooth="yes"/>
			<point x="154" y="667"/>
			<point x="281" y="828"/>
			<point x="527" y="828" type="curve" smooth="yes"/>
			<point x="658" y="828"/>
			<point x="767" y="761"/>
		</contour>
		<contour>
			<point x="477" y="1052" type="line"/>
			<point x="1019" y="1052" type="line"/>
			<point x="1019" y="1105" type="line"/>
			<point x="477" y="1105" type="line"/>
		</contour>
	</outline>
</glyph>
<glyph name="Eogonek" format="2">
	<unicode hex="0118"/>
	<advance width="1181"/>
	<outline>
		<contour>
			<point x="816" y="969" type="line"/>
			<point x="791" y="969" type="line"/>
			<point x="739" y="729" type="line"/>
			<point x="297" y="721" type="line"/>
			<point x="297" y="681" type="line"/>
			<point x="739" y="676" type="line"/>
			<point x="791" y="434" type="line"/>
			<point x="816" y="434" type="line"/>
			<point x="802" y="701" type="line"/>
		</contour>
		<contour>
			<point x="1068" y="1006" type="line"/>
			<point x="1018" y="1377" type="line"/>
			<point x="1008" y="1377" type="line"/>
			<point x="933" y="1340" type="line"/>
			<point x="283" y="1340" type="line"/>
			<point x="283" y="1294" type="line"/>
			<point x="979" y="1294" type="line"/>
			<point x="921" y="1313" type="line"/>
			<point x="1045" y="1002" type="line"/>
		</contour>
		<contour>
			<point x="945" y="17" type="line"/>
			<point x="999" y="46" type="line"/>
			<point x="283" y="46" type="line"/>
			<point x="283" y="0" type="line"/>
			<point x="960" y="0" type="line"/>
			<point x="1034" y="-46" type="line"/>
			<point x="1042" y="-46" type="line"/>
			<point x="1119" y="338" type="line"/>
			<point x="1097" y="345" type="line"/>
		</contour>
		<contour>
			<point x="71" y="0" type="line"/>
			<point x="319" y="0" type="line"/>
			<point x="319" y="1340" type="line"/>
			<point x="71" y="1340" type="line"/>
			<point x="71" y="1318" type="line"/>
			<point x="243" y="1288" type="line"/>
			<point x="243" y="52" type="line"/>
			<point x="71" y="22" type="line"/>
		</contour>
		<contour>
			<point x="880" y="-127" type="curve" smooth="yes"/>
			<point x="978" y="19" type="line"/>
			<point x="948" y="19" type="line"/>
			<point x="828" y="-139" type="line" smooth="yes"/>
			<point x="729" y="-269"/>
			<point x="709" y="-333"/>
			<point x="709" y="-381" type="curve" smooth="yes"/>
			<point x="709" y="-473"/>
			<point x="763" y="-530"/>
			<point x="858" y="-530" type="curve" smooth="yes"/>
			<point x="932" y="-530"/>
			<point x="983" y="-501"/>
			<point x="1070" y="-408" type="curve"/>
			<point x="1054" y="-389" type="line"/>
			<point x="996" y="-446"/>
			<point x="947" y="-474"/>
			<point x="889" y="-474" type="curve" smooth="yes"/>
			<point x="821" y="-474"/>
			<point x="779" y="-432"/>
			<point x="779" y="-362" type="curve" smooth="yes"/>
			<point x="779" y="-301"/>
			<point x="797" y="-250"/>
		</contour>
	</outline>
</glyph>
<glyph name="eogonek" format="2">
	<unicode hex="0119"/>
	<advance width="864"/>
	<outline>
		<contour>
			<point x="796" y="132" type="line"/>
			<point x="780" y="153" type="line"/>
			<point x="679" y="67"/>
			<point x="605" y="42"/>
			<point x="512" y="42" type="curve" smooth="yes"/>
			<point x="290" y="42"/>
			<point x="152" y="194"/>
			<point x="152" y="442" type="curve" smooth="yes"/>
			<point x="152" y="694"/>
			<point x="265" y="831"/>
			<point x="444" y="831" type="curve" smooth="yes"/>
			<point x="601" y="831"/>
			<point x="692" y="726"/>
			<point x="704" y="541" type="curve"/>
			<point x="728" y="586" type="line"/>
			<point x="146" y="559" type="line"/>
			<point x="146" y="530" type="line"/>
			<point x="784" y="530" type="line"/>
			<point x="770" y="717"/>
			<point x="683" y="872"/>
			<point x="471" y="872" type="curve" smooth="yes"/>
			<point x="230" y="872"/>
			<point x="81" y="665"/>
			<point x="81" y="418" type="curve" smooth="yes"/>
			<point x="81" y="151"/>
			<point x="234" y="-20"/>
			<point x="469" y="-20" type="curve" smooth="yes"/>
			<point x="582" y="-20"/>
			<point x="656" y="16"/>
			<point x="755" y="97" type="curve"/>
			<point x="746" y="104" type="line"/>
			<point x="580" y="-132" type="line" smooth="yes"/>
			<point x="486" y="-266"/>
			<point x="468" y="-324"/>
			<point x="468" y="-379" type="curve" smooth="yes"/>
			<point x="468" y="-471"/>
			<point x="522" y="-530"/>
			<point x="617" y="-530" type="curve" smooth="yes"/>
			<point x="691" y="-530"/>
			<point x="742" y="-501"/>
			<point x="829" y="-408" type="curve"/>
			<point x="813" y="-389" type="line"/>
			<point x="755" y="-446"/>
			<point x="706" y="-474"/>
			<point x="648" y="-474" type="curve" smooth="yes"/>
			<point x="580" y="-474"/>
			<point x="538" y="-432"/>
			<point x="538" y="-362" type="curve" smooth="yes"/>
			<point x="538" y="-301"/>
			<point x="556" y="-246"/>
			<point x="635" y="-121" type="curve" smooth="yes"/>
		</contour>
	</outline>
</glyph>
<glyph name="Hbar" format="2">
	<unicode hex="0126"/>
	<advance width="1468"/>
	<outline>
		<contour>
			<point x="322" y="52" type="line"/>
			<point x="322" y="1288" type="line"/>
			<point x="494" y="1318" type="line"/>
			<point x="494" y="1340" type="line"/>
			<point x="74" y="1340" type="line"/>
			<point x="74" y="1318" type="line"/>
			<point x="246" y="1288" type="line"/>
			<point x="246" y="52" type="line"/>
			<point x="74" y="22" type="line"/>
			<point x="74" y="0" type="line"/>
			<point x="494" y="0" type="line"/>
			<point x="494" y="22" type="line"/>
		</contour>
		<contour>
			<point x="1222" y="52" type="line"/>
			<point x="1222" y="1288" type="line"/>
			<point x="1394" y="1318" type="line"/>
			<point x="1394" y="1340" type="line"/>
			<point x="974" y="1340" type="line"/>
			<point x="974" y="1318" type="line"/>
			<point x="1146" y="1288" type="line"/>
			<point x="1146" y="52" type="line"/>
			<point x="974" y="22" type="line"/>
			<point x="974" y="0" type="line"/>
			<point x="1394" y="0" type="line"/>
			<point x="1394" y="22" type="line"/>
		</contour>
		<contour>
			<point x="74" y="976" type="line"/>
			<point x="1394" y="976" type="line"/>
			<point x="1394" y="1029" type="line"/>
			<point x="74" y="1029" type="line"/>
		</contour>
		<contour>
			<point x="262" y="666" type="line"/>
			<point x="1205" y="666" type="line"/>
			<point x="1205" y="712" type="line"/>
			<point x="262" y="712" type="line"/>
		</contour>
	</outline>
</glyph>
<glyph name="Iogonek" format="2">
	<unicode hex="012E"/>
	<advance width="562"/>
	<outline>
		<contour>
			<point x="491" y="22" type="line"/>
			<point x="319" y="52" type="line"/>
			<point x="319" y="1288" type="line"/>
			<point x="491" y="1318" type="line"/>
			<point x="491" y="1340" type="line"/>
			<point x="71" y="1340" type="line"/>
			<point x="71" y="1318" type="line"/>
			<point x="243" y="1288" type="line"/>
			<point x="243" y="52" type="line"/>
			<point x="71" y="22" type="line"/>
			<point x="71" y="0" type="line"/>
			<point x="491" y="0" type="line"/>
		</contour>
		<contour>
			<point x="232" y="-129" type="curve" smooth="yes"/>
			<point x="299" y="19" type="line"/>
			<point x="269" y="19" type="line"/>
			<point x="181" y="-141" type="line" smooth="yes"/>
			<point x="105" y="-280"/>
			<point x="96" y="-331"/>
			<point x="96" y="-379" type="curve" smooth="yes"/>
			<point x="96" y="-471"/>
			<point x="150" y="-530"/>
			<point x="245" y="-530" type="curve" smooth="yes"/>
			<point x="319" y="-530"/>
			<point x="370" y="-501"/>
			<point x="457" y="-408" type="curve"/>
			<point x="441" y="-389" type="line"/>
			<point x="383" y="-446"/>
			<point x="334" y="-474"/>
			<point x="276" y="-474" type="curve" smooth="yes"/>
			<point x="208" y="-474"/>
			<point x="166" y="-432"/>
			<point x="166" y="-362" type="curve" smooth="yes"/>
			<point x="166" y="-301"/>
			<point x="172" y="-261"/>
		</contour>
	</outline>
</glyph>
<glyph name="iogonek" format="2">
	<unicode hex="012F"/>
	<advance width="469"/>
	<outline>
		<contour>
			<point x="231" y="1260" type="curve" smooth="yes"/>
			<point x="282" y="1260"/>
			<point x="312" y="1295"/>
			<point x="312" y="1341" type="curve" smooth="yes"/>
			<point x="312" y="1385"/>
			<point x="282" y="1419"/>
			<point x="231" y="1419" type="curve" smooth="yes"/>
			<point x="183" y="1419"/>
			<point x="150" y="1385"/>
			<point x="150" y="1341" type="curve" smooth="yes"/>
			<point x="150" y="1295"/>
			<point x="183" y="1260"/>
		</contour>
		<contour>
			<point x="288" y="872" type="line"/>
			<point x="280" y="872" type="line"/>
			<point x="48" y="819" type="line"/>
			<point x="48" y="798" type="line"/>
			<point x="109" y="785.8"/>
			<point x="186" y="770.4"/>
			<point x="208" y="766" type="curve"/>
			<point x="208" y="49" type="line"/>
			<point x="56" y="23" type="line"/>
			<point x="56" y="0" type="line"/>
			<point x="430" y="0" type="line"/>
			<point x="430" y="23" type="line"/>
			<point x="278" y="49" type="line"/>
			<point x="278" y="777" type="line"/>
		</contour>
		<contour>
			<point x="196" y="-129" type="curve" smooth="yes"/>
			<point x="260" y="0" type="line"/>
			<point x="225" y="0" type="line"/>
			<point x="145" y="-141" type="line" smooth="yes"/>
			<point x="67" y="-278"/>
			<point x="57" y="-331"/>
			<point x="57" y="-379" type="curve" smooth="yes"/>
			<point x="57" y="-471"/>
			<point x="111" y="-530"/>
			<point x="206" y="-530" type="curve" smooth="yes"/>
			<point x="280" y="-530"/>
			<point x="331" y="-501"/>
			<point x="418" y="-408" type="curve"/>
			<point x="402" y="-389" type="line"/>
			<point x="344" y="-446"/>
			<point x="295" y="-474"/>
			<point x="237" y="-474" type="curve" smooth="yes"/>
			<point x="169" y="-474"/>
			<point x="127" y="-432"/>
			<point x="127" y="-362" type="curve" smooth="yes"/>
			<point x="127" y="-301"/>
			<point x="132" y="-258"/>
		</contour>
	</outline>
</glyph>
<glyph name="dotlessi" format="2">
	<unicode hex="0131"/>
	<advance width="469"/>
	<outline>
		<contour>
			<point x="288" y="872" type="line"/>
			<point x="280" y="872" type="line"/>
			<point x="48" y="819" type="line"/>
			<point x="48" y="798" type="line"/>
			<point x="109" y="785.8"/>
			<point x="186" y="770.4"/>
			<point x="208" y="766" type="curve"/>
			<point x="208" y="49" type="line"/>
			<point x="56" y="23" type="line"/>
			<point x="56" y="0" type="line"/>
			<point x="430" y="0" type="line"/>
			<point x="430" y="23" type="line"/>
			<point x="278" y="49" type="line"/>
			<point x="278" y="777" type="line"/>
		</contour>
	</outline>
	<anchor name="top" x="217" y="852"/>
	<anchor name="bottom" x="243" y="0"/>
	<anchor name="right" x="385" y="0"/>
</glyph>
<glyph name="kgreenlandic" format="2">
	<unicode hex="0138"/>
	<advance width="1021"/>
	<outline>
		<contour>
			<point x="415" y="432" type="line"/>
			<point x="803" y="45" type="line"/>
			<point x="657" y="22" type="line"/>
			<point x="657" y="0" type="line"/>
			<point x="1027" y="0" type="line"/>
			<point x="1027" y="22" type="line"/>
			<point x="890" y="49" type="line"/>
			<point x="454" y="486" type="line"/>
			<point x="454" y="460" type="line"/>
			<point x="809" y="803" type="line"/>
			<point x="962" y="830" type="line"/>
			<point x="962" y="852" type="line"/>
			<point x="602" y="852" type="line"/>
			<point x="602" y="830" type="line"/>
			<point x="754" y="803" type="line"/>
			<point x="415" y="472" type="line"/>
			<point x="249" y="472" type="line"/>
			<point x="249" y="432" type="line"/>
		</contour>
		<contour>
			<point x="284" y="872" type="line"/>
			<point x="276" y="872" type="line"/>
			<point x="44" y="819" type="line"/>
			<point x="44" y="798" type="line"/>
			<point x="105" y="785.8"/>
			<point x="182" y="770.4"/>
			<point x="204" y="766" type="curve"/>
			<point x="204" y="49" type="line"/>
			<point x="52" y="23" type="line"/>
			<point x="52" y="0" type="line"/>
			<point x="426" y="0" type="line"/>
			<point x="426" y="23" type="line"/>
			<point x="274" y="49" type="line"/>
			<point x="274" y="777" type="line"/>
		</contour>
	</outline>
</glyph>
<glyph name="Lslash" format="2">
	<unicode hex="0141"/>
	<advance width="1134"/>
	<outline>
		<contour>
			<point x="294" y="609" type="line"/>
			<point x="324" y="619" type="line"/>
			<point x="670" y="826" type="line"/>
			<point x="670" y="886" type="line"/>
			<point x="324" y="679" type="line"/>
			<point x="294" y="669" type="line"/>
			<point x="98" y="552" type="line"/>
			<point x="98" y="492" type="line"/>
		</contour>
		<contour>
			<point x="1025" y="-46" type="line"/>
			<point x="1102" y="338" type="line"/>
			<point x="1080" y="345" type="line"/>
			<point x="928" y="17" type="line"/>
			<point x="982" y="46" type="line"/>
			<point x="272" y="46" type="line"/>
			<point x="272" y="0" type="line"/>
			<point x="943" y="0" type="line"/>
			<point x="1017" y="-46" type="line"/>
		</contour>
		<contour>
			<point x="346" y="1288" type="line"/>
			<point x="518" y="1318" type="line"/>
			<point x="518" y="1340" type="line"/>
			<point x="98" y="1340" type="line"/>
			<point x="98" y="1318" type="line"/>
			<point x="270" y="1288" type="line"/>
			<point x="270" y="52" type="line"/>
			<point x="98" y="22" type="line"/>
			<point x="98" y="0" type="line"/>
			<point x="346" y="0" type="line"/>
		</contour>
	</outline>
</glyph>
<glyph name="lslash" format="2">
	<unicode hex="0142"/>
	<advance width="536"/>
	<outline>
		<contour>
			<point x="249" y="569" type="line"/>
			<point x="290" y="590" type="line"/>
			<point x="502" y="777" type="line"/>
			<point x="502" y="848" type="line"/>
			<point x="290" y="661" type="line"/>
			<point x="249" y="640" type="line"/>
			<point x="52" y="466" type="line"/>
			<point x="52" y="395" type="line"/>
		</contour>
		<contour>
			<point x="305" y="49" type="line"/>
			<point x="305" y="1307" type="line"/>
			<point x="305" y="1419" type="line"/>
			<point x="297" y="1419" type="line"/>
			<point x="67" y="1374" type="line"/>
			<point x="67" y="1360" type="line"/>
			<point x="145" y="1336.7857142857"/>
			<point x="209" y="1317.7380952381"/>
			<point x="235" y="1310" type="curve"/>
			<point x="235" y="49" type="line"/>
			<point x="83" y="23" type="line"/>
			<point x="83" y="0" type="line"/>
			<point x="457" y="0" type="line"/>
			<point x="457" y="23" type="line"/>
		</contour>
	</outline>
</glyph>
<glyph name="Eng" format="2">
	<unicode hex="014A"/>
	<advance width="1467"/>
	<outline>
		<contour>
			<point x="1200" y="112" type="line"/>
			<point x="324" y="1340" type="line"/>
			<point x="62" y="1340" type="line"/>
			<point x="62" y="1318" type="line"/>
			<point x="248" y="1281" type="line"/>
			<point x="248" y="52" type="line"/>
			<point x="76" y="22" type="line"/>
			<point x="76" y="0" type="line"/>
			<point x="468" y="0" type="line"/>
			<point x="468" y="22" type="line"/>
			<point x="296" y="52" type="line"/>
			<point x="296" y="1300" type="line"/>
			<point x="267" y="1286" type="line"/>
			<point x="1200" y="-16" type="line"/>
		</contour>
		<contour>
			<point x="1234" y="-15" type="curve" smooth="yes"/>
			<point x="1234" y="1288" type="line"/>
			<point x="1406" y="1318" type="line"/>
			<point x="1406" y="1340" type="line"/>
			<point x="1014" y="1340" type="line"/>
			<point x="1014" y="1318" type="line"/>
			<point x="1186" y="1288" type="line"/>
			<point x="1186" y="-55" type="line" smooth="yes"/>
			<point x="1186" y="-357"/>
			<point x="1055" y="-468"/>
			<point x="918" y="-468" type="curve" smooth="yes"/>
			<point x="850" y="-468"/>
			<point x="826" y="-415"/>
			<point x="786" y="-415" type="curve" smooth="yes"/>
			<point x="757" y="-415"/>
			<point x="732" y="-435"/>
			<point x="732" y="-472" type="curve" smooth="yes"/>
			<point x="732" y="-503"/>
			<point x="762" y="-530"/>
			<point x="839" y="-530" type="curve" smooth="yes"/>
			<point x="1081" y="-530"/>
			<point x="1234" y="-357"/>
		</contour>
	</outline>
</glyph>
<glyph name="eng" format="2">
	<unicode hex="014B"/>
	<advance width="1002"/>
	<outline>
		<contour>
			<point x="274" y="707" type="line"/>
			<point x="274" y="872" type="line"/>
			<point x="266" y="872" type="line"/>
			<point x="44" y="819" type="line"/>
			<point x="44" y="798" type="line"/>
			<point x="135" y="779.8"/>
			<point x="182" y="770.4"/>
			<point x="204" y="766" type="curve"/>
			<point x="204" y="49" type="line"/>
			<point x="52" y="23" type="line"/>
			<point x="52" y="0" type="line"/>
			<point x="426" y="0" type="line"/>
			<point x="426" y="23" type="line"/>
			<point x="274" y="49" type="line"/>
		</contour>
		<contour>
			<point x="799" y="-162" type="line" smooth="yes"/>
			<point x="799" y="-289"/>
			<point x="792" y="-331"/>
			<point x="647" y="-511" type="curve"/>
			<point x="668" y="-530" type="line"/>
			<point x="844" y="-347"/>
			<point x="869" y="-320"/>
			<point x="869" y="-143" type="curve" smooth="yes"/>
			<point x="869" y="581" type="line" smooth="yes"/>
			<point x="869" y="785"/>
			<point x="799" y="872"/>
			<point x="613" y="872" type="curve" smooth="yes"/>
			<point x="512" y="872"/>
			<point x="426" y="852"/>
			<point x="242" y="687" type="curve"/>
			<point x="269" y="679" type="line"/>
			<point x="388" y="777"/>
			<point x="498" y="803"/>
			<point x="571" y="803" type="curve" smooth="yes"/>
			<point x="747" y="803"/>
			<point x="799" y="745"/>
			<point x="799" y="539" type="curve" smooth="yes"/>
		</contour>
	</outline>
</glyph>
<glyph name="OE" format="2">
	<unicode hex="0152"/>
	<advance width="2036"/>
	<outline>
		<contour>
			<point x="1671" y="969" type="line"/>
			<point x="1646" y="969" type="line"/>
			<point x="1594" y="729" type="line"/>
			<point x="1152" y="721" type="line"/>
			<point x="1152" y="681" type="line"/>
			<point x="1594" y="676" type="line"/>
			<point x="1646" y="434" type="line"/>
			<point x="1671" y="434" type="line"/>
			<point x="1657" y="701" type="line"/>
		</contour>
		<contour>
			<point x="1098" y="1340" type="line"/>
			<point x="1098" y="0" type="line"/>
			<point x="1174" y="0" type="line"/>
			<point x="1174" y="1340" type="line"/>
		</contour>
		<contour>
			<point x="874" y="0" type="curve" smooth="yes"/>
			<point x="1815" y="0" type="line"/>
			<point x="1889" y="-46" type="line"/>
			<point x="1897" y="-46" type="line"/>
			<point x="1974" y="338" type="line"/>
			<point x="1952" y="345" type="line"/>
			<point x="1800" y="17" type="line"/>
			<point x="1854" y="46" type="line"/>
			<point x="926" y="46" type="line"/>
			<point x="456" y="46"/>
			<point x="184" y="250"/>
			<point x="184" y="654" type="curve" smooth="yes"/>
			<point x="184" y="1109"/>
			<point x="460" y="1294"/>
			<point x="896" y="1294" type="curve" smooth="yes"/>
			<point x="1834" y="1294" type="line"/>
			<point x="1776" y="1313" type="line"/>
			<point x="1900" y="1002" type="line"/>
			<point x="1923" y="1006" type="line"/>
			<point x="1873" y="1377" type="line"/>
			<point x="1863" y="1377" type="line"/>
			<point x="1788" y="1340" type="line"/>
			<point x="866" y="1340" type="line" smooth="yes"/>
			<point x="431" y="1340"/>
			<point x="102" y="1108"/>
			<point x="102" y="652" type="curve" smooth="yes"/>
			<point x="102" y="235"/>
			<point x="369" y="0"/>
		</contour>
	</outline>
</glyph>
<glyph name="oe" format="2">
	<unicode hex="0153"/>
	<advance width="1617"/>
	<outline>
		<contour>
			<point x="499" y="16" type="curve" smooth="yes"/>
			<point x="298" y="16"/>
			<point x="162" y="184"/>
			<point x="162" y="440" type="curve" smooth="yes"/>
			<point x="162" y="706"/>
			<point x="307" y="836"/>
			<point x="490" y="836" type="curve" smooth="yes"/>
			<point x="691" y="836"/>
			<point x="827" y="668"/>
			<point x="827" y="412" type="curve" smooth="yes"/>
			<point x="827" y="146"/>
			<point x="682" y="16"/>
		</contour>
		<contour>
			<point x="884" y="256" type="curve"/>
			<point x="861" y="256" type="line"/>
			<point x="912.6431818632" y="83.8560604562"/>
			<point x="1041.9945205479" y="-20"/>
			<point x="1222" y="-20" type="curve" smooth="yes"/>
			<point x="1350" y="-20"/>
			<point x="1428" y="26"/>
			<point x="1549" y="132" type="curve"/>
			<point x="1533" y="153" type="line"/>
			<point x="1432" y="71"/>
			<point x="1359" y="46"/>
			<point x="1274" y="46" type="curve" smooth="yes"/>
			<point x="1046" y="46"/>
			<point x="909" y="197"/>
			<point x="909" y="438" type="curve" smooth="yes"/>
			<point x="909" y="695"/>
			<point x="1021" y="827"/>
			<point x="1212" y="827" type="curve" smooth="yes"/>
			<point x="1355" y="827"/>
			<point x="1439" y="726"/>
			<point x="1451" y="541" type="curve"/>
			<point x="1481" y="586" type="line"/>
			<point x="899" y="559" type="line"/>
			<point x="899" y="530" type="line"/>
			<point x="1537" y="530" type="line"/>
			<point x="1523" y="717"/>
			<point x="1436" y="872"/>
			<point x="1224" y="872" type="curve" smooth="yes"/>
			<point x="1039.495890411" y="872"/>
			<point x="904" y="747"/>
			<point x="856" y="574" type="curve"/>
			<point x="885" y="574" type="line"/>
			<point x="834" y="743"/>
			<point x="707" y="872"/>
			<point x="495" y="872" type="curve" smooth="yes"/>
			<point x="254" y="872"/>
			<point x="80" y="697"/>
			<point x="80" y="417" type="curve" smooth="yes"/>
			<point x="80" y="150"/>
			<point x="257" y="-20"/>
			<point x="494" y="-20" type="curve" smooth="yes"/>
			<point x="678.896373057" y="-20"/>
			<point x="824.1595607199" y="82.564150561"/>
		</contour>
	</outline>
	<anchor name="top" x="814" y="852"/>
	<anchor name="bottom" x="814" y="0"/>
</glyph>
<glyph name="Scedilla" format="2">
	<unicode hex="015E"/>
	<advance width="994"/>
	<outline>
		<contour>
			<point x="761" y="1289" type="line"/>
			<point x="681" y="1331"/>
			<point x="605" y="1360"/>
			<point x="492" y="1360" type="curve" smooth="yes"/>
			<point x="274" y="1360"/>
			<point x="140" y="1235"/>
			<point x="140" y="1055" type="curve" smooth="yes"/>
			<point x="140" y="843"/>
			<point x="288" y="763"/>
			<point x="460" y="688" type="curve" smooth="yes"/>
			<point x="632" y="614"/>
			<point x="833" y="550"/>
			<point x="833" y="320" type="curve" smooth="yes"/>
			<point x="833" y="108"/>
			<point x="674" y="19"/>
			<point x="454" y="19" type="curve" smooth="yes"/>
			<point x="364" y="19"/>
			<point x="272" y="31"/>
			<point x="182" y="84" type="curve"/>
			<point x="270" y="17" type="line"/>
			<point x="116" y="358" type="line"/>
			<point x="87" y="358" type="line"/>
			<point x="160" y="25" type="line"/>
			<point x="254" y="-9"/>
			<point x="338" y="-20"/>
			<point x="456" y="-20" type="curve" smooth="yes"/>
			<point x="719" y="-20"/>
			<point x="893" y="104"/>
			<point x="893" y="354" type="curve" smooth="yes"/>
			<point x="893" y="605"/>
			<point x="701" y="685"/>
			<point x="529" y="756" type="curve" smooth="yes"/>
			<point x="357" y="827"/>
			<point x="198" y="892"/>
			<point x="198" y="1083" type="curve" smooth="yes"/>
			<point x="198" y="1209"/>
			<point x="290" y="1324"/>
			<point x="483" y="1324" type="curve" smooth="yes"/>
			<point x="583" y="1324"/>
			<point x="666" y="1288"/>
			<point x="789" y="1172" type="curve"/>
			<point x="699" y="1275" type="line"/>
			<point x="824" y="963" type="line"/>
			<point x="848" y="967" type="line"/>
			<point x="783" y="1386" type="line"/>
			<point x="774" y="1386" type="line"/>
			<point x="717" y="1303" type="line"/>
		</contour>
		<contour>
			<point x="406" y="-530" type="curve" smooth="yes"/>
			<point x="547" y="-530"/>
			<point x="642" y="-439"/>
			<point x="642" y="-332" type="curve" smooth="yes"/>
			<point x="642" y="-262"/>
			<point x="587" y="-195"/>
			<point x="403" y="-146" type="curve"/>
			<point x="415" y="-168" type="line"/>
			<point x="538" y="0" type="line"/>
			<point x="493" y="0" type="line"/>
			<point x="347" y="-206" type="line"/>
			<point x="347" y="-210" type="line"/>
			<point x="528" y="-254"/>
			<point x="577" y="-302"/>
			<point x="577" y="-366" type="curve" smooth="yes"/>
			<point x="577" y="-435"/>
			<point x="525" y="-484"/>
			<point x="439" y="-484" type="curve" smooth="yes"/>
			<point x="364" y="-484"/>
			<point x="349" y="-422"/>
			<point x="313" y="-422" type="curve" smooth="yes"/>
			<point x="285" y="-422"/>
			<point x="269" y="-443"/>
			<point x="269" y="-466" type="curve" smooth="yes"/>
			<point x="269" y="-502"/>
			<point x="297" y="-530"/>
		</contour>
	</outline>
</glyph>
<glyph name="scedilla" format="2">
	<unicode hex="015F"/>
	<advance width="694"/>
	<outline>
		<contour>
			<point x="369" y="872" type="curve" smooth="yes"/>
			<point x="228" y="872"/>
			<point x="111" y="772"/>
			<point x="111" y="650" type="curve" smooth="yes"/>
			<point x="111" y="514"/>
			<point x="214" y="468"/>
			<point x="324" y="425" type="curve" smooth="yes"/>
			<point x="434" y="382"/>
			<point x="540" y="348"/>
			<point x="540" y="225" type="curve" smooth="yes"/>
			<point x="540" y="97"/>
			<point x="449" y="16"/>
			<point x="300" y="16" type="curve" smooth="yes"/>
			<point x="226" y="16"/>
			<point x="171" y="30"/>
			<point x="127" y="57" type="curve"/>
			<point x="189" y="10" type="line"/>
			<point x="104" y="253" type="line"/>
			<point x="84" y="253" type="line"/>
			<point x="104" y="14" type="line"/>
			<point x="159" y="-8"/>
			<point x="227" y="-20"/>
			<point x="311" y="-20" type="curve" smooth="yes"/>
			<point x="479" y="-20"/>
			<point x="605" y="85"/>
			<point x="605" y="237" type="curve" smooth="yes"/>
			<point x="605" y="396"/>
			<point x="487" y="446"/>
			<point x="378" y="487" type="curve" smooth="yes"/>
			<point x="269" y="528"/>
			<point x="171" y="563"/>
			<point x="171" y="673" type="curve" smooth="yes"/>
			<point x="171" y="767"/>
			<point x="233" y="833"/>
			<point x="365" y="833" type="curve" smooth="yes"/>
			<point x="426" y="833"/>
			<point x="474" y="821"/>
			<point x="539" y="771" type="curve"/>
			<point x="475" y="834" type="line"/>
			<point x="564" y="603" type="line"/>
			<point x="585" y="603" type="line"/>
			<point x="562" y="828" type="line"/>
			<point x="502" y="859"/>
			<point x="450" y="872"/>
		</contour>
		<contour>
			<point x="271" y="-530" type="curve" smooth="yes"/>
			<point x="412" y="-530"/>
			<point x="507" y="-439"/>
			<point x="507" y="-332" type="curve" smooth="yes"/>
			<point x="507" y="-262"/>
			<point x="452" y="-195"/>
			<point x="268" y="-146" type="curve"/>
			<point x="280" y="-168" type="line"/>
			<point x="403" y="0" type="line"/>
			<point x="358" y="0" type="line"/>
			<point x="212" y="-206" type="line"/>
			<point x="212" y="-210" type="line"/>
			<point x="393" y="-254"/>
			<point x="442" y="-302"/>
			<point x="442" y="-366" type="curve" smooth="yes"/>
			<point x="442" y="-435"/>
			<point x="390" y="-484"/>
			<point x="304" y="-484" type="curve" smooth="yes"/>
			<point x="229" y="-484"/>
			<point x="214" y="-422"/>
			<point x="178" y="-422" type="curve" smooth="yes"/>
			<point x="150" y="-422"/>
			<point x="134" y="-443"/>
			<point x="134" y="-466" type="curve" smooth="yes"/>
			<point x="134" y="-502"/>
			<point x="162" y="-530"/>
		</contour>
	</outline>
</glyph>
<glyph name="uni0162" format="2">
	<unicode hex="0162"/>
	<advance width="1224"/>
	<outline>
		<contour>
			<point x="574" y="1327" type="line"/>
			<point x="574" y="52" type="line"/>
			<point x="402" y="22" type="line"/>
			<point x="402" y="0" type="line"/>
			<point x="822" y="0" type="line"/>
			<point x="822" y="22" type="line"/>
			<point x="650" y="52" type="line"/>
			<point x="650" y="1327" type="line"/>
		</contour>
		<contour>
			<point x="1099" y="1294" type="line"/>
			<point x="1047" y="1308" type="line"/>
			<point x="1155" y="981" type="line"/>
			<point x="1179" y="986" type="line"/>
			<point x="1133" y="1404" type="line"/>
			<point x="1122" y="1404" type="line"/>
			<point x="1040" y="1330" type="line"/>
			<point x="1075" y="1340" type="line"/>
			<point x="149" y="1340" type="line"/>
			<point x="184" y="1330" type="line"/>
			<point x="102" y="1404" type="line"/>
			<point x="91" y="1404" type="line"/>
			<point x="45" y="985" type="line"/>
			<point x="69" y="981" type="line"/>
			<point x="177" y="1308" type="line"/>
			<point x="125" y="1294" type="line"/>
		</contour>
		<contour>
			<point x="508" y="-530" type="curve" smooth="yes"/>
			<point x="649" y="-530"/>
			<point x="744" y="-439"/>
			<point x="744" y="-332" type="curve" smooth="yes"/>
			<point x="744" y="-262"/>
			<point x="689" y="-195"/>
			<point x="505" y="-146" type="curve"/>
			<point x="517" y="-168" type="line"/>
			<point x="640" y="0" type="line"/>
			<point x="595" y="0" type="line"/>
			<point x="449" y="-206" type="line"/>
			<point x="449" y="-210" type="line"/>
			<point x="630" y="-254"/>
			<point x="679" y="-302"/>
			<point x="679" y="-366" type="curve" smooth="yes"/>
			<point x="679" y="-435"/>
			<point x="627" y="-484"/>
			<point x="541" y="-484" type="curve" smooth="yes"/>
			<point x="466" y="-484"/>
			<point x="451" y="-422"/>
			<point x="415" y="-422" type="curve" smooth="yes"/>
			<point x="387" y="-422"/>
			<point x="371" y="-443"/>
			<point x="371" y="-466" type="curve" smooth="yes"/>
			<point x="371" y="-502"/>
			<point x="399" y="-530"/>
		</contour>
	</outline>
</glyph>
<glyph name="uni0163" format="2">
  <advance width="577.0"/>
  <unicode hex="0163"/>
  <outline>
    <contour>
      <point x="233.0" y="200.0" type="curve" smooth="yes"/>
      <point x="233.0" y="821.0" type="line"/>
      <point x="233.0" y="937.0" type="line"/>
      <point x="224.0" y="937.0" type="line"/>
      <point x="178.0" y="908.0"/>
      <point x="111.0" y="868.0"/>
      <point x="57.0" y="836.0" type="curve"/>
      <point x="57.0" y="828.0" type="line"/>
      <point x="163.0" y="783.0" type="line"/>
      <point x="163.0" y="174.0" type="line" smooth="yes"/>
      <point x="163.0" y="44.0"/>
      <point x="255.0" y="-10.0"/>
      <point x="355.0" y="-10.0" type="curve" smooth="yes"/>
      <point x="417.0" y="-10.0"/>
      <point x="438.0" y="-6.0"/>
      <point x="570.0" y="53.0" type="curve"/>
      <point x="570.0" y="76.0" type="line"/>
      <point x="499.0" y="59.0"/>
      <point x="441.0" y="50.0"/>
      <point x="394.0" y="50.0" type="curve" smooth="yes"/>
      <point x="280.0" y="50.0"/>
      <point x="233.0" y="101.0"/>
    </contour>
    <contour>
      <point x="179.0" y="798.0" type="line"/>
      <point x="528.0" y="798.0" type="line"/>
      <point x="541.0" y="852.0" type="line"/>
      <point x="179.0" y="852.0" type="line"/>
    </contour>
    <contour>
      <point x="249.0" y="-530.0" type="curve" smooth="yes"/>
      <point x="390.0" y="-530.0"/>
      <point x="485.0" y="-439.0"/>
      <point x="485.0" y="-332.0" type="curve" smooth="yes"/>
      <point x="485.0" y="-262.0"/>
      <point x="430.0" y="-195.0"/>
      <point x="246.0" y="-146.0" type="curve"/>
      <point x="258.0" y="-168.0" type="line"/>
      <point x="381.0" y="0.0" type="line"/>
      <point x="336.0" y="0.0" type="line"/>
      <point x="190.0" y="-206.0" type="line"/>
      <point x="190.0" y="-210.0" type="line"/>
      <point x="371.0" y="-254.0"/>
      <point x="420.0" y="-302.0"/>
      <point x="420.0" y="-366.0" type="curve" smooth="yes"/>
      <point x="420.0" y="-435.0"/>
      <point x="368.0" y="-484.0"/>
      <point x="282.0" y="-484.0" type="curve" smooth="yes"/>
      <point x="207.0" y="-484.0"/>
      <point x="192.0" y="-422.0"/>
      <point x="156.0" y="-422.0" type="curve" smooth="yes"/>
      <point x="128.0" y="-422.0"/>
      <point x="112.0" y="-443.0"/>
      <point x="112.0" y="-466.0" type="curve" smooth="yes"/>
      <point x="112.0" y="-502.0"/>
      <point x="140.0" y="-530.0"/>
    </contour>
  </outline>
</glyph>
<glyph name="Tbar" format="2">
	<unicode hex="0166"/>
	<advance width="1228"/>
	<outline>
		<contour>
			<point x="289" y="670" type="line"/>
			<point x="939" y="670" type="line"/>
			<point x="939" y="723" type="line"/>
			<point x="289" y="723" type="line"/>
		</contour>
		<contour>
			<point x="576" y="1327" type="line"/>
			<point x="576" y="52" type="line"/>
			<point x="404" y="22" type="line"/>
			<point x="404" y="0" type="line"/>
			<point x="824" y="0" type="line"/>
			<point x="824" y="22" type="line"/>
			<point x="652" y="52" type="line"/>
			<point x="652" y="1327" type="line"/>
		</contour>
		<contour>
			<point x="1101" y="1294" type="line"/>
			<point x="1049" y="1308" type="line"/>
			<point x="1157" y="981" type="line"/>
			<point x="1181" y="986" type="line"/>
			<point x="1135" y="1404" type="line"/>
			<point x="1124" y="1404" type="line"/>
			<point x="1042" y="1330" type="line"/>
			<point x="1077" y="1340" type="line"/>
			<point x="151" y="1340" type="line"/>
			<point x="186" y="1330" type="line"/>
			<point x="104" y="1404" type="line"/>
			<point x="93" y="1404" type="line"/>
			<point x="47" y="985" type="line"/>
			<point x="71" y="981" type="line"/>
			<point x="179" y="1308" type="line"/>
			<point x="127" y="1294" type="line"/>
		</contour>
	</outline>
</glyph>
<glyph name="tbar" format="2">
	<unicode hex="0167"/>
	<advance width="581"/>
	<outline>
		<contour>
			<point x="43" y="432" type="line"/>
			<point x="485" y="432" type="line"/>
			<point x="485" y="485" type="line"/>
			<point x="43" y="485" type="line"/>
		</contour>
		<contour>
			<point x="235" y="200" type="curve" smooth="yes"/>
			<point x="235" y="821" type="line"/>
			<point x="235" y="937" type="line"/>
			<point x="226" y="937" type="line"/>
			<point x="180" y="908"/>
			<point x="113" y="868"/>
			<point x="59" y="836" type="curve"/>
			<point x="59" y="828" type="line"/>
			<point x="165" y="783" type="line"/>
			<point x="165" y="174" type="line" smooth="yes"/>
			<point x="165" y="44"/>
			<point x="257" y="-10"/>
			<point x="357" y="-10" type="curve" smooth="yes"/>
			<point x="419" y="-10"/>
			<point x="440" y="-6"/>
			<point x="572" y="53" type="curve"/>
			<point x="572" y="76" type="line"/>
			<point x="501" y="59"/>
			<point x="443" y="50"/>
			<point x="396" y="50" type="curve" smooth="yes"/>
			<point x="282" y="50"/>
			<point x="235" y="101"/>
		</contour>
		<contour>
			<point x="181" y="798" type="line"/>
			<point x="530" y="798" type="line"/>
			<point x="543" y="852" type="line"/>
			<point x="181" y="852" type="line"/>
		</contour>
	</outline>
</glyph>
<glyph name="Uogonek" format="2">
	<unicode hex="0172"/>
	<advance width="1440"/>
	<outline>
		<contour>
			<point x="1172" y="521" type="line" smooth="yes"/>
			<point x="1172" y="170"/>
			<point x="1012" y="36"/>
			<point x="736" y="36" type="curve" smooth="yes"/>
			<point x="439" y="36"/>
			<point x="293" y="223"/>
			<point x="293" y="552" type="curve" smooth="yes"/>
			<point x="293" y="1288" type="line"/>
			<point x="465" y="1318" type="line"/>
			<point x="465" y="1340" type="line"/>
			<point x="45" y="1340" type="line"/>
			<point x="45" y="1318" type="line"/>
			<point x="217" y="1288" type="line"/>
			<point x="217" y="542" type="line" smooth="yes"/>
			<point x="217" y="161"/>
			<point x="399" y="-20"/>
			<point x="730" y="-20" type="curve" smooth="yes"/>
			<point x="1032" y="-20"/>
			<point x="1220" y="141"/>
			<point x="1220" y="514" type="curve" smooth="yes"/>
			<point x="1220" y="1288" type="line"/>
			<point x="1392" y="1318" type="line"/>
			<point x="1392" y="1340" type="line"/>
			<point x="1000" y="1340" type="line"/>
			<point x="1000" y="1318" type="line"/>
			<point x="1172" y="1288" type="line"/>
		</contour>
		<contour>
			<point x="716" y="-128" type="curve" smooth="yes"/>
			<point x="787" y="19" type="line"/>
			<point x="757" y="19" type="line"/>
			<point x="665" y="-140" type="line" smooth="yes"/>
			<point x="585" y="-278"/>
			<point x="572" y="-331"/>
			<point x="572" y="-379" type="curve" smooth="yes"/>
			<point x="572" y="-471"/>
			<point x="626" y="-530"/>
			<point x="721" y="-530" type="curve" smooth="yes"/>
			<point x="795" y="-530"/>
			<point x="846" y="-501"/>
			<point x="933" y="-408" type="curve"/>
			<point x="917" y="-389" type="line"/>
			<point x="859" y="-446"/>
			<point x="810" y="-474"/>
			<point x="752" y="-474" type="curve" smooth="yes"/>
			<point x="684" y="-474"/>
			<point x="642" y="-432"/>
			<point x="642" y="-362" type="curve" smooth="yes"/>
			<point x="642" y="-301"/>
			<point x="653" y="-259"/>
		</contour>
	</outline>
</glyph>
<glyph name="uogonek" format="2">
	<unicode hex="0173"/>
	<advance width="1014"/>
	<outline>
		<contour>
			<point x="251" y="293" type="curve" smooth="yes"/>
			<point x="251" y="787" type="line"/>
			<point x="261" y="869" type="line"/>
			<point x="-9" y="852" type="line"/>
			<point x="-9" y="829" type="line"/>
			<point x="181" y="787" type="line"/>
			<point x="181" y="253" type="line" smooth="yes"/>
			<point x="181" y="61"/>
			<point x="252" y="-20"/>
			<point x="441" y="-20" type="curve" smooth="yes"/>
			<point x="534" y="-20"/>
			<point x="612" y="1"/>
			<point x="783" y="154" type="curve"/>
			<point x="763" y="164" type="line"/>
			<point x="652" y="73"/>
			<point x="550" y="49"/>
			<point x="483" y="49" type="curve" smooth="yes"/>
			<point x="304" y="49"/>
			<point x="251" y="102"/>
		</contour>
		<contour>
			<point x="756" y="-20" type="line"/>
			<point x="765" y="-20" type="line"/>
			<point x="1008" y="46" type="line"/>
			<point x="1008" y="64" type="line"/>
			<point x="966" y="69.3076923077"/>
			<point x="850" y="83.967032967"/>
			<point x="826" y="87" type="curve"/>
			<point x="826" y="787" type="line"/>
			<point x="836" y="869" type="line"/>
			<point x="566" y="852" type="line"/>
			<point x="566" y="829" type="line"/>
			<point x="756" y="787" type="line"/>
			<point x="756" y="145" type="line"/>
		</contour>
		<contour>
			<point x="729" y="-131" type="curve" smooth="yes"/>
			<point x="823" y="60" type="line"/>
			<point x="793" y="60" type="line"/>
			<point x="678" y="-143" type="line" smooth="yes"/>
			<point x="600" y="-280"/>
			<point x="590" y="-331"/>
			<point x="590" y="-379" type="curve" smooth="yes"/>
			<point x="590" y="-471"/>
			<point x="644" y="-530"/>
			<point x="739" y="-530" type="curve" smooth="yes"/>
			<point x="813" y="-530"/>
			<point x="864" y="-501"/>
			<point x="951" y="-408" type="curve"/>
			<point x="935" y="-389" type="line"/>
			<point x="877" y="-446"/>
			<point x="828" y="-474"/>
			<point x="770" y="-474" type="curve" smooth="yes"/>
			<point x="702" y="-474"/>
			<point x="660" y="-432"/>
			<point x="660" y="-362" type="curve" smooth="yes"/>
			<point x="660" y="-301"/>
			<point x="665" y="-261"/>
		</contour>
	</outline>
</glyph>
<glyph name="uni018F" format="2">
	<unicode hex="018F"/>
	<advance width="1359"/>
	<outline>
		<contour>
			<point x="136" y="483" type="line"/>
			<point x="1213" y="483" type="line"/>
			<point x="1213" y="529" type="line"/>
			<point x="105" y="529" type="line"/>
			<point x="132" y="174"/>
			<point x="296" y="-20"/>
			<point x="634" y="-20" type="curve" smooth="yes"/>
			<point x="963" y="-20"/>
			<point x="1256" y="207"/>
			<point x="1256" y="681" type="curve" smooth="yes"/>
			<point x="1256" y="1096"/>
			<point x="1021" y="1360"/>
			<point x="616" y="1360" type="curve" smooth="yes"/>
			<point x="411" y="1360"/>
			<point x="286" y="1310"/>
			<point x="89" y="1156" type="curve"/>
			<point x="110" y="1125" type="line"/>
			<point x="294" y="1259"/>
			<point x="401" y="1300"/>
			<point x="614" y="1300" type="curve" smooth="yes"/>
			<point x="945" y="1300"/>
			<point x="1179" y="1054"/>
			<point x="1179" y="661" type="curve" smooth="yes"/>
			<point x="1179" y="218.9310344828"/>
			<point x="924" y="20"/>
			<point x="634" y="20" type="curve" smooth="yes"/>
			<point x="356.7550111359" y="20"/>
			<point x="209.9990728076" y="204.0150302761"/>
			<point x="191" y="512" type="curve"/>
		</contour>
	</outline>
</glyph>
<glyph name="Ohorn" format="2">
	<unicode hex="01A0"/>
	<advance width="1482"/>
	<outline>
		<contour>
			<point x="749" y="23" type="curve" smooth="yes"/>
			<point x="419" y="23"/>
			<point x="182" y="273"/>
			<point x="182" y="681" type="curve" smooth="yes"/>
			<point x="182" y="1050"/>
			<point x="384" y="1317"/>
			<point x="733" y="1317" type="curve" smooth="yes"/>
			<point x="1063" y="1317"/>
			<point x="1300" y="1067"/>
			<point x="1300" y="659" type="curve" smooth="yes"/>
			<point x="1300" y="290"/>
			<point x="1098" y="23"/>
		</contour>
		<contour>
			<point x="730" y="1360" type="curve" smooth="yes"/>
			<point x="366" y="1360"/>
			<point x="100" y="1069"/>
			<point x="100" y="669" type="curve" smooth="yes"/>
			<point x="100" y="271"/>
			<point x="380" y="-20"/>
			<point x="752" y="-20" type="curve" smooth="yes"/>
			<point x="1116" y="-20"/>
			<point x="1382" y="271"/>
			<point x="1382" y="671" type="curve" smooth="yes"/>
			<point x="1382" y="939"/>
			<point x="1249" y="1187"/>
			<point x="1002" y="1302" type="curve"/>
			<point x="1002" y="1292" type="line"/>
			<point x="1236" y="1256"/>
			<point x="1327" y="1338"/>
			<point x="1327" y="1475" type="curve" smooth="yes"/>
			<point x="1327" y="1547"/>
			<point x="1295" y="1574"/>
			<point x="1254" y="1574" type="curve" smooth="yes"/>
			<point x="1213" y="1574"/>
			<point x="1190" y="1541"/>
			<point x="1190" y="1519" type="curve" smooth="yes"/>
			<point x="1190" y="1513"/>
			<point x="1247" y="1477"/>
			<point x="1247" y="1429" type="curve" smooth="yes"/>
			<point x="1247" y="1352"/>
			<point x="1188" y="1317"/>
			<point x="1083" y="1317" type="curve" smooth="yes"/>
			<point x="963" y="1317"/>
			<point x="861" y="1360"/>
		</contour>
	</outline>
	<anchor name="UCtop" x="741" y="1340"/>
	<anchor name="bottom" x="741" y="0"/>
</glyph>
<glyph name="ohorn" format="2">
	<unicode hex="01A1"/>
	<advance width="991"/>
	<outline>
		<contour>
			<point x="499" y="16" type="curve" smooth="yes"/>
			<point x="298" y="16"/>
			<point x="162" y="184"/>
			<point x="162" y="440" type="curve" smooth="yes"/>
			<point x="162" y="706"/>
			<point x="307" y="836"/>
			<point x="490" y="836" type="curve" smooth="yes"/>
			<point x="691" y="836"/>
			<point x="827" y="668"/>
			<point x="827" y="412" type="curve" smooth="yes"/>
			<point x="827" y="146"/>
			<point x="682" y="16"/>
		</contour>
		<contour>
			<point x="908" y="987" type="curve" smooth="yes"/>
			<point x="908" y="1059"/>
			<point x="876" y="1086"/>
			<point x="835" y="1086" type="curve" smooth="yes"/>
			<point x="794" y="1086"/>
			<point x="771" y="1053"/>
			<point x="771" y="1031" type="curve" smooth="yes"/>
			<point x="771" y="1025"/>
			<point x="828" y="989"/>
			<point x="828" y="941" type="curve" smooth="yes"/>
			<point x="828" y="889"/>
			<point x="794" y="852"/>
			<point x="704" y="852" type="curve" smooth="yes"/>
			<point x="625" y="852"/>
			<point x="572" y="872"/>
			<point x="495" y="872" type="curve" smooth="yes"/>
			<point x="254" y="872"/>
			<point x="80" y="697"/>
			<point x="80" y="417" type="curve" smooth="yes"/>
			<point x="80" y="150"/>
			<point x="257" y="-20"/>
			<point x="494" y="-20" type="curve" smooth="yes"/>
			<point x="735" y="-20"/>
			<point x="909" y="155"/>
			<point x="909" y="435" type="curve" smooth="yes"/>
			<point x="909" y="602"/>
			<point x="838" y="754"/>
			<point x="677" y="833" type="curve"/>
			<point x="677" y="824" type="line"/>
			<point x="847" y="810"/>
			<point x="908" y="883"/>
		</contour>
	</outline>
	<anchor name="top" x="494" y="852"/>
	<anchor name="bottom" x="494" y="0"/>
</glyph>
<glyph name="Uhorn" format="2">
	<unicode hex="01AF"/>
	<advance width="1412"/>
	<outline>
		<contour>
			<point x="1419" y="1429" type="curve" smooth="yes"/>
			<point x="1419" y="1370"/>
			<point x="1377" y="1340"/>
			<point x="1266" y="1340" type="curve" smooth="yes"/>
			<point x="1000" y="1340" type="line"/>
			<point x="1000" y="1318" type="line"/>
			<point x="1172" y="1288" type="line"/>
			<point x="1172" y="521" type="line" smooth="yes"/>
			<point x="1172" y="193"/>
			<point x="1021" y="36"/>
			<point x="736" y="36" type="curve" smooth="yes"/>
			<point x="439" y="36"/>
			<point x="293" y="223"/>
			<point x="293" y="552" type="curve" smooth="yes"/>
			<point x="293" y="1288" type="line"/>
			<point x="465" y="1318" type="line"/>
			<point x="465" y="1340" type="line"/>
			<point x="45" y="1340" type="line"/>
			<point x="45" y="1318" type="line"/>
			<point x="217" y="1288" type="line"/>
			<point x="217" y="542" type="line" smooth="yes"/>
			<point x="217" y="161"/>
			<point x="399" y="-20"/>
			<point x="723" y="-20" type="curve" smooth="yes"/>
			<point x="1032" y="-20"/>
			<point x="1220" y="146"/>
			<point x="1220" y="514" type="curve" smooth="yes"/>
			<point x="1220" y="1290" type="line"/>
			<point x="1445" y="1300"/>
			<point x="1499" y="1382"/>
			<point x="1499" y="1475" type="curve" smooth="yes"/>
			<point x="1499" y="1547"/>
			<point x="1467" y="1574"/>
			<point x="1426" y="1574" type="curve" smooth="yes"/>
			<point x="1385" y="1574"/>
			<point x="1362" y="1541"/>
			<point x="1362" y="1519" type="curve" smooth="yes"/>
			<point x="1362" y="1513"/>
			<point x="1419" y="1477"/>
		</contour>
	</outline>
	<anchor name="UCtop" x="750" y="1340"/>
	<anchor name="bottom" x="730" y="0"/>
</glyph>
